<svg width="60" height="40" viewBox="0 0 60 40" fill="none" xmlns="http://www.w3.org/2000/svg">
<mask id="mask0_1356_58213" style="mask-type:alpha" maskUnits="userSpaceOnUse" x="3" y="0" width="54" height="34">
<rect x="3.38013" width="52.9577" height="33.8028" fill="#D9D9D9"/>
</mask>
<g mask="url(#mask0_1356_58213)">
<path d="M47.8863 1.41443V34.8249H41.6992V8.04246C41.6992 4.38189 44.4693 1.41443 47.8863 1.41443Z" fill="#2E7992"/>
<path d="M47.9265 2.23425V34.2158H44.7542V8.57881C44.7542 5.0748 46.1746 2.23425 47.9265 2.23425Z" fill="#A5D2E7"/>
<path d="M56.4934 11.1372V34.2624H47.1814V16.0714L51.8381 13.6043L56.4934 11.1372Z" fill="#2E7992"/>
<path d="M56.4915 11.1373V34.2625H51.8362V13.6044L56.4915 11.1373Z" fill="#CEE7F4"/>
<path d="M56.4934 11.1372V16.0714H47.1814L51.8381 13.6043L56.4934 11.1372Z" fill="#155D72"/>
<path d="M56.4915 11.1373V16.0716H51.8362V13.6044L56.4915 11.1373Z" fill="#79B9D3"/>
<path d="M55.2038 5.94934C55.8439 5.94934 56.3837 6.37874 56.5512 6.96523H53.8564C54.0239 6.37874 54.5637 5.94934 55.2038 5.94934Z" fill="#EF5E4E"/>
<path d="M48.6339 5.4718C49.5768 5.4718 50.3722 6.10431 50.6186 6.96795H46.6492C46.8959 6.10396 47.691 5.4718 48.6339 5.4718Z" fill="#EF5E4E"/>
<path d="M54.7964 6.96645C54.4919 5.9132 53.2861 5.12671 51.8443 5.12671C50.4024 5.12671 49.1966 5.9132 48.8921 6.96645H54.7961H54.7964Z" fill="#EF5E4E"/>
<path d="M15.9985 1.47955L21.4222 0.565552V36.723H15.9985V1.47955Z" fill="#2E7992"/>
<rect x="21.4268" y="0.565674" width="5.42362" height="33.4457" fill="#EFF9FF"/>
<path fill-rule="evenodd" clip-rule="evenodd" d="M26.8448 2.37244H21.4211V4.18031H26.8448V2.37244ZM26.8451 27.679H21.4214V29.4869H26.8451V27.679ZM21.4214 24.0674H26.8451V25.8752H21.4214V24.0674ZM26.8451 20.4456H21.4214V22.2534H26.8451V20.4456ZM21.4214 5.99409H26.8451V7.80196H21.4214V5.99409ZM26.8451 9.60049H21.4214V11.4084H26.8451V9.60049ZM21.4214 13.2173H26.8451V15.0252H21.4214V13.2173ZM26.8451 16.8391H21.4214V18.647H26.8451V16.8391Z" fill="#A5D2E7"/>
<path fill-rule="evenodd" clip-rule="evenodd" d="M21.4212 0.563599L15.9832 1.4776V3.3056L21.4212 2.37147V0.563599ZM21.4211 4.18555L15.9974 5.13882L15.9832 6.96682L21.4211 5.99342V4.18555ZM15.9977 33.1036H21.4213V34.9115H15.9977V33.1036ZM21.4211 29.4869L15.9832 30.2688V32.0968L21.4211 31.2948V29.4869ZM15.9832 27.0665L21.4211 25.8705V27.6783L15.9832 28.8945V27.0665ZM21.4211 22.2588L15.9832 23.4156V25.2436L21.4211 24.0667V22.2588ZM15.9832 8.78807L21.4211 7.79195V9.59982L15.9832 10.6161V8.78807ZM21.4211 11.4088L15.9832 12.4442V14.2722L21.4211 13.2167V11.4088ZM15.9832 16.1053L21.4211 15.0306V16.8385L15.9832 17.9333V16.1053ZM21.4211 18.637L15.9832 19.7545V21.5825L21.4211 20.4449V18.637Z" fill="#A5D2E7"/>
<path d="M3.33887 7.55373L8.76249 6.55762V31.8679H3.33887V7.55373Z" fill="#A5D2E7"/>
<rect x="8.76733" y="6.55762" width="9.03937" height="32.5417" fill="#EFF9FF"/>
<path fill-rule="evenodd" clip-rule="evenodd" d="M3.3383 10.2966L8.76192 9.26831V11.9801L3.3383 12.785V10.2966ZM3.33813 30.9634H8.76176V33.6752H3.33813V30.9634ZM8.76176 14.696L3.33813 15.4735V18.2991L8.76176 17.4078V14.696ZM3.33813 20.9844L8.76176 20.1134V22.8252L3.33813 23.7238V20.9844ZM8.76176 25.5408L3.33813 26.3776V28.9103L8.76176 28.2526V25.5408Z" fill="#2E7992"/>
<path fill-rule="evenodd" clip-rule="evenodd" d="M17.8021 9.26831H8.7627V11.9801H17.8021V9.26831ZM17.8022 36.3859H8.76285V39.0977H17.8022V36.3859ZM8.76285 14.696H17.8022V17.4078H8.76285V14.696ZM17.8022 20.1134H8.76285V22.8252H17.8022V20.1134ZM8.76285 30.9634H17.8022V33.6752H8.76285V30.9634ZM17.8022 25.541H8.76285V28.2528H17.8022V25.541Z" fill="#A5D2E7"/>
<path d="M37.4978 8.30705L36.7642 5.54712H37.1027L38.2734 8.30705H37.4978Z" fill="#A5D2E7"/>
<path d="M40.9032 8.30705H38.2733L37.1025 5.54712H37.69L40.9032 8.30705Z" fill="#A5D2E7"/>
<path d="M33.7227 6.84363H33.3604V8.68183H33.7227V6.84363Z" fill="#A5D2E7"/>
<path d="M34.6996 7.90853C34.4716 7.77998 34.244 7.48385 34.1069 7.10155C34.0759 7.01442 34.0512 6.92825 34.0326 6.84351H33.7231V8.68171H34.9134L34.6996 7.90853Z" fill="white"/>
<path d="M33.7231 8.99634C33.8907 9.1425 34.105 9.23677 34.3425 9.25296L42.5524 9.82142C44.1963 9.82142 44.9033 9.42292 45.0357 8.99634H33.7231Z" fill="#A5D2E7"/>
<path d="M45.0352 8.99738H33.7227C33.5003 8.80361 33.3604 8.51843 33.3604 8.2023V7.96235L43.2651 7.42151C43.6831 7.42151 44.0835 7.58433 44.3829 7.87189C44.411 7.89903 44.4382 7.92712 44.4644 7.95616L44.7186 8.23896L44.8738 8.41179C45.0314 8.587 45.098 8.79552 45.0352 8.99834V8.99738Z" fill="white"/>
<path d="M44.7192 8.24195H43.28C43.1785 8.24195 43.0962 8.16006 43.0962 8.05866C43.0962 8.00771 43.1167 7.96201 43.15 7.92868C43.1833 7.89536 43.229 7.87488 43.28 7.87488H44.3835C44.4116 7.90202 44.4388 7.93011 44.465 7.95915L44.7192 8.24195Z" fill="#D2412B"/>
<path d="M42.1415 8.4388C42.0797 8.4388 42.0293 8.38886 42.0293 8.32656V8.18389C42.0293 8.12206 42.0792 8.07166 42.1415 8.07166C42.2034 8.07166 42.2538 8.12158 42.2538 8.18389V8.32656C42.2538 8.38839 42.2038 8.4388 42.1415 8.4388Z" fill="#D2412B"/>
<path d="M41.6725 8.4388C41.6107 8.4388 41.5603 8.38886 41.5603 8.32656V8.18389C41.5603 8.12206 41.6102 8.07166 41.6725 8.07166C41.7344 8.07166 41.7848 8.12158 41.7848 8.18389V8.32656C41.7848 8.38839 41.7348 8.4388 41.6725 8.4388Z" fill="#D2412B"/>
<path d="M41.204 8.4388C41.1422 8.4388 41.0918 8.38886 41.0918 8.32656V8.18389C41.0918 8.12206 41.1417 8.07166 41.204 8.07166C41.2659 8.07166 41.3163 8.12158 41.3163 8.18389V8.32656C41.3163 8.38839 41.2663 8.4388 41.204 8.4388Z" fill="#D2412B"/>
<path d="M40.7348 8.4388C40.673 8.4388 40.6226 8.38886 40.6226 8.32656V8.18389C40.6226 8.12206 40.6725 8.07166 40.7348 8.07166C40.7966 8.07166 40.847 8.12158 40.847 8.18389V8.32656C40.847 8.38839 40.7971 8.4388 40.7348 8.4388Z" fill="#D2412B"/>
<path d="M40.2661 8.4388C40.2042 8.4388 40.1538 8.38886 40.1538 8.32656V8.18389C40.1538 8.12206 40.2037 8.07166 40.2661 8.07166C40.3279 8.07166 40.3783 8.12158 40.3783 8.18389V8.32656C40.3783 8.38839 40.3284 8.4388 40.2661 8.4388Z" fill="#D2412B"/>
<path d="M39.7971 8.4388C39.7352 8.4388 39.6848 8.38886 39.6848 8.32656V8.18389C39.6848 8.12206 39.7348 8.07166 39.7971 8.07166C39.8589 8.07166 39.9093 8.12158 39.9093 8.18389V8.32656C39.9093 8.38839 39.8594 8.4388 39.7971 8.4388Z" fill="#D2412B"/>
<path d="M39.3332 8.4388C39.2714 8.4388 39.2209 8.38886 39.2209 8.32656V8.18389C39.2209 8.12206 39.2709 8.07166 39.3332 8.07166C39.395 8.07166 39.4454 8.12158 39.4454 8.18389V8.32656C39.4454 8.38839 39.3955 8.4388 39.3332 8.4388Z" fill="#D2412B"/>
<path d="M38.8642 8.4388C38.8024 8.4388 38.752 8.38886 38.752 8.32656V8.18389C38.752 8.12206 38.8019 8.07166 38.8642 8.07166C38.926 8.07166 38.9764 8.12158 38.9764 8.18389V8.32656C38.9764 8.38839 38.9265 8.4388 38.8642 8.4388Z" fill="#D2412B"/>
<path d="M38.3954 8.4388C38.3336 8.4388 38.2832 8.38886 38.2832 8.32656V8.18389C38.2832 8.12206 38.3331 8.07166 38.3954 8.07166C38.4573 8.07166 38.5077 8.12158 38.5077 8.18389V8.32656C38.5077 8.38839 38.4577 8.4388 38.3954 8.4388Z" fill="#D2412B"/>
<path d="M37.9264 8.4388C37.8646 8.4388 37.8142 8.38886 37.8142 8.32656V8.18389C37.8142 8.12206 37.8641 8.07166 37.9264 8.07166C37.9883 8.07166 38.0387 8.12158 38.0387 8.18389V8.32656C38.0387 8.38839 37.9887 8.4388 37.9264 8.4388Z" fill="#D2412B"/>
<path d="M37.4577 8.4388C37.3959 8.4388 37.3455 8.38886 37.3455 8.32656V8.18389C37.3455 8.12206 37.3954 8.07166 37.4577 8.07166C37.5195 8.07166 37.5699 8.12158 37.5699 8.18389V8.32656C37.5699 8.38839 37.52 8.4388 37.4577 8.4388Z" fill="#D2412B"/>
<path d="M36.9887 8.4388C36.9269 8.4388 36.8765 8.38886 36.8765 8.32656V8.18389C36.8765 8.12206 36.9264 8.07166 36.9887 8.07166C37.0505 8.07166 37.1009 8.12158 37.1009 8.18389V8.32656C37.1009 8.38839 37.051 8.4388 36.9887 8.4388Z" fill="#D2412B"/>
<path d="M36.5197 8.4388C36.4579 8.4388 36.4075 8.38886 36.4075 8.32656V8.18389C36.4075 8.12206 36.4574 8.07166 36.5197 8.07166C36.5815 8.07166 36.6319 8.12158 36.6319 8.18389V8.32656C36.6319 8.38839 36.582 8.4388 36.5197 8.4388Z" fill="#D2412B"/>
<path d="M33.3563 8.32605H34.8356L33.4397 9.52486H33.0374L33.3563 8.32605Z" fill="#A5D2E7"/>
<path d="M37.4978 9.00085L36.7642 11.7608H37.1027L38.2734 9.00085H37.4978Z" fill="#A5D2E7"/>
<path d="M40.9032 9.00061H38.2733L37.1025 11.7606H37.69L40.9032 9.00061Z" fill="white"/>
<path d="M17.7409 2.86438C18.5411 2.86438 19.2159 3.61935 19.4252 4.65044H16.0566C16.2659 3.61935 16.9407 2.86438 17.7409 2.86438Z" fill="#FADCDB"/>
<path d="M9.53252 2.01855C10.7114 2.01855 11.7055 3.13051 12.0137 4.64942H7.05151C7.35974 3.13051 8.35383 2.01855 9.53272 2.01855H9.53252Z" fill="#FADCDB"/>
<path d="M17.2353 4.64893C16.8548 2.7973 15.3472 1.41443 13.545 1.41443C11.7429 1.41443 10.2352 2.7973 9.85474 4.64893H17.2353Z" fill="#FADCDB"/>
</g>
<path d="M55.5693 33.2395C57.5496 33.2395 58.6373 34.8699 56.9035 35.8267C55.4171 36.6469 53.2384 37.3922 50.4919 38.0199C47.7454 38.6477 44.4848 39.1457 40.8963 39.4854C37.3078 39.8252 33.4616 40.0001 29.5775 40.0001C25.6933 40.0001 21.8472 39.8252 18.2587 39.4854C14.6702 39.1457 11.4096 38.6477 8.66304 38.0199C5.91652 37.3922 3.73786 36.6469 2.25145 35.8267C0.517613 34.8699 1.60535 33.2395 3.58565 33.2395L29.5775 33.2395H55.5693Z" fill="#F6BFBB"/>
<mask id="mask1_1356_58213" style="mask-type:alpha" maskUnits="userSpaceOnUse" x="1" y="33" width="57" height="8">
<path d="M55.5693 33.2395C57.5496 33.2395 58.6373 34.8699 56.9035 35.8267C55.4171 36.6469 53.2384 37.3922 50.4919 38.0199C47.7454 38.6477 44.4848 39.1457 40.8963 39.4854C37.3078 39.8252 33.4616 40.0001 29.5775 40.0001C25.6933 40.0001 21.8472 39.8252 18.2587 39.4854C14.6702 39.1457 11.4096 38.6477 8.66304 38.0199C5.91652 37.3922 3.73786 36.6469 2.25145 35.8267C0.517613 34.8699 1.60535 33.2395 3.58565 33.2395L29.5775 33.2395H55.5693Z" fill="#F6BFBB"/>
</mask>
<g mask="url(#mask1_1356_58213)">
<path d="M41.8913 48.3663C41.535 48.4386 41.1787 48.5038 40.8224 48.5646C38.7564 48.9135 36.6332 49.0944 34.4675 49.0944H34.3458C32.2212 49.0872 30.139 48.9062 28.1126 48.5646C27.7549 48.5038 27.3971 48.4386 27.0422 48.3691L31.0305 29.2957H37.9045L41.8913 48.3663Z" fill="#707070"/>
<path d="M35.0671 38.6961H33.8672L34.0228 33.8674H34.9115L35.0671 38.6961Z" fill="white"/>
<path d="M35.0663 38.6961H34.4663V33.8674H34.9107L35.0663 38.6961Z" fill="#CEE7F4"/>
</g>
</svg>
