<svg width="41" height="40" viewBox="0 0 41 40" fill="none" xmlns="http://www.w3.org/2000/svg">
<path d="M14.6616 10.7793C14.6616 10.7793 13.9443 6.05243 11.8104 5.15848C9.67645 4.26453 7.57449 4.9705 7.55782 6.26315C7.54114 7.55627 10.2562 9.26712 11.5047 10.7942C12.3439 11.8204 15.1868 12.2767 14.6616 10.7793Z" fill="#2E7992"/>
<path d="M9.08688 6.22049C9.41336 6.23441 9.73937 6.24834 10.0659 6.26226C9.89034 6.12348 9.71159 5.98934 9.52913 5.86077C9.4907 5.83385 9.47171 5.78558 9.49625 5.74195C9.51755 5.70389 9.57637 5.68161 9.6148 5.709C10.2215 6.13787 10.7911 6.6178 11.3162 7.14368C11.2328 6.81228 11.149 6.48088 11.0657 6.14901C11.0383 6.0404 11.2055 5.9912 11.2328 6.10027C11.3375 6.51522 11.4422 6.93017 11.5464 7.34466C11.5496 7.35812 11.5501 7.37065 11.5482 7.38179C11.5769 7.41196 11.6052 7.44213 11.6334 7.4723C11.946 7.80834 12.2405 8.16063 12.5165 8.52777L12.4989 7.24579C12.4975 7.13347 12.6712 7.13115 12.673 7.24347L12.6934 8.72039C12.6934 8.73478 12.6911 8.74731 12.686 8.75799C12.8851 9.03509 13.0736 9.32007 13.2505 9.61249C13.5108 10.0428 13.746 10.4883 13.9544 10.946C13.9739 10.9887 13.9683 11.0393 13.9248 11.0657C13.8882 11.088 13.8248 11.0792 13.8053 11.036C13.5997 10.5844 13.3677 10.1444 13.1116 9.71971C13.0898 9.72992 13.0639 9.73038 13.0366 9.7146C12.762 9.55493 12.4559 9.45143 12.1396 9.41754C12.0928 9.41244 12.052 9.38273 12.0516 9.33168C12.0511 9.28897 12.0905 9.23838 12.1373 9.24349C12.4244 9.27459 12.7027 9.35256 12.9616 9.47788C12.8041 9.2291 12.6383 8.98589 12.4642 8.74824C12.3757 8.62756 12.285 8.50828 12.1919 8.39085C12.172 8.39456 12.1502 8.39178 12.1303 8.38249C11.5815 8.1351 11.0323 7.88771 10.4836 7.64032C10.4405 7.62082 10.4289 7.55956 10.4507 7.5215C10.4757 7.4774 10.5262 7.46905 10.5692 7.48854L11.9733 8.12118C11.5774 7.64635 11.1476 7.20031 10.6882 6.78675C10.5502 6.66282 10.4099 6.54168 10.2668 6.42379C10.2534 6.43585 10.2344 6.44328 10.2103 6.44235C9.83662 6.42657 9.46291 6.41033 9.0892 6.39454C8.97759 6.3899 8.97481 6.21538 9.08688 6.22003V6.22049Z" fill="#CEE7F4"/>
<path d="M33.1796 34.1077C33.5912 34.1249 34.0238 33.9954 34.3979 33.7406C35.8627 32.7427 39.3572 29.9058 38.5727 25.9865C38.1893 24.0692 38.2272 23.2996 38.4671 22.2265C39.0877 19.4527 39.3729 17.2833 37.3863 17.6379C35.3996 17.9925 34.1067 22.0408 33.7024 22.6567C32.9878 23.7452 31.4777 23.6004 30.7465 25.9578C30.0157 28.3152 30.5858 33.9996 30.5858 33.9996L33.1796 34.1077Z" fill="#2E7992"/>
<path d="M31.1788 29.2195C31.2075 29.1949 31.251 29.1921 31.276 29.2125L33.2261 30.824C33.3909 29.9983 33.6216 29.0171 33.9388 27.9686L32.907 25.0027C32.8968 24.9734 32.9186 24.9391 32.9552 24.9261C32.9918 24.9131 33.0297 24.9261 33.0399 24.9553L34.0092 27.7407C34.0495 27.6117 34.0911 27.4817 34.1337 27.3508C34.475 26.312 34.9233 25.0472 35.3711 23.8172L35.0669 22.3617C35.0604 22.3315 35.0858 22.2986 35.1234 22.2888C35.1609 22.2786 35.1965 22.2953 35.203 22.3255L35.4628 23.5671C36.3408 21.1642 37.1901 18.9618 37.2031 18.9279C37.2151 18.8963 37.2545 18.8755 37.2906 18.881C37.3267 18.8866 37.3462 18.9163 37.3341 18.9479C37.3207 18.9822 36.4455 21.2524 35.5536 23.6975L37.3906 22.8277C37.4258 22.811 37.4661 22.8198 37.4809 22.8472C37.4958 22.8746 37.4791 22.9098 37.4439 22.9265L35.4994 23.8474C35.0534 25.0728 34.6075 26.3311 34.2676 27.3657C34.2129 27.5314 34.1611 27.6961 34.1106 27.8595L36.8734 26.7558C36.9095 26.7414 36.9484 26.7525 36.9604 26.7813C36.9725 26.8096 36.9526 26.8444 36.9164 26.8588L34.0684 27.9964C33.7517 29.0449 33.522 30.0252 33.3585 30.8486L36.7303 29.4251C36.7664 29.4098 36.8058 29.4204 36.8183 29.4488C36.8312 29.4771 36.8122 29.5119 36.7766 29.5272L33.3326 30.9814C33.0696 32.3339 32.9885 33.2297 32.9871 33.2455C32.9843 33.2775 32.9515 33.3054 32.9135 33.3077C32.9107 33.3077 32.9084 33.3077 32.9056 33.3077C32.8714 33.3068 32.8468 33.284 32.8496 33.2543C32.851 33.2385 32.9325 32.3362 33.1974 30.9744L31.1727 29.3016C31.1477 29.2812 31.151 29.2445 31.1797 29.2199L31.1788 29.2195Z" fill="#CEE7F4"/>
<path d="M31.0988 33.9385H14.842C14.0413 33.9385 10.6904 34.0392 11.4424 34.2602C12.1398 34.4654 16.9393 34.5819 17.74 34.5819H32.388C34.8229 34.5819 36.9828 34.4371 36.1858 34.2602C35.3888 34.0833 33.7486 33.9385 31.0988 33.9385Z" fill="black" fill-opacity="0.15"/>
<path d="M10.7431 36.4995H4.31632C3.99956 36.4995 2.67513 36.6002 2.97243 36.8212C3.24797 37.0264 5.14525 37.1429 5.462 37.1429H11.2529C12.2157 37.1429 13.0692 36.9981 12.7543 36.8212C12.4394 36.6443 11.7906 36.4995 10.7431 36.4995Z" fill="black" fill-opacity="0.15"/>
<path d="M12.4901 34.1003H34.0891L34.0891 2.85712L12.4901 2.85712L12.4901 34.1003Z" fill="#EFF9FF"/>
<path d="M22.6344 7.75995L27.8715 7.75995V7.23767L22.6344 7.23767V7.75995Z" fill="#79B9D3"/>
<path d="M14.0907 7.70288L21.8614 7.70288V7.23771L14.0907 7.23771V7.70288Z" fill="#79B9D3"/>
<path d="M14.0908 6.40314L27.8715 6.40314V5.40315L14.0908 5.40315V6.40314Z" fill="#79B9D3"/>
<path d="M20.2028 10.7012L32.1505 10.7012V10.0513L20.2028 10.0513V10.7012Z" fill="#79B9D3"/>
<path d="M20.2028 11.908L32.1505 11.908V11.2581L20.2028 11.2581V11.908Z" fill="#79B9D3"/>
<path d="M20.2028 13.1148L32.1505 13.1148V12.4649L20.2028 12.4649V13.1148Z" fill="#79B9D3"/>
<path d="M20.2028 20.1234H32.1505V19.4735H20.2028V20.1234Z" fill="#79B9D3"/>
<path d="M20.2028 21.3767H32.1505V20.6803H20.2028V21.3767Z" fill="#79B9D3"/>
<path d="M20.2028 22.5834H32.1505V21.8871H20.2028V22.5834Z" fill="#79B9D3"/>
<path d="M20.2028 27.3642H32.1505V26.7143H20.2028V27.3642Z" fill="#79B9D3"/>
<path d="M20.2028 28.5709H32.1505V27.921H20.2028V28.5709Z" fill="#79B9D3"/>
<path d="M20.2021 29.8242H24.9719V28.9885H20.2021V29.8242Z" fill="#79B9D3"/>
<path d="M20.2026 14.368H27.612V13.6717H20.2026V14.368Z" fill="#79B9D3"/>
<path d="M19.1392 10.1244H14.1003V14.9176H19.1392V10.1244Z" fill="white"/>
<path fill-rule="evenodd" clip-rule="evenodd" d="M18.3422 14.3871H17.2663V13.4471L17.7552 13.0916L18.3267 13.4331L18.3422 14.3871Z" fill="#A5D2E7"/>
<path fill-rule="evenodd" clip-rule="evenodd" d="M17.0688 14.388H15.7412V12.6651L16.405 12.2464L17.0688 12.6651V14.388Z" fill="#A5D2E7"/>
<path fill-rule="evenodd" clip-rule="evenodd" d="M15.5436 12.7097L15.9048 12.1401H16.4045L17.2596 12.7097H15.5436Z" fill="#155D72"/>
<path fill-rule="evenodd" clip-rule="evenodd" d="M15.11 12.7096L15.9052 12.14V12.2463L16.569 12.7096H15.11Z" fill="#2E7992"/>
<path fill-rule="evenodd" clip-rule="evenodd" d="M17.1458 13.4453L17.3878 13.0386H17.6923L18.3577 13.4277L17.1458 13.4453Z" fill="#155D72"/>
<path fill-rule="evenodd" clip-rule="evenodd" d="M16.826 13.4453L17.3887 13.0386L17.3895 13.0918L17.8391 13.4453H16.826Z" fill="#2E7992"/>
<path fill-rule="evenodd" clip-rule="evenodd" d="M16.5699 14.388H15.2423V12.7097L15.9061 12.2464L16.5699 12.7097V14.388Z" fill="#CEE7F4"/>
<path fill-rule="evenodd" clip-rule="evenodd" d="M15.4298 14.0437H16.3474V13.4719H15.4298V14.0437Z" fill="#EFF9FF"/>
<path fill-rule="evenodd" clip-rule="evenodd" d="M15.4433 14.0294H16.3324V13.4863H15.4433V14.0294ZM16.3467 14.0581H15.4291C15.4212 14.0581 15.4148 14.0517 15.4148 14.0438V13.472C15.4148 13.4641 15.4212 13.4576 15.4291 13.4576H16.3467C16.3545 13.4576 16.3609 13.4641 16.3609 13.472V14.0438C16.3609 14.0517 16.3545 14.0581 16.3467 14.0581Z" fill="white"/>
<path fill-rule="evenodd" clip-rule="evenodd" d="M15.4298 13.2938H16.335V12.7552H15.4298V13.2938Z" fill="#EFF9FF"/>
<path fill-rule="evenodd" clip-rule="evenodd" d="M15.4433 13.2794H16.32V12.7695H15.4433V13.2794ZM16.3342 13.3081H15.4291C15.4212 13.3081 15.4148 13.3016 15.4148 13.2937V12.7551C15.4148 12.7472 15.4212 12.7408 15.4291 12.7408H16.3342C16.3421 12.7408 16.3485 12.7472 16.3485 12.7551V13.2937C16.3485 13.3016 16.3421 13.3081 16.3342 13.3081Z" fill="#F7F6FB"/>
<path fill-rule="evenodd" clip-rule="evenodd" d="M17.9756 14.3871H16.8997V13.4471L17.3886 13.0916L17.9601 13.4331L17.9756 14.3871Z" fill="#CEE7F4"/>
<path fill-rule="evenodd" clip-rule="evenodd" d="M17.5392 14.2653H17.8944V13.7922H17.5392V14.2653Z" fill="white"/>
<path fill-rule="evenodd" clip-rule="evenodd" d="M17.576 14.2653H17.8641V13.8206H17.576V14.2653Z" fill="#F7F6FB"/>
<path fill-rule="evenodd" clip-rule="evenodd" d="M17.062 14.2742H17.3925V13.4753H17.062V14.2742Z" fill="#EFF9FF"/>
<path fill-rule="evenodd" clip-rule="evenodd" d="M17.0718 14.2635H17.3801V13.4861H17.0718V14.2635ZM17.3908 14.285H17.0611C17.0552 14.285 17.0504 14.2802 17.0504 14.2742V13.4753C17.0504 13.4694 17.0552 13.4645 17.0611 13.4645H17.3908C17.3967 13.4645 17.4015 13.4694 17.4015 13.4753V14.2742C17.4015 14.2802 17.3967 14.285 17.3908 14.285Z" fill="white"/>
<path fill-rule="evenodd" clip-rule="evenodd" d="M17.8637 14.2623H17.8958V14.3879H17.8104V14.2716L17.8637 14.2623Z" fill="#B1AADC"/>
<path fill-rule="evenodd" clip-rule="evenodd" d="M17.5258 14.3042H17.8634V14.2623H17.5258V14.3042Z" fill="#E3E1F2"/>
<path fill-rule="evenodd" clip-rule="evenodd" d="M17.499 14.3461H17.8366V14.3042H17.499V14.3461Z" fill="#CDC8E8"/>
<path fill-rule="evenodd" clip-rule="evenodd" d="M17.4722 14.388H17.8098V14.3461H17.4722V14.388Z" fill="#E3E1F2"/>
<path d="M17.302 12.2266C17.3692 12.2266 17.4259 12.2717 17.4435 12.3333H17.1605C17.1781 12.2717 17.2348 12.2266 17.302 12.2266Z" fill="#FADCDB"/>
<path d="M16.6134 12.1761C16.7122 12.1761 16.7956 12.2425 16.8214 12.3333H16.4055C16.4313 12.2425 16.5146 12.1761 16.6134 12.1761Z" fill="#FADCDB"/>
<path d="M17.2585 12.3333C17.2266 12.2226 17.1003 12.14 16.9492 12.14C16.7981 12.14 16.6717 12.2226 16.6398 12.3333H17.2585H17.2585Z" fill="#FADCDB"/>
<path d="M15.3324 14.2193C15.3487 14.2296 15.3597 14.2422 15.3645 14.2483C15.3648 14.2478 15.3651 14.2474 15.3654 14.247C15.3736 14.2357 15.3831 14.2232 15.394 14.21C15.3872 14.2065 15.3714 14.1976 15.358 14.1834C15.3403 14.1648 15.3335 14.1441 15.3335 14.1441C15.3335 14.1441 15.3553 14.1537 15.373 14.1723C15.3859 14.186 15.393 14.2008 15.3959 14.2077C15.405 14.1968 15.415 14.1854 15.4258 14.1738C15.4201 14.1688 15.4076 14.1567 15.3989 14.1402C15.3872 14.1182 15.3866 14.0967 15.3866 14.0967C15.3866 14.0967 15.4049 14.1108 15.4166 14.1328C15.4247 14.1482 15.4275 14.1634 15.4284 14.1711C15.4393 14.1596 15.4511 14.148 15.4638 14.1366C15.459 14.1309 15.4487 14.1173 15.4429 14.0997C15.4352 14.0764 15.4383 14.055 15.4383 14.055C15.4383 14.055 15.4539 14.0715 15.4617 14.0948C15.467 14.1109 15.4672 14.126 15.4668 14.1339C15.4754 14.1262 15.4843 14.1187 15.4937 14.1113C15.4917 14.1044 15.488 14.0883 15.4901 14.0702C15.4929 14.046 15.5048 14.0273 15.5048 14.0273C15.5048 14.0273 15.5123 14.0478 15.5095 14.072C15.5079 14.0867 15.5028 14.0994 15.499 14.1071C15.5057 14.102 15.5124 14.0969 15.5194 14.092C15.5246 14.0851 15.5338 14.0743 15.5467 14.0649C15.568 14.0496 15.5914 14.0438 15.5914 14.0438C15.5914 14.0438 15.5803 14.063 15.5591 14.0784C15.5463 14.0876 15.5327 14.0934 15.5239 14.0965C15.5167 14.1016 15.5097 14.1068 15.5028 14.1121C15.5117 14.1116 15.5287 14.1115 15.5468 14.116C15.5733 14.1224 15.5921 14.1361 15.5921 14.1361C15.5921 14.1361 15.5681 14.1392 15.5416 14.1327C15.5215 14.1278 15.5059 14.1187 15.4995 14.1147C15.4901 14.1221 15.4811 14.1297 15.4724 14.1373C15.4805 14.1389 15.498 14.1432 15.5151 14.1527C15.5383 14.1657 15.5519 14.1836 15.5519 14.1836C15.5519 14.1836 15.5279 14.1804 15.5047 14.1674C15.487 14.1575 15.475 14.1449 15.4702 14.1393C15.4571 14.151 15.445 14.1629 15.4338 14.1747C15.4421 14.1756 15.4598 14.1785 15.4776 14.1866C15.502 14.1977 15.5173 14.2145 15.5173 14.2145C15.5173 14.2145 15.4931 14.2132 15.4687 14.2021C15.4503 14.1937 15.4371 14.1821 15.4317 14.1769C15.4207 14.1886 15.4106 14.2 15.4014 14.2111C15.4098 14.2118 15.4275 14.2141 15.4454 14.2216C15.4702 14.2319 15.4862 14.2482 15.4862 14.2482C15.4862 14.2482 15.4619 14.2476 15.4371 14.2373C15.4186 14.2296 15.4051 14.2187 15.3993 14.2136C15.3886 14.2266 15.3791 14.239 15.3711 14.2501C15.3707 14.2506 15.3703 14.2512 15.3699 14.2518C15.3753 14.2526 15.3958 14.2566 15.4157 14.2677C15.4389 14.2807 15.4525 14.2986 15.4525 14.2986C15.4525 14.2986 15.4285 14.2954 15.4053 14.2824C15.3854 14.2712 15.3725 14.2565 15.3693 14.2526C15.3365 14.2983 15.3196 14.3328 15.3194 14.3331L15.3132 14.3308C15.3134 14.3304 15.3302 14.2963 15.3625 14.2509C15.3546 14.2489 15.3374 14.2438 15.321 14.2334C15.2987 14.2193 15.2863 14.2007 15.2863 14.2007C15.2863 14.2007 15.31 14.2051 15.3324 14.2193L15.3324 14.2193Z" fill="#EF5E4E"/>
<path d="M15.0611 14.142C15.0911 14.1501 15.1147 14.1648 15.1253 14.1721C15.1255 14.1713 15.1257 14.1704 15.1259 14.1695C15.131 14.147 15.1374 14.1217 15.1453 14.0945C15.1333 14.0925 15.1049 14.0864 15.0768 14.0705C15.0399 14.0496 15.0175 14.0197 15.0175 14.0197C15.0175 14.0197 15.055 14.0237 15.0919 14.0446C15.1191 14.06 15.1384 14.0802 15.1467 14.0898C15.1533 14.0674 15.161 14.0437 15.1699 14.0193C15.1586 14.0141 15.1331 14.0011 15.1104 13.979C15.0801 13.9495 15.0662 13.9149 15.0662 13.9149C15.0662 13.9149 15.1015 13.9282 15.1318 13.9577C15.1529 13.9784 15.1661 14.0014 15.1721 14.0135C15.1811 13.9891 15.1913 13.9642 15.2028 13.939C15.1924 13.9322 15.1692 13.9155 15.1501 13.8902C15.1248 13.8565 15.1164 13.8203 15.1164 13.8203C15.1164 13.8203 15.1492 13.8387 15.1745 13.8724C15.192 13.8956 15.2014 13.9201 15.2056 13.933C15.2135 13.9161 15.222 13.8991 15.2311 13.8822C15.224 13.872 15.209 13.848 15.2011 13.8176C15.1906 13.7769 15.1968 13.7403 15.1968 13.7403C15.1968 13.7403 15.22 13.7695 15.2306 13.8102C15.237 13.8349 15.2372 13.8581 15.2364 13.8725C15.243 13.8608 15.2498 13.8491 15.257 13.8375C15.2604 13.8234 15.2673 13.8012 15.2805 13.7792C15.3023 13.7431 15.3329 13.7215 15.3329 13.7215C15.3329 13.7215 15.3284 13.7584 15.3066 13.7945C15.2935 13.8162 15.2772 13.8327 15.2662 13.8424C15.2588 13.8544 15.2517 13.8665 15.2449 13.8786C15.2576 13.8732 15.2823 13.8641 15.3114 13.8618C15.3539 13.8584 15.3895 13.8705 15.3895 13.8705C15.3895 13.8705 15.3564 13.8882 15.3139 13.8916C15.2817 13.8942 15.2534 13.8878 15.2416 13.8846C15.2324 13.9016 15.2238 13.9186 15.2159 13.9356C15.2285 13.9339 15.2567 13.9315 15.2873 13.938C15.329 13.9468 15.3596 13.9686 15.3596 13.9686C15.3596 13.9686 15.3226 13.976 15.281 13.9672C15.2493 13.9606 15.2241 13.9464 15.2138 13.94C15.2018 13.9658 15.1913 13.9914 15.1821 14.0164C15.1947 14.0136 15.2223 14.0089 15.2531 14.0127C15.2954 14.0178 15.3278 14.0368 15.3278 14.0368C15.3278 14.0368 15.2916 14.0475 15.2494 14.0423C15.2175 14.0385 15.1913 14.0267 15.1803 14.0212C15.1713 14.0458 15.1635 14.0697 15.1568 14.0924C15.1695 14.0891 15.1966 14.0836 15.2273 14.0862C15.2697 14.0899 15.3028 14.1077 15.3028 14.1077C15.3028 14.1077 15.2671 14.1197 15.2246 14.116C15.1931 14.1133 15.1667 14.1028 15.1553 14.0975C15.1475 14.1243 15.1412 14.1493 15.1361 14.1715C15.1359 14.1726 15.1356 14.1737 15.1354 14.1748C15.1438 14.1734 15.1761 14.169 15.2118 14.1765C15.2535 14.1853 15.2841 14.2071 15.2841 14.2071C15.2841 14.2071 15.2471 14.2146 15.2055 14.2058C15.1697 14.1982 15.1421 14.1811 15.135 14.1764C15.1148 14.2677 15.1109 14.3325 15.1108 14.3332L15.1004 14.3326C15.1005 14.3319 15.1043 14.2678 15.1242 14.1773C15.1114 14.1783 15.0832 14.179 15.0531 14.1708C15.012 14.1597 14.9828 14.1362 14.9828 14.1362C14.9828 14.1362 15.0201 14.1308 15.0611 14.142L15.0611 14.142Z" fill="#EF5E4E"/>
<path d="M15.4427 14.2714C15.4817 14.2714 15.5146 14.2976 15.5248 14.3333H15.3606C15.3708 14.2976 15.4037 14.2714 15.4427 14.2714Z" fill="#FADCDB"/>
<path d="M15.044 14.2422C15.1014 14.2422 15.1499 14.2807 15.1649 14.3334H14.923C14.9381 14.2807 14.9865 14.2422 15.044 14.2422Z" fill="#FADCDB"/>
<path d="M15.4177 14.3333C15.3992 14.2692 15.3259 14.2213 15.2382 14.2213C15.1506 14.2213 15.0773 14.2692 15.0588 14.3333H15.4177Z" fill="#FADCDB"/>
<path d="M18.1435 13.7129C18.1617 13.7065 18.1816 13.7161 18.188 13.7343C18.1908 13.7425 18.1905 13.751 18.1876 13.7585C18.2177 13.7866 18.2455 13.8166 18.2711 13.8472C18.2654 13.8147 18.2593 13.7659 18.2628 13.7176C18.2541 13.7139 18.2467 13.7067 18.2434 13.6969C18.237 13.6787 18.2465 13.6587 18.2647 13.6523C18.2829 13.6459 18.3028 13.6555 18.3092 13.6737C18.3156 13.6919 18.306 13.7119 18.2879 13.7183C18.2857 13.7191 18.2836 13.7196 18.2815 13.7199C18.2765 13.7923 18.2942 13.8677 18.297 13.8793C18.3514 13.9492 18.3942 14.0197 18.4247 14.0758C18.4795 14.1767 18.5075 14.2544 18.5078 14.2552L18.49 14.2616C18.4898 14.2608 18.4622 14.1845 18.4081 14.0849C18.3919 14.0549 18.372 14.0208 18.3488 13.9849C18.3356 13.9819 18.2856 13.9726 18.2186 13.9826C18.2183 13.9968 18.2095 14.01 18.1953 14.015C18.1771 14.0214 18.1572 14.0118 18.1508 13.9936C18.1444 13.9753 18.1539 13.9554 18.1721 13.949C18.1881 13.9433 18.2055 13.9501 18.2138 13.9643C18.2668 13.956 18.3097 13.9594 18.3344 13.9631C18.2917 13.8998 18.2388 13.8326 18.1762 13.7737C18.1733 13.7759 18.1701 13.7776 18.1665 13.7789C18.1483 13.7853 18.1284 13.7757 18.122 13.7575C18.1156 13.7393 18.1252 13.7193 18.1434 13.7129H18.1435Z" fill="#F29892"/>
<path d="M18.57 13.9606C18.5587 13.9531 18.515 13.9267 18.4487 13.9125C18.4434 13.9257 18.4304 13.9349 18.4154 13.9345C18.3961 13.9341 18.3807 13.9181 18.3812 13.8988C18.3816 13.8795 18.3976 13.8641 18.4169 13.8646C18.4339 13.8649 18.4478 13.8774 18.4506 13.8936C18.5033 13.9046 18.5423 13.9229 18.5642 13.935C18.5464 13.8607 18.5204 13.7791 18.4825 13.7019C18.479 13.703 18.4754 13.7035 18.4716 13.7035C18.4522 13.7031 18.4369 13.687 18.4373 13.6677C18.4377 13.6484 18.4538 13.633 18.4731 13.6335C18.4924 13.6339 18.5077 13.6499 18.5073 13.6692C18.5071 13.6779 18.5038 13.6857 18.4985 13.6917C18.5168 13.7286 18.5323 13.7665 18.5456 13.8042C18.5516 13.7718 18.5631 13.7239 18.5835 13.6799C18.5765 13.6734 18.5722 13.664 18.5725 13.6538C18.5729 13.6344 18.5889 13.6191 18.6082 13.6195C18.6275 13.6199 18.6429 13.6359 18.6424 13.6553C18.642 13.6746 18.626 13.6899 18.6067 13.6895C18.6045 13.6894 18.6023 13.6892 18.6002 13.6887C18.57 13.7547 18.56 13.8315 18.5586 13.8434C18.585 13.928 18.6003 14.0092 18.6092 14.0725C18.625 14.1863 18.624 14.2688 18.624 14.2697L18.6051 14.2694C18.6051 14.2686 18.6062 14.1874 18.5905 14.0751C18.5858 14.0413 18.5792 14.0024 18.57 13.9606Z" fill="#F29892"/>
<path d="M14.6193 14.1778C14.7162 14.1778 14.7979 14.2429 14.8232 14.3319H14.4154C14.4407 14.2429 14.5224 14.1778 14.6193 14.1778H14.6193Z" fill="#FADCDB"/>
<path d="M14.8577 14.2255C14.9248 14.2255 14.9813 14.2705 14.9988 14.3319H14.7167C14.7343 14.2705 14.7908 14.2255 14.8578 14.2255H14.8577Z" fill="#FADCDB"/>
<path d="M15.053 13.5377C15.053 13.8866 14.9327 13.9993 14.7843 13.9993C14.6885 13.9993 14.6044 13.9523 14.5568 13.8252C14.5306 13.7554 14.5155 13.6614 14.5155 13.5377C14.5155 13.1889 14.6358 12.9061 14.7843 12.9061C14.8012 12.9061 14.8178 12.9098 14.8338 12.9168C14.9586 12.9714 15.053 13.2287 15.053 13.5377Z" fill="#79B9D3"/>
<path d="M14.921 13.3826C14.921 13.7314 14.8006 13.844 14.6522 13.844C14.6186 13.844 14.5864 13.8382 14.5568 13.8252C14.5306 13.7554 14.5155 13.6614 14.5155 13.5377C14.5155 13.1889 14.6358 12.9061 14.7843 12.9061C14.8012 12.9061 14.8178 12.9098 14.8338 12.9168C14.8874 13.0324 14.921 13.1982 14.921 13.3825V13.3826Z" fill="#A5D2E7"/>
<path d="M14.785 14.2463V13.6196" stroke="#F29892" stroke-width="0.0427959" stroke-miterlimit="10"/>
<path d="M14.785 13.9174C14.785 13.9174 14.8193 13.8242 14.9272 13.7703" stroke="#F29892" stroke-width="0.0342489" stroke-miterlimit="10"/>
<path d="M14.7852 13.7808C14.7852 13.7808 14.7411 13.6638 14.6528 13.6196" stroke="#F29892" stroke-width="0.0342489" stroke-miterlimit="10"/>
<path d="M18.5267 14.2312C18.6236 14.2312 18.7053 14.2963 18.7306 14.3853H18.3228C18.3482 14.2963 18.4298 14.2312 18.5267 14.2312H18.5267Z" fill="#F29892"/>
<path d="M18.7669 14.2788C18.8339 14.2788 18.8904 14.3237 18.9079 14.3851H18.6259C18.6434 14.3237 18.6999 14.2788 18.7669 14.2788H18.7669Z" fill="#F29892"/>
<path d="M19.1392 19.3669H14.1003V24.1601H19.1392V19.3669Z" fill="white"/>
<path d="M16.7587 19.9047L17.3606 19.8085L17.3375 23.5217L16.7587 23.6145V19.9047Z" fill="#2E7992"/>
<path d="M17.3611 19.8085H17.963V23.6145H17.338L17.3611 19.8085Z" fill="#EFF9FF"/>
<path fill-rule="evenodd" clip-rule="evenodd" d="M17.3444 19.9906H17.9479V20.1922H17.3444V19.9906ZM17.3444 22.8135H17.9479V23.0151H17.3444V22.8135ZM17.9479 23.2432H17.3444V23.4448H17.9479V23.2432ZM17.3444 22.4103H17.9479V22.612H17.3444V22.4103ZM17.9479 22.0069H17.3444V22.2086H17.9479V22.0069ZM17.3444 20.3938H17.9479V20.5955H17.3444V20.3938ZM17.9479 20.7971H17.3444V20.9988H17.9479V20.7971ZM17.3444 21.2005H17.9479V21.4021H17.3444V21.2005ZM17.9479 21.6037H17.3444V21.8053H17.9479V21.6037Z" fill="#A5D2E7"/>
<path fill-rule="evenodd" clip-rule="evenodd" d="M17.3456 19.7885L16.7405 19.8905V20.0944L17.3456 19.9902V19.7885ZM17.3455 20.1918L16.7421 20.2981L16.7405 20.502L17.3455 20.3935V20.1918ZM16.7591 23.452L17.3456 23.418V23.6197H16.7422L16.7591 23.452ZM17.3455 23.0147L16.7405 23.1019V23.3058L17.3455 23.2163V23.0147ZM16.7405 22.7449L17.3455 22.6115V22.8132L16.7405 22.9488V22.7449ZM17.3455 22.2082L16.7405 22.3372V22.5411L17.3455 22.4098V22.2082ZM16.7405 20.7063L17.3455 20.5952V20.7968L16.7405 20.9102V20.7063ZM17.3455 20.9983L16.7405 21.1138V21.3177L17.3455 21.2V20.9983ZM16.7405 21.5216L17.3455 21.4017V21.6034L16.7405 21.7255V21.5216ZM17.3455 21.805L16.7405 21.9296V22.1335L17.3455 22.0066V21.805Z" fill="#A5D2E7"/>
<path d="M15.3337 20.7062L15.9372 20.5951V23.4182H15.3337V20.7062Z" fill="#A5D2E7"/>
<rect x="15.9263" y="20.5977" width="1.01857" height="3.01693" fill="#EFF9FF"/>
<path fill-rule="evenodd" clip-rule="evenodd" d="M15.3335 21.0121L15.9369 20.8975V21.1999L15.3335 21.2897V21.0121ZM15.3335 23.3171H15.9369V23.6196H15.3335V23.3171ZM15.9369 21.5026L15.3335 21.5893V21.9045L15.9369 21.8051V21.5026ZM15.3335 22.2045L15.9369 22.1073V22.4098L15.3335 22.51V22.2045ZM15.9369 22.7125L15.3335 22.8059V23.0883L15.9369 23.015V22.7125Z" fill="#2E7992"/>
<path fill-rule="evenodd" clip-rule="evenodd" d="M15.9365 20.8975H16.9422V21.1999H15.9365V20.8975ZM15.9365 21.5026H16.9422V21.8051H15.9365V21.5026ZM16.9422 22.1073H15.9365V22.4098H16.9422V22.1073ZM15.9365 23.3171H16.9422V23.6196H15.9365V23.3171ZM16.9422 22.7125H15.9365V23.015H16.9422V22.7125Z" fill="#A5D2E7"/>
<path d="M18.6025 20.1811C18.6697 20.1811 18.7264 20.2262 18.744 20.2878H18.4609C18.4785 20.2262 18.5352 20.1811 18.6025 20.1811Z" fill="#F29892"/>
<path d="M17.9139 20.1305C18.0127 20.1305 18.0961 20.1969 18.1219 20.2877H17.7059C17.7318 20.1969 17.8151 20.1305 17.9139 20.1305Z" fill="#F29892"/>
<path d="M18.559 20.2877C18.5271 20.1771 18.4007 20.0945 18.2497 20.0945C18.0986 20.0945 17.9722 20.1771 17.9403 20.2877H18.559H18.559Z" fill="#F29892"/>
<path d="M15.471 23.5255C15.4873 23.5358 15.4983 23.5484 15.5031 23.5545C15.5034 23.5541 15.5037 23.5536 15.504 23.5532C15.5122 23.5419 15.5217 23.5294 15.5326 23.5162C15.5258 23.5127 15.51 23.5038 15.4966 23.4897C15.479 23.471 15.4722 23.4503 15.4722 23.4503C15.4722 23.4503 15.4939 23.4599 15.5116 23.4785C15.5245 23.4922 15.5316 23.507 15.5345 23.5139C15.5436 23.503 15.5536 23.4916 15.5644 23.4801C15.5587 23.475 15.5463 23.463 15.5375 23.4464C15.5258 23.4244 15.5252 23.4029 15.5252 23.4029C15.5252 23.4029 15.5435 23.417 15.5552 23.4391C15.5634 23.4544 15.5661 23.4696 15.567 23.4773C15.5779 23.4659 15.5897 23.4543 15.6024 23.4428C15.5976 23.4371 15.5873 23.4235 15.5815 23.4059C15.5738 23.3826 15.5769 23.3612 15.5769 23.3612C15.5769 23.3612 15.5925 23.3777 15.6003 23.401C15.6056 23.4171 15.6058 23.4323 15.6054 23.4401C15.614 23.4325 15.6229 23.4249 15.6323 23.4175C15.6303 23.4106 15.6266 23.3945 15.6287 23.3764C15.6315 23.3522 15.6435 23.3335 15.6435 23.3335C15.6435 23.3335 15.6509 23.354 15.6482 23.3782C15.6465 23.3929 15.6414 23.4056 15.6377 23.4133C15.6443 23.4082 15.6511 23.4032 15.658 23.3983C15.6632 23.3913 15.6724 23.3805 15.6853 23.3711C15.7066 23.3558 15.73 23.35 15.73 23.35C15.73 23.35 15.719 23.3692 15.6977 23.3846C15.6849 23.3938 15.6713 23.3996 15.6625 23.4027C15.6553 23.4078 15.6483 23.413 15.6414 23.4183C15.6503 23.4178 15.6673 23.4177 15.6854 23.4222C15.7119 23.4287 15.7307 23.4423 15.7307 23.4423C15.7307 23.4423 15.7067 23.4454 15.6802 23.4389C15.6602 23.434 15.6445 23.4249 15.6381 23.4209C15.6287 23.4283 15.6197 23.4359 15.6111 23.4435C15.6191 23.4451 15.6366 23.4494 15.6537 23.4589C15.6769 23.4719 15.6905 23.4898 15.6905 23.4898C15.6905 23.4898 15.6665 23.4866 15.6433 23.4736C15.6256 23.4637 15.6136 23.4511 15.6088 23.4455C15.5958 23.4572 15.5836 23.4691 15.5724 23.4809C15.5807 23.4818 15.5984 23.4847 15.6162 23.4928C15.6406 23.504 15.6559 23.5207 15.6559 23.5207C15.6559 23.5207 15.6317 23.5194 15.6073 23.5083C15.5889 23.4999 15.5757 23.4884 15.5703 23.4832C15.5593 23.4948 15.5492 23.5063 15.54 23.5173C15.5484 23.518 15.5661 23.5204 15.584 23.5278C15.6089 23.5381 15.6248 23.5544 15.6248 23.5544C15.6248 23.5544 15.6005 23.5538 15.5757 23.5435C15.5572 23.5358 15.5437 23.5249 15.5379 23.5198C15.5272 23.5328 15.5177 23.5452 15.5097 23.5563C15.5093 23.5569 15.5089 23.5574 15.5085 23.558C15.5139 23.5589 15.5344 23.5628 15.5544 23.5739C15.5776 23.5869 15.5911 23.6048 15.5911 23.6048C15.5911 23.6048 15.5671 23.6016 15.5439 23.5886C15.524 23.5774 15.5112 23.5627 15.5079 23.5588C15.4751 23.6045 15.4582 23.639 15.458 23.6393L15.4518 23.637C15.452 23.6366 15.4688 23.6025 15.5012 23.5571C15.4932 23.5551 15.476 23.55 15.4596 23.5396C15.4373 23.5255 15.4249 23.507 15.4249 23.507C15.4249 23.507 15.4487 23.5114 15.471 23.5255L15.471 23.5255Z" fill="#FDF5F5"/>
<path d="M15.1997 23.4482C15.2297 23.4564 15.2533 23.471 15.2639 23.4783C15.2641 23.4775 15.2643 23.4766 15.2645 23.4757C15.2696 23.4532 15.276 23.4279 15.2839 23.4008C15.2719 23.3988 15.2435 23.3926 15.2154 23.3768C15.1785 23.3559 15.1561 23.3259 15.1561 23.3259C15.1561 23.3259 15.1936 23.3299 15.2305 23.3508C15.2577 23.3662 15.277 23.3864 15.2853 23.396C15.2919 23.3736 15.2996 23.3499 15.3085 23.3255C15.2972 23.3203 15.2717 23.3073 15.249 23.2852C15.2187 23.2557 15.2049 23.2212 15.2049 23.2212C15.2049 23.2212 15.2401 23.2344 15.2704 23.264C15.2915 23.2846 15.3047 23.3076 15.3107 23.3197C15.3197 23.2953 15.3299 23.2704 15.3414 23.2452C15.331 23.2385 15.3078 23.2218 15.2888 23.1964C15.2634 23.1627 15.255 23.1265 15.255 23.1265C15.255 23.1265 15.2878 23.1449 15.3131 23.1786C15.3306 23.2018 15.34 23.2263 15.3442 23.2392C15.3521 23.2223 15.3606 23.2053 15.3697 23.1884C15.3626 23.1782 15.3476 23.1542 15.3398 23.1238C15.3292 23.0831 15.3354 23.0465 15.3354 23.0465C15.3354 23.0465 15.3586 23.0757 15.3692 23.1164C15.3756 23.1411 15.3758 23.1643 15.375 23.1788C15.3816 23.167 15.3884 23.1553 15.3957 23.1437C15.399 23.1296 15.4059 23.1074 15.4191 23.0854C15.4409 23.0493 15.4715 23.0277 15.4715 23.0277C15.4715 23.0277 15.467 23.0646 15.4452 23.1007C15.4321 23.1224 15.4158 23.1389 15.4049 23.1486C15.3974 23.1606 15.3903 23.1727 15.3835 23.1848C15.3962 23.1794 15.421 23.1703 15.45 23.168C15.4925 23.1646 15.5281 23.1767 15.5281 23.1767C15.5281 23.1767 15.495 23.1944 15.4525 23.1978C15.4203 23.2004 15.392 23.194 15.3802 23.1908C15.371 23.2078 15.3624 23.2248 15.3545 23.2418C15.3672 23.2401 15.3953 23.2377 15.4259 23.2442C15.4676 23.253 15.4982 23.2748 15.4982 23.2748C15.4982 23.2748 15.4612 23.2823 15.4196 23.2735C15.3879 23.2668 15.3627 23.2526 15.3524 23.2462C15.3405 23.272 15.3299 23.2976 15.3207 23.3226C15.3333 23.3198 15.3609 23.3151 15.3917 23.3189C15.434 23.324 15.4664 23.343 15.4664 23.343C15.4664 23.343 15.4303 23.3537 15.388 23.3486C15.3562 23.3447 15.3299 23.3329 15.3189 23.3274C15.3099 23.352 15.3021 23.3759 15.2954 23.3986C15.3081 23.3953 15.3352 23.3898 15.3659 23.3925C15.4083 23.3961 15.4414 23.4139 15.4414 23.4139C15.4414 23.4139 15.4057 23.4259 15.3632 23.4223C15.3317 23.4195 15.3053 23.409 15.2939 23.4038C15.2861 23.4305 15.2798 23.4555 15.2747 23.4777C15.2745 23.4788 15.2742 23.4799 15.274 23.481C15.2824 23.4796 15.3147 23.4752 15.3504 23.4827C15.3921 23.4915 15.4227 23.5133 15.4227 23.5133C15.4227 23.5133 15.3857 23.5208 15.3441 23.512C15.3083 23.5044 15.2807 23.4873 15.2737 23.4826C15.2534 23.5739 15.2495 23.6387 15.2495 23.6394L15.239 23.6388C15.2391 23.6381 15.2429 23.574 15.2628 23.4835C15.25 23.4845 15.2219 23.4852 15.1917 23.477C15.1506 23.4659 15.1214 23.4424 15.1214 23.4424C15.1214 23.4424 15.1587 23.4371 15.1998 23.4482L15.1997 23.4482Z" fill="#EF5E4E"/>
<path d="M15.5817 23.5777C15.6207 23.5777 15.6536 23.6039 15.6638 23.6396H15.4996C15.5098 23.6039 15.5427 23.5777 15.5817 23.5777Z" fill="#FADCDB"/>
<path d="M15.1829 23.5484C15.2404 23.5484 15.2888 23.5869 15.3038 23.6396H15.062C15.077 23.5869 15.1254 23.5484 15.1829 23.5484Z" fill="#FADCDB"/>
<path d="M15.5566 23.6396C15.5381 23.5754 15.4648 23.5275 15.3772 23.5275C15.2895 23.5275 15.2162 23.5754 15.1977 23.6396H15.5566Z" fill="#FADCDB"/>
<path d="M17.7293 22.9554C17.7475 22.949 17.7675 22.9585 17.7738 22.9767C17.7767 22.9849 17.7764 22.9934 17.7735 23.0009C17.8035 23.029 17.8314 23.059 17.857 23.0897C17.8513 23.0571 17.8452 23.0084 17.8487 22.96C17.8399 22.9563 17.8326 22.9491 17.8292 22.9394C17.8228 22.9211 17.8324 22.9012 17.8506 22.8947C17.8688 22.8883 17.8887 22.8979 17.8951 22.9161C17.9015 22.9344 17.8919 22.9543 17.8737 22.9607C17.8716 22.9615 17.8695 22.962 17.8674 22.9623C17.8624 23.0347 17.88 23.1102 17.8829 23.1218C17.9373 23.1916 17.9801 23.2621 18.0106 23.3183C18.0653 23.4192 18.0934 23.4968 18.0936 23.4976L18.0759 23.504C18.0757 23.5032 18.0481 23.4269 17.994 23.3273C17.9777 23.2973 17.9579 23.2632 17.9347 23.2273C17.9215 23.2244 17.8714 23.215 17.8045 23.225C17.8042 23.2392 17.7953 23.2524 17.7812 23.2574C17.763 23.2638 17.743 23.2542 17.7366 23.236C17.7303 23.2178 17.7398 23.1978 17.758 23.1914C17.774 23.1857 17.7914 23.1925 17.7997 23.2067C17.8527 23.1985 17.8956 23.2018 17.9202 23.2055C17.8776 23.1422 17.8246 23.075 17.7621 23.0161C17.7592 23.0183 17.756 23.0201 17.7524 23.0214C17.7342 23.0278 17.7143 23.0182 17.7079 23C17.7015 22.9817 17.7111 22.9618 17.7292 22.9554H17.7293Z" fill="#F29892"/>
<path d="M18.156 23.203C18.1446 23.1956 18.101 23.1691 18.0346 23.1549C18.0294 23.1681 18.0164 23.1773 18.0013 23.177C17.982 23.1766 17.9667 23.1605 17.9671 23.1412C17.9675 23.1219 17.9835 23.1066 18.0029 23.107C18.0199 23.1074 18.0338 23.1199 18.0366 23.136C18.0893 23.1471 18.1283 23.1653 18.1501 23.1775C18.1323 23.1032 18.1064 23.0216 18.0684 22.9444C18.065 22.9454 18.0613 22.946 18.0575 22.9459C18.0381 22.9455 18.0228 22.9294 18.0233 22.9101C18.0237 22.8908 18.0397 22.8755 18.059 22.8759C18.0783 22.8763 18.0937 22.8923 18.0932 22.9116C18.0931 22.9203 18.0897 22.9281 18.0844 22.9341C18.1027 22.9711 18.1182 23.009 18.1315 23.0467C18.1375 23.0142 18.149 22.9664 18.1694 22.9224C18.1625 22.9158 18.1582 22.9065 18.1584 22.8962C18.1588 22.8768 18.1748 22.8615 18.1941 22.8619C18.2135 22.8623 18.2288 22.8784 18.2284 22.8977C18.228 22.917 18.2119 22.9324 18.1926 22.9319C18.1904 22.9319 18.1883 22.9316 18.1861 22.9312C18.1559 22.9972 18.1459 23.074 18.1445 23.0859C18.1709 23.1704 18.1863 23.2516 18.1951 23.3149C18.211 23.4287 18.2099 23.5113 18.2099 23.5121L18.191 23.5118C18.191 23.511 18.1921 23.4298 18.1764 23.3175C18.1717 23.2837 18.1651 23.2448 18.156 23.203Z" fill="#F29892"/>
<path d="M14.7576 23.4841C14.8545 23.4841 14.9362 23.5492 14.9615 23.6382H14.5537C14.579 23.5492 14.6607 23.4841 14.7576 23.4841H14.7576Z" fill="#FADCDB"/>
<path d="M14.9961 23.5317C15.0631 23.5317 15.1196 23.5766 15.1371 23.638H14.855C14.8726 23.5766 14.9291 23.5317 14.9961 23.5317H14.9961Z" fill="#FADCDB"/>
<path d="M15.1933 22.8438C15.1933 23.1926 15.073 23.3053 14.9246 23.3053C14.8288 23.3053 14.7447 23.2584 14.6971 23.1312C14.6709 23.0614 14.6558 22.9675 14.6558 22.8438C14.6558 22.4949 14.7761 22.2122 14.9246 22.2122C14.9415 22.2122 14.9581 22.2158 14.9741 22.2229C15.0989 22.2775 15.1933 22.5347 15.1933 22.8438Z" fill="#79B9D3"/>
<path d="M15.0613 22.6886C15.0613 23.0374 14.9409 23.15 14.7925 23.15C14.7589 23.15 14.7267 23.1443 14.6971 23.1312C14.6709 23.0614 14.6558 22.9675 14.6558 22.8438C14.6558 22.4949 14.7761 22.2122 14.9246 22.2122C14.9415 22.2122 14.9581 22.2158 14.9741 22.2229C15.0277 22.3384 15.0613 22.5042 15.0613 22.6885V22.6886Z" fill="#A5D2E7"/>
<path d="M14.9253 23.5525V22.9259" stroke="#F29892" stroke-width="0.0427959" stroke-miterlimit="10"/>
<path d="M14.9253 23.2234C14.9253 23.2234 14.9597 23.1303 15.0676 23.0763" stroke="#F29892" stroke-width="0.0342489" stroke-miterlimit="10"/>
<path d="M14.9238 23.087C14.9238 23.087 14.8797 22.97 14.7914 22.9259" stroke="#F29892" stroke-width="0.0342489" stroke-miterlimit="10"/>
<path d="M18.1141 23.4736C18.211 23.4736 18.2927 23.5388 18.318 23.6277H17.9102C17.9356 23.5388 18.0172 23.4736 18.1141 23.4736H18.1141Z" fill="#F29892"/>
<path d="M18.3526 23.5212C18.4196 23.5212 18.4761 23.5661 18.4936 23.6275H18.2115C18.2291 23.5661 18.2856 23.5212 18.3526 23.5212H18.3526Z" fill="#F29892"/>
<path d="M19.1392 27.1494H14.1003V31.9426H19.1392V27.1494Z" fill="white"/>
<path fill-rule="evenodd" clip-rule="evenodd" d="M18.3422 31.4216H17.2663V30.4816L17.7552 30.1261L18.3267 30.4676L18.3422 31.4216Z" fill="#A5D2E7"/>
<path fill-rule="evenodd" clip-rule="evenodd" d="M17.0688 31.4223H15.7412V29.6994L16.405 29.2807L17.0688 29.6994V31.4223Z" fill="#A5D2E7"/>
<path fill-rule="evenodd" clip-rule="evenodd" d="M15.5436 29.744L15.9048 29.1744H16.4045L17.2596 29.744H15.5436Z" fill="#155D72"/>
<path fill-rule="evenodd" clip-rule="evenodd" d="M15.11 29.744L15.9052 29.1744V29.2807L16.569 29.744H15.11Z" fill="#2E7992"/>
<path fill-rule="evenodd" clip-rule="evenodd" d="M17.1458 30.4796L17.3878 30.0729H17.6923L18.3577 30.462L17.1458 30.4796Z" fill="#155D72"/>
<path fill-rule="evenodd" clip-rule="evenodd" d="M16.826 30.4796L17.3887 30.0729L17.3895 30.1261L17.8391 30.4796H16.826Z" fill="#2E7992"/>
<path fill-rule="evenodd" clip-rule="evenodd" d="M16.5699 31.4223H15.2423V29.744L15.9061 29.2807L16.5699 29.744V31.4223Z" fill="#CEE7F4"/>
<path fill-rule="evenodd" clip-rule="evenodd" d="M15.4298 31.078H16.3474V30.5062H15.4298V31.078Z" fill="#EFF9FF"/>
<path fill-rule="evenodd" clip-rule="evenodd" d="M15.4433 31.0637H16.3324V30.5206H15.4433V31.0637ZM16.3467 31.0924H15.4291C15.4212 31.0924 15.4148 31.086 15.4148 31.078V30.5062C15.4148 30.4983 15.4212 30.4919 15.4291 30.4919H16.3467C16.3545 30.4919 16.3609 30.4983 16.3609 30.5062V31.078C16.3609 31.086 16.3545 31.0924 16.3467 31.0924Z" fill="white"/>
<path fill-rule="evenodd" clip-rule="evenodd" d="M15.4298 30.3279H16.335V29.7894H15.4298V30.3279Z" fill="#EFF9FF"/>
<path fill-rule="evenodd" clip-rule="evenodd" d="M15.4433 30.3137H16.32V29.8038H15.4433V30.3137ZM16.3342 30.3424H15.4291C15.4212 30.3424 15.4148 30.3359 15.4148 30.328V29.7894C15.4148 29.7815 15.4212 29.7751 15.4291 29.7751H16.3342C16.3421 29.7751 16.3485 29.7815 16.3485 29.7894V30.328C16.3485 30.3359 16.3421 30.3424 16.3342 30.3424Z" fill="#F7F6FB"/>
<path fill-rule="evenodd" clip-rule="evenodd" d="M17.9756 31.4216H16.8997V30.4816L17.3886 30.1261L17.9601 30.4676L17.9756 31.4216Z" fill="#CEE7F4"/>
<path fill-rule="evenodd" clip-rule="evenodd" d="M17.5392 31.2995H17.8944V30.8264H17.5392V31.2995Z" fill="white"/>
<path fill-rule="evenodd" clip-rule="evenodd" d="M17.576 31.2996H17.8641V30.8549H17.576V31.2996Z" fill="#F7F6FB"/>
<path fill-rule="evenodd" clip-rule="evenodd" d="M17.062 31.3084H17.3925V30.5095H17.062V31.3084Z" fill="#EFF9FF"/>
<path fill-rule="evenodd" clip-rule="evenodd" d="M17.0718 31.2977H17.3801V30.5203H17.0718V31.2977ZM17.3908 31.3192H17.0611C17.0552 31.3192 17.0504 31.3144 17.0504 31.3085V30.5095C17.0504 30.5036 17.0552 30.4988 17.0611 30.4988H17.3908C17.3967 30.4988 17.4015 30.5036 17.4015 30.5095V31.3085C17.4015 31.3144 17.3967 31.3192 17.3908 31.3192Z" fill="white"/>
<path fill-rule="evenodd" clip-rule="evenodd" d="M17.8637 31.2966H17.8958V31.4223H17.8104V31.306L17.8637 31.2966Z" fill="#B1AADC"/>
<path fill-rule="evenodd" clip-rule="evenodd" d="M17.5258 31.3385H17.8634V31.2966H17.5258V31.3385Z" fill="#E3E1F2"/>
<path fill-rule="evenodd" clip-rule="evenodd" d="M17.499 31.3804H17.8366V31.3386H17.499V31.3804Z" fill="#CDC8E8"/>
<path fill-rule="evenodd" clip-rule="evenodd" d="M17.4722 31.4224H17.8098V31.3805H17.4722V31.4224Z" fill="#E3E1F2"/>
<path d="M17.302 29.2609C17.3692 29.2609 17.4259 29.306 17.4435 29.3676H17.1605C17.1781 29.306 17.2348 29.2609 17.302 29.2609Z" fill="#FADCDB"/>
<path d="M16.6134 29.2104C16.7122 29.2104 16.7956 29.2769 16.8214 29.3676H16.4055C16.4313 29.2769 16.5146 29.2104 16.6134 29.2104Z" fill="#FADCDB"/>
<path d="M17.2585 29.3676C17.2266 29.257 17.1003 29.1744 16.9492 29.1744C16.7981 29.1744 16.6717 29.257 16.6398 29.3676H17.2585H17.2585Z" fill="#FADCDB"/>
<path d="M15.3324 31.2536C15.3487 31.2639 15.3597 31.2765 15.3645 31.2826C15.3648 31.2822 15.3651 31.2818 15.3654 31.2813C15.3736 31.2701 15.3831 31.2576 15.394 31.2443C15.3872 31.2409 15.3714 31.232 15.358 31.2178C15.3403 31.1992 15.3335 31.1785 15.3335 31.1785C15.3335 31.1785 15.3553 31.188 15.373 31.2067C15.3859 31.2204 15.393 31.2352 15.3959 31.242C15.405 31.2311 15.415 31.2197 15.4258 31.2082C15.4201 31.2032 15.4076 31.1911 15.3989 31.1746C15.3872 31.1526 15.3866 31.131 15.3866 31.131C15.3866 31.131 15.4049 31.1452 15.4166 31.1672C15.4247 31.1826 15.4275 31.1977 15.4284 31.2055C15.4393 31.194 15.4511 31.1824 15.4638 31.171C15.459 31.1653 15.4487 31.1516 15.4429 31.1341C15.4352 31.1107 15.4383 31.0894 15.4383 31.0894C15.4383 31.0894 15.4539 31.1058 15.4617 31.1292C15.467 31.1453 15.4672 31.1604 15.4668 31.1683C15.4754 31.1606 15.4843 31.153 15.4937 31.1457C15.4917 31.1387 15.488 31.1227 15.4901 31.1046C15.4929 31.0804 15.5048 31.0616 15.5048 31.0616C15.5048 31.0616 15.5123 31.0821 15.5095 31.1063C15.5079 31.1211 15.5028 31.1337 15.499 31.1414C15.5057 31.1363 15.5124 31.1313 15.5194 31.1264C15.5246 31.1194 15.5338 31.1086 15.5467 31.0993C15.568 31.0839 15.5914 31.0782 15.5914 31.0782C15.5914 31.0782 15.5803 31.0974 15.5591 31.1127C15.5463 31.122 15.5327 31.1277 15.5239 31.1309C15.5167 31.1359 15.5097 31.1411 15.5028 31.1464C15.5117 31.1459 15.5287 31.1459 15.5468 31.1503C15.5733 31.1568 15.5921 31.1704 15.5921 31.1704C15.5921 31.1704 15.5681 31.1735 15.5416 31.167C15.5215 31.1621 15.5059 31.1531 15.4995 31.149C15.4901 31.1564 15.4811 31.164 15.4724 31.1717C15.4805 31.1733 15.498 31.1775 15.5151 31.1871C15.5383 31.2001 15.5519 31.2179 15.5519 31.2179C15.5519 31.2179 15.5279 31.2147 15.5047 31.2018C15.487 31.1919 15.475 31.1792 15.4702 31.1737C15.4571 31.1854 15.445 31.1973 15.4338 31.209C15.4421 31.21 15.4598 31.2129 15.4776 31.221C15.502 31.2321 15.5173 31.2488 15.5173 31.2488C15.5173 31.2488 15.4931 31.2475 15.4687 31.2364C15.4503 31.228 15.4371 31.2165 15.4317 31.2113C15.4207 31.2229 15.4106 31.2344 15.4014 31.2454C15.4098 31.2462 15.4275 31.2485 15.4454 31.256C15.4702 31.2663 15.4862 31.2825 15.4862 31.2825C15.4862 31.2825 15.4619 31.282 15.4371 31.2717C15.4186 31.264 15.4051 31.2531 15.3993 31.248C15.3886 31.261 15.3791 31.2733 15.3711 31.2845C15.3707 31.285 15.3703 31.2856 15.3699 31.2861C15.3753 31.287 15.3958 31.2909 15.4157 31.3021C15.4389 31.3151 15.4525 31.3329 15.4525 31.3329C15.4525 31.3329 15.4285 31.3297 15.4053 31.3167C15.3854 31.3056 15.3725 31.2909 15.3693 31.2869C15.3365 31.3326 15.3196 31.3671 15.3194 31.3675L15.3132 31.3651C15.3134 31.3648 15.3302 31.3306 15.3625 31.2853C15.3546 31.2833 15.3374 31.2781 15.321 31.2678C15.2987 31.2536 15.2863 31.2351 15.2863 31.2351C15.2863 31.2351 15.31 31.2395 15.3324 31.2537L15.3324 31.2536Z" fill="#EF5E4E"/>
<path d="M15.0611 31.1763C15.0911 31.1844 15.1147 31.1991 15.1253 31.2064C15.1255 31.2056 15.1257 31.2047 15.1259 31.2038C15.131 31.1813 15.1374 31.156 15.1453 31.1289C15.1333 31.1268 15.1049 31.1207 15.0768 31.1048C15.0399 31.0839 15.0175 31.054 15.0175 31.054C15.0175 31.054 15.055 31.058 15.0919 31.0789C15.1191 31.0943 15.1384 31.1145 15.1467 31.1241C15.1533 31.1017 15.161 31.078 15.1699 31.0536C15.1586 31.0484 15.1331 31.0354 15.1104 31.0133C15.0801 30.9838 15.0662 30.9492 15.0662 30.9492C15.0662 30.9492 15.1015 30.9625 15.1318 30.992C15.1529 31.0127 15.1661 31.0357 15.1721 31.0478C15.1811 31.0234 15.1913 30.9985 15.2028 30.9733C15.1924 30.9665 15.1692 30.9499 15.1501 30.9245C15.1248 30.8908 15.1164 30.8546 15.1164 30.8546C15.1164 30.8546 15.1492 30.873 15.1745 30.9067C15.192 30.9299 15.2014 30.9544 15.2056 30.9673C15.2135 30.9504 15.222 30.9334 15.2311 30.9165C15.224 30.9063 15.209 30.8823 15.2011 30.8519C15.1906 30.8112 15.1968 30.7746 15.1968 30.7746C15.1968 30.7746 15.22 30.8038 15.2306 30.8445C15.237 30.8692 15.2372 30.8924 15.2364 30.9068C15.243 30.8951 15.2498 30.8834 15.257 30.8718C15.2604 30.8577 15.2673 30.8355 15.2805 30.8135C15.3023 30.7774 15.3329 30.7558 15.3329 30.7558C15.3329 30.7558 15.3284 30.7927 15.3066 30.8288C15.2935 30.8505 15.2772 30.867 15.2662 30.8767C15.2588 30.8887 15.2517 30.9008 15.2449 30.9129C15.2576 30.9075 15.2823 30.8984 15.3114 30.8961C15.3539 30.8927 15.3895 30.9048 15.3895 30.9048C15.3895 30.9048 15.3564 30.9225 15.3139 30.9259C15.2817 30.9285 15.2534 30.9221 15.2416 30.9189C15.2324 30.9359 15.2238 30.9529 15.2159 30.9699C15.2285 30.9682 15.2567 30.9658 15.2873 30.9723C15.329 30.9811 15.3596 31.0029 15.3596 31.0029C15.3596 31.0029 15.3226 31.0103 15.281 31.0015C15.2493 30.9949 15.2241 30.9807 15.2138 30.9743C15.2018 31.0001 15.1913 31.0257 15.1821 31.0507C15.1947 31.0479 15.2223 31.0432 15.2531 31.047C15.2954 31.0521 15.3278 31.0711 15.3278 31.0711C15.3278 31.0711 15.2916 31.0818 15.2494 31.0766C15.2175 31.0728 15.1913 31.061 15.1803 31.0555C15.1713 31.0801 15.1635 31.104 15.1568 31.1267C15.1695 31.1234 15.1966 31.1179 15.2273 31.1205C15.2697 31.1242 15.3028 31.142 15.3028 31.142C15.3028 31.142 15.2671 31.154 15.2246 31.1503C15.1931 31.1476 15.1667 31.1371 15.1553 31.1318C15.1475 31.1586 15.1412 31.1836 15.1361 31.2058C15.1359 31.2069 15.1356 31.208 15.1354 31.2091C15.1438 31.2077 15.1761 31.2033 15.2118 31.2108C15.2535 31.2196 15.2841 31.2414 15.2841 31.2414C15.2841 31.2414 15.2471 31.2489 15.2055 31.2401C15.1697 31.2325 15.1421 31.2154 15.135 31.2107C15.1148 31.302 15.1109 31.3668 15.1108 31.3675L15.1004 31.3669C15.1005 31.3662 15.1043 31.3021 15.1242 31.2116C15.1114 31.2126 15.0832 31.2133 15.0531 31.2051C15.012 31.194 14.9828 31.1705 14.9828 31.1705C14.9828 31.1705 15.0201 31.1651 15.0611 31.1763L15.0611 31.1763Z" fill="#EF5E4E"/>
<path d="M15.4427 31.3057C15.4817 31.3057 15.5146 31.3319 15.5248 31.3676H15.3606C15.3708 31.3319 15.4037 31.3057 15.4427 31.3057Z" fill="#FADCDB"/>
<path d="M15.044 31.2765C15.1014 31.2765 15.1499 31.315 15.1649 31.3677H14.923C14.9381 31.315 14.9865 31.2765 15.044 31.2765Z" fill="#FADCDB"/>
<path d="M15.4177 31.3677C15.3992 31.3035 15.3259 31.2556 15.2382 31.2556C15.1506 31.2556 15.0773 31.3035 15.0588 31.3677H15.4177Z" fill="#FADCDB"/>
<path d="M18.1435 30.7472C18.1617 30.7408 18.1816 30.7504 18.188 30.7686C18.1908 30.7768 18.1905 30.7853 18.1876 30.7928C18.2177 30.8209 18.2455 30.8509 18.2711 30.8815C18.2654 30.849 18.2593 30.8002 18.2628 30.7519C18.2541 30.7482 18.2467 30.741 18.2434 30.7312C18.237 30.713 18.2465 30.693 18.2647 30.6866C18.2829 30.6802 18.3028 30.6898 18.3092 30.708C18.3156 30.7262 18.306 30.7462 18.2879 30.7526C18.2857 30.7534 18.2836 30.7539 18.2815 30.7542C18.2765 30.8266 18.2942 30.902 18.297 30.9136C18.3514 30.9835 18.3942 31.054 18.4247 31.1101C18.4795 31.211 18.5075 31.2887 18.5078 31.2895L18.49 31.2959C18.4898 31.2951 18.4622 31.2188 18.4081 31.1192C18.3919 31.0892 18.372 31.0551 18.3488 31.0192C18.3356 31.0162 18.2856 31.0069 18.2186 31.0169C18.2183 31.0311 18.2095 31.0443 18.1953 31.0493C18.1771 31.0557 18.1572 31.0461 18.1508 31.0279C18.1444 31.0096 18.1539 30.9897 18.1721 30.9833C18.1881 30.9776 18.2055 30.9844 18.2138 30.9986C18.2668 30.9903 18.3097 30.9937 18.3344 30.9974C18.2917 30.9341 18.2388 30.8669 18.1762 30.808C18.1733 30.8102 18.1701 30.8119 18.1665 30.8132C18.1483 30.8196 18.1284 30.81 18.122 30.7918C18.1156 30.7736 18.1252 30.7536 18.1434 30.7472H18.1435Z" fill="#F29892"/>
<path d="M18.57 30.9948C18.5587 30.9874 18.515 30.9609 18.4487 30.9467C18.4434 30.9599 18.4304 30.9691 18.4154 30.9688C18.3961 30.9684 18.3807 30.9523 18.3812 30.933C18.3816 30.9137 18.3976 30.8984 18.4169 30.8988C18.4339 30.8992 18.4478 30.9117 18.4506 30.9278C18.5033 30.9389 18.5423 30.9571 18.5642 30.9693C18.5464 30.895 18.5204 30.8134 18.4825 30.7362C18.479 30.7373 18.4754 30.7378 18.4716 30.7377C18.4522 30.7373 18.4369 30.7213 18.4373 30.702C18.4377 30.6826 18.4538 30.6673 18.4731 30.6677C18.4924 30.6681 18.5077 30.6842 18.5073 30.7035C18.5071 30.7121 18.5038 30.7199 18.4985 30.7259C18.5168 30.7629 18.5323 30.8008 18.5456 30.8385C18.5516 30.806 18.5631 30.7582 18.5835 30.7142C18.5765 30.7077 18.5722 30.6983 18.5725 30.688C18.5729 30.6686 18.5889 30.6533 18.6082 30.6538C18.6275 30.6542 18.6429 30.6702 18.6424 30.6895C18.642 30.7088 18.626 30.7242 18.6067 30.7237C18.6045 30.7237 18.6023 30.7234 18.6002 30.723C18.57 30.789 18.56 30.8658 18.5586 30.8777C18.585 30.9622 18.6003 31.0434 18.6092 31.1067C18.625 31.2205 18.624 31.3031 18.624 31.3039L18.6051 31.3036C18.6051 31.3028 18.6062 31.2216 18.5905 31.1093C18.5858 31.0755 18.5792 31.0366 18.57 30.9948Z" fill="#F29892"/>
<path d="M14.6193 31.2121C14.7162 31.2121 14.7979 31.2772 14.8232 31.3662H14.4154C14.4407 31.2772 14.5224 31.2121 14.6193 31.2121H14.6193Z" fill="#FADCDB"/>
<path d="M14.8577 31.2598C14.9248 31.2598 14.9813 31.3048 14.9988 31.3662H14.7167C14.7343 31.3048 14.7908 31.2598 14.8578 31.2598H14.8577Z" fill="#FADCDB"/>
<path d="M15.053 30.572C15.053 30.9208 14.9327 31.0335 14.7843 31.0335C14.6885 31.0335 14.6044 30.9866 14.5568 30.8594C14.5306 30.7897 14.5155 30.6957 14.5155 30.572C14.5155 30.2231 14.6358 29.9404 14.7843 29.9404C14.8012 29.9404 14.8178 29.944 14.8338 29.9511C14.9586 30.0057 15.053 30.2629 15.053 30.572Z" fill="#79B9D3"/>
<path d="M14.921 30.4168C14.921 30.7656 14.8006 30.8783 14.6522 30.8783C14.6186 30.8783 14.5864 30.8725 14.5568 30.8594C14.5306 30.7897 14.5155 30.6957 14.5155 30.572C14.5155 30.2231 14.6358 29.9404 14.7843 29.9404C14.8012 29.9404 14.8178 29.944 14.8338 29.9511C14.8874 30.0666 14.921 30.2324 14.921 30.4167V30.4168Z" fill="#A5D2E7"/>
<path d="M14.785 31.2806V30.6539" stroke="#F29892" stroke-width="0.0427959" stroke-miterlimit="10"/>
<path d="M14.785 30.9518C14.785 30.9518 14.8193 30.8587 14.9272 30.8047" stroke="#F29892" stroke-width="0.0342489" stroke-miterlimit="10"/>
<path d="M14.7852 30.8151C14.7852 30.8151 14.7411 30.6981 14.6528 30.6539" stroke="#F29892" stroke-width="0.0342489" stroke-miterlimit="10"/>
<path d="M18.5267 31.2654C18.6236 31.2654 18.7053 31.3306 18.7306 31.4195H18.3228C18.3482 31.3306 18.4298 31.2654 18.5267 31.2654H18.5267Z" fill="#F29892"/>
<path d="M18.7669 31.3131C18.8339 31.3131 18.8904 31.358 18.9079 31.4194H18.6259C18.6434 31.358 18.6999 31.3131 18.7669 31.3131H18.7669Z" fill="#F29892"/>
<path d="M6.95528 14.097C7.94953 13.709 11.1106 16.6572 12.2577 17.074C13.8285 17.6449 16.6746 17.9128 16.3875 19.1284C16.0768 20.4442 12.416 19.9174 10.8601 18.9557C9.30453 17.994 5.37799 14.7125 6.95528 14.097Z" fill="#F29892"/>
<path d="M10.4372 36.3297C10.2544 36.2513 10.2303 36.0888 10.1516 35.9352C10.1465 35.925 10.1145 35.7036 10.1145 35.686C10.1132 35.6094 9.89138 35.4084 9.78952 35.5681C9.58951 35.8832 9.33209 35.4038 9.34506 35.5346C9.38302 35.9241 9.24088 36.5446 9.3858 36.5864C9.69507 36.675 11.1359 36.7697 11.1618 36.618C11.1776 36.527 10.7535 36.4657 10.4372 36.3297Z" fill="#073C4B"/>
<path d="M5.07171 36.3297C4.88883 36.2513 4.86475 36.0888 4.78604 35.9352C4.78095 35.925 4.749 35.7036 4.749 35.686C4.74761 35.6094 4.52584 35.4084 4.42399 35.5681C4.22397 35.8832 3.96655 35.4038 3.97952 35.5346C4.01748 35.9241 3.87534 36.5446 4.02026 36.5864C4.32954 36.675 5.77035 36.7697 5.79628 36.618C5.81202 36.527 5.38793 36.4657 5.07171 36.3297Z" fill="#073C4B"/>
<path d="M9.21495 20.0367L10.7015 35.6544C10.7015 35.6544 10.2412 35.8191 9.67202 35.8191C8.85605 35.8191 8.97738 35.7444 8.97738 35.7444C8.97738 35.7444 5.76261 20.7821 6.1229 20.0924C6.48272 19.4032 9.21541 20.0367 9.21541 20.0367H9.21495Z" fill="#073C4B"/>
<path d="M5.02547 20.2413C6.62359 19.5093 7.64934 20.5142 7.64934 20.5142L5.19774 35.7443C5.19774 35.7443 5.06622 35.8882 4.54107 35.8882C3.84968 35.8882 3.80059 35.7485 3.80059 35.7485C3.80059 35.7485 3.42734 20.9732 5.02547 20.2413Z" fill="#073C4B"/>
<path d="M9.21412 20.0366C9.21412 20.0366 6.82457 19.4829 6.22024 19.9749C5.87338 19.968 5.47189 20.0371 5.02547 20.2413C3.42734 20.9733 3.80059 35.7485 3.80059 35.7485C3.80059 35.7485 3.84968 35.8882 4.54107 35.8882C5.06668 35.8882 5.19774 35.7444 5.19774 35.7444L6.86903 25.3614C7.72297 29.9114 8.97609 35.7444 8.97609 35.7444C8.97609 35.7444 8.85522 35.8191 9.67072 35.8191C10.2394 35.8191 10.7002 35.6543 10.7002 35.6543L9.21365 20.0366H9.21412Z" fill="#155D72"/>
<path d="M9.43705 22.3811L4.62323 23.5259C4.62323 23.5259 6.7113 23.5858 8.11539 23.415C8.80308 23.3314 9.24441 23.2632 9.5167 23.2154L9.43752 22.3811H9.43705Z" fill="#F29892"/>
<path d="M9.96326 22.5464C9.96326 22.5464 9.61733 20.3384 8.80738 17.5433C8.35124 15.9689 8.17712 14.188 6.97031 13.6408C5.79915 13.1098 4.06441 14.2233 4.06441 16.208C4.06441 18.1927 3.95374 23.6158 3.95374 23.6158C3.95374 23.6158 6.20296 23.3053 6.95688 23.2593C9.06023 23.1312 9.96326 22.5464 9.96326 22.5464Z" fill="#F6BFBB"/>
<path d="M5.92352 13.0707C5.92352 13.0707 6.38604 13.2132 6.49809 13.4285C6.61013 13.6439 6.18742 13.7971 6.06519 13.6852C5.94296 13.5738 5.55915 13.1329 5.92352 13.0707Z" fill="#F6BFBB"/>
<path d="M5.41317 11.8963C5.55854 11.8587 5.52799 11.5783 5.8831 11.5217C6.23821 11.4651 6.02246 11.8809 6.16552 11.939C6.20626 11.9557 6.24515 11.8582 6.32988 12.0044C6.41415 12.1506 6.13496 12.76 5.54651 13.0005C5.41317 13.0552 5.20204 13.0562 5.14047 12.896C5.07935 12.7359 5.16639 12.6793 5.16639 12.6793C5.16639 12.6793 4.94462 12.385 5.06037 12.1534C5.17658 11.9213 5.28862 11.9278 5.41317 11.8958V11.8963Z" fill="#352965"/>
<path d="M5.46546 12.705L5.46222 13.643C5.50065 13.7618 6.24698 13.8769 6.38357 13.6643C6.42338 13.6021 6.37014 13.4935 6.27754 13.3877L5.74742 12.8201L5.465 12.7054L5.46546 12.705Z" fill="#9388CD"/>
<path d="M5.96195 13.0487L6.17585 13.2776C6.09344 13.2892 5.9763 13.2966 5.8675 13.2692C5.67351 13.2205 5.58276 13.0214 5.58276 13.0214C5.64017 13.0487 5.81518 13.0515 5.96195 13.0487Z" fill="#5745A0"/>
<path d="M5.54173 12.3702L5.50238 12.7712C5.50608 12.9434 5.59359 13.0873 5.74915 13.1504C5.87601 13.2019 6.04685 13.1797 6.2052 13.1161C6.33715 13.0632 6.37233 12.9132 6.32511 12.7341C6.26353 12.5015 6.14084 12.3047 6.06954 12.2036C5.90657 11.972 5.58572 12.0323 5.54173 12.3697V12.3702Z" fill="#9388CD"/>
<path d="M6.19352 12.5283C6.19352 12.5283 6.23611 12.6276 6.17083 12.6903C6.10555 12.753 5.9435 12.7437 5.85229 12.6393C5.85229 12.6393 6.0023 12.617 6.19352 12.5283Z" fill="white"/>
<path d="M5.54002 12.5862C5.51635 12.5644 5.49639 12.5389 5.47829 12.5124C5.44348 12.4618 5.37943 12.3955 5.33023 12.4841C5.25875 12.6132 5.42723 12.8591 5.56601 12.7928C5.66905 12.7436 5.59943 12.6415 5.54002 12.5862Z" fill="#9388CD"/>
<path d="M6.17307 13.9892C6.17307 13.9892 6.15131 13.3333 6.23094 13.2711C6.31057 13.2085 6.68791 13.4795 6.55827 13.6907C6.4291 13.9019 6.42956 14.0783 6.17307 13.9892Z" fill="#F6BFBB"/>
<path d="M6.12599 14.1136C6.12599 14.1136 5.22131 14.5421 4.68702 14.5086C4.5435 14.4994 4.68795 14.219 4.68795 14.219L6.12599 14.1136Z" fill="#F29892"/>
<path d="M5.46574 13.4318L5.46389 13.1746C5.46389 13.1746 4.91386 13.3784 4.75551 13.4313C4.40781 13.5473 4.41846 13.7557 4.39762 14.2459C4.38512 14.535 5.52546 14.2691 5.94493 14.1878C6.20004 14.1382 6.60515 13.9052 6.34495 13.7813C6.08475 13.6578 5.46574 13.4313 5.46574 13.4313V13.4318Z" fill="#F6BFBB"/>
<path d="M4.77522 13.5827C4.73077 13.5302 5.23451 13.2759 5.46461 13.1974L5.46646 13.4318C5.46646 13.4318 4.82754 13.644 4.77522 13.5827Z" fill="#F29892"/>
<path d="M17.3081 16.7766L17.7214 17.2584L19.8915 15.3882L19.4782 14.9064L17.3081 16.7766Z" fill="#333333"/>
<path d="M19.5341 15.7679C17.7012 13.6834 17.9022 10.4924 19.9819 8.65526C22.0617 6.81817 25.2454 7.01961 27.0783 9.1041C28.9112 11.1886 28.7102 14.3796 26.6305 16.2167C24.5508 18.0538 21.367 17.8524 19.5341 15.7679ZM26.6115 9.51626C25.0055 7.68937 22.2159 7.513 20.3931 9.12266C18.5704 10.7323 18.3945 13.5284 20.0004 15.3552C21.6064 17.1821 24.3961 17.3585 26.2188 15.7488C28.0415 14.1392 28.2175 11.3431 26.6111 9.51626H26.6115Z" fill="#333333"/>
<g opacity="0.5">
<path opacity="0.5" d="M26.7523 9.48092C25.1463 7.65403 22.3034 7.33748 20.4807 8.94715C18.658 10.5568 18.181 13.2461 19.9648 15.1514C21.6273 16.9268 24.5369 17.3236 26.3596 15.7135C28.1824 14.1038 28.3583 11.3078 26.7519 9.48092H26.7523Z" fill="#8DE4E6"/>
</g>
<path d="M19.2629 15.2648C17.43 13.1803 17.631 9.98931 19.7107 8.15221C21.7905 6.31511 24.9742 6.51655 26.8071 8.60105C28.64 10.6855 28.4391 13.8766 26.3593 15.7137C24.2796 17.5508 21.0958 17.3493 19.2629 15.2648ZM26.3403 9.01321C24.7343 7.18632 21.9447 7.00994 20.122 8.61961C18.2992 10.2293 18.1233 13.0253 19.7293 14.8522C21.3353 16.6791 24.1249 16.8555 25.9476 15.2458C27.7704 13.6361 27.9463 10.8401 26.3399 9.01321H26.3403Z" fill="#707070"/>
<path d="M18.2734 16.4158C18.6726 16.8967 18.6068 17.6175 18.1275 18.0176L14.7025 20.8758C14.2228 21.2759 13.504 21.21 13.1044 20.7296C12.7052 20.2488 12.771 19.5279 13.2503 19.1278L16.6753 16.2696C17.1551 15.8695 17.8738 15.9354 18.2734 16.4158Z" fill="#919191"/>
<path d="M22.7704 9.08461C22.3551 9.07347 21.969 9.16166 21.6042 9.36449C21.2592 9.55618 20.9685 9.82492 20.6967 10.109C20.4833 10.3322 20.855 10.6335 21.0671 10.4125C21.5018 9.95813 22.0347 9.54087 22.6959 9.5585C22.8251 9.56175 22.9473 9.49863 22.969 9.35892C22.9871 9.24381 22.9001 9.08833 22.77 9.08508L22.7704 9.08461Z" fill="white"/>
<path d="M23.7997 8.9375C23.7682 8.94121 23.7391 8.9505 23.7122 8.96535C23.6729 8.97092 23.6344 8.98531 23.6029 9.00851C23.5766 9.02615 23.5562 9.04936 23.5423 9.07721C23.5233 9.1032 23.5117 9.13244 23.5076 9.16539C23.5006 9.22713 23.5108 9.2935 23.5506 9.34363C23.59 9.39329 23.6428 9.42996 23.7067 9.43924C23.7678 9.44806 23.8159 9.44202 23.8733 9.42346C23.9071 9.41278 23.9414 9.39375 23.9678 9.36962C23.9942 9.35198 24.0145 9.32877 24.0284 9.30092C24.0474 9.27493 24.059 9.24569 24.0632 9.21274C24.0696 9.18025 24.0673 9.14868 24.0571 9.11852C24.052 9.08788 24.04 9.05957 24.0201 9.03451C23.9817 8.98577 23.9275 8.94585 23.8641 8.93889C23.8428 8.93843 23.8215 8.93796 23.8002 8.9375H23.7997Z" fill="white"/>
<path d="M4.75222 14.6006C5.76778 14.2719 8.07119 16.9426 9.19141 17.4272C10.0315 17.7906 11.8959 18.2673 13.3513 18.6233C14.554 18.9176 14.8388 18.9213 14.5072 19.8816C14.0659 21.1594 9.18122 20.2752 7.68497 19.2225C6.18873 18.1699 3.1416 15.1213 4.75222 14.6006Z" fill="#F6BFBB"/>
<path d="M14.4963 19.2559C14.4963 19.2559 15.0496 19.2114 15.226 19.242C15.4024 19.2726 15.5821 19.0963 15.5881 19.2183C15.5941 19.3404 15.4121 19.4629 15.307 19.4583C15.2019 19.4536 14.9802 19.5892 14.8177 19.5678C14.6556 19.5469 14.3079 19.307 14.4963 19.2559Z" fill="#9388CD"/>
<path d="M14.363 19.8189C14.363 19.8189 14.6899 20.1791 15.1108 20.1364C15.4844 20.0988 15.7992 20.0839 15.7733 19.8426C15.7515 19.6411 15.1839 19.6342 15.0283 19.5214C14.8728 19.4081 14.457 19.1231 14.282 19.2875C14.1065 19.4522 14.1811 19.7033 14.363 19.8194V19.8189Z" fill="#9388CD"/>
<path d="M9.80198 17.8249C9.79597 17.8249 9.78995 17.8239 9.78393 17.8221C9.77282 17.8188 9.51493 17.7385 9.34687 17.6114C9.18853 17.4916 8.65655 17.1254 8.65146 17.1217C8.62322 17.1022 8.61581 17.0632 8.63526 17.0349C8.6547 17.0066 8.69359 16.9991 8.72183 17.0186C8.74359 17.034 9.26121 17.3904 9.42187 17.5116C9.57234 17.6257 9.81773 17.7019 9.82004 17.7023C9.85291 17.7125 9.87143 17.7473 9.86125 17.7803C9.85291 17.8072 9.82837 17.8244 9.80198 17.8244V17.8249Z" fill="#F29892"/>
<path d="M8.45617 19.6977C8.4483 19.6977 8.43996 19.6963 8.43255 19.6931C7.53462 19.3194 7.07014 18.8755 6.42737 18.2613C6.27918 18.1198 6.1259 17.9735 5.95317 17.8138C5.01402 16.9457 4.38931 15.7809 4.38283 15.7693C4.36662 15.7391 4.3782 15.701 4.4083 15.6848C4.4384 15.6685 4.47637 15.6801 4.49258 15.7103C4.4986 15.7219 5.11358 16.8686 6.03699 17.7219C6.21064 17.8821 6.36393 18.0292 6.51258 18.1708C7.16924 18.7985 7.60316 19.2131 8.47979 19.5775C8.51128 19.5905 8.52656 19.6272 8.51359 19.6592C8.5034 19.6833 8.48071 19.6977 8.45617 19.6977Z" fill="#F29892"/>
<path fill-rule="evenodd" clip-rule="evenodd" d="M34.3017 4.44506C34.3723 6.12094 33.1125 7.53881 31.488 7.612C29.8634 7.68511 28.4891 6.38575 28.4185 4.70979C28.3479 3.03386 29.6076 1.61595 31.2322 1.54285C32.8568 1.46969 34.231 2.7691 34.3017 4.44506Z" fill="#A5D2E7"/>
<path fill-rule="evenodd" clip-rule="evenodd" d="M30.1398 2.32245C29.9107 2.45503 29.701 2.62609 29.5182 2.8317C29.0663 3.34044 28.8335 4.00029 28.8625 4.6898C28.8917 5.37942 29.1791 6.01598 29.6721 6.48212C30.1641 6.94731 30.8024 7.187 31.469 7.15699C32.1357 7.12711 32.751 6.83088 33.2025 6.32307C33.6542 5.81443 33.8871 5.15453 33.858 4.46494C33.7981 3.0426 32.6289 1.9358 31.2516 1.99778C30.855 2.01557 30.4764 2.12768 30.1398 2.32245ZM32.6743 6.9954C32.3119 7.20511 31.9043 7.32586 31.477 7.34502C30.7591 7.37731 30.072 7.11942 29.5427 6.61884C29.0142 6.11911 28.7058 5.43694 28.6748 4.69826C28.6435 3.9596 28.8933 3.25248 29.3778 2.707C29.8632 2.16069 30.5256 1.84206 31.2437 1.80975C32.7245 1.7431 33.9817 2.93047 34.0459 4.45651C34.077 5.19527 33.8272 5.90239 33.3428 6.44782C33.1462 6.66897 32.9208 6.85278 32.6743 6.9954Z" fill="#2E7992"/>
<path fill-rule="evenodd" clip-rule="evenodd" d="M32.3766 3.63775C32.3534 3.30324 32.129 2.96051 31.8385 2.79405C31.6 2.65727 31.3242 2.68822 31.0683 2.75806C30.7984 2.83171 30.5108 2.95635 30.309 3.15688C30.065 3.39916 30.1025 3.73231 30.2497 4.01973C30.4052 4.32331 30.6329 4.49492 30.9559 4.58775C31.3188 4.69205 31.711 4.71693 32.0211 4.95624C32.549 5.36382 32.1794 6.05294 31.557 6.03938C31.0376 6.02809 30.455 5.71071 30.5098 5.115C30.5187 5.0178 30.188 5.09449 30.1798 5.18444C30.1016 6.03445 31.1103 6.3086 31.7778 6.15948C32.0874 6.09033 32.4077 5.92141 32.5491 5.62175C32.706 5.28905 32.5519 4.96597 32.2637 4.77518C31.9731 4.58276 31.6281 4.5408 31.2981 4.45594C30.8719 4.34626 30.5369 4.05836 30.4707 3.59586C30.4072 3.1521 30.8966 2.8229 31.312 2.85819C31.7142 2.89227 32.0192 3.37382 32.0448 3.74299C32.0498 3.8137 32.3839 3.74283 32.3766 3.63775Z" fill="#2E7992"/>
<path fill-rule="evenodd" clip-rule="evenodd" d="M30.7344 2.46873C30.7966 3.94694 30.859 5.42514 30.9213 6.90348C30.9247 6.9866 31.258 6.91491 31.2531 6.79815C31.1907 5.31995 31.1285 3.84165 31.0661 2.36345C31.0627 2.28032 30.7295 2.35201 30.7344 2.46873Z" fill="#2E7992"/>
<path fill-rule="evenodd" clip-rule="evenodd" d="M31.2588 2.3662C31.3211 3.84432 31.3835 5.32265 31.4458 6.80077C31.4492 6.88398 31.7825 6.81229 31.7776 6.69566C31.7152 5.21732 31.6529 3.7392 31.5907 2.2609C31.5872 2.17774 31.2539 2.24935 31.2588 2.3662Z" fill="#2E7992"/>
</svg>
