<svg width="112" height="112" viewBox="0 0 112 112" fill="none" xmlns="http://www.w3.org/2000/svg">
<path fill-rule="evenodd" clip-rule="evenodd" d="M41.6559 85.8654C41.6559 85.8654 34.5876 88.584 31.0535 89.9433C26.6489 91.6373 17.8398 95.0255 17.8398 95.0255C15.9912 95.7365 13.9163 94.8143 13.2053 92.9657C13.0473 92.5548 12.9662 92.1185 12.9662 91.6783V37.6604C12.9662 36.132 13.935 34.7715 15.3794 34.2715L41.6559 25.1758L70.3456 35.1068V35.0379L94.4781 28.2506C96.3847 27.7143 98.365 28.8253 98.9013 30.7319C98.9902 31.0479 99.0352 31.3746 99.0352 31.7029V85.5022C99.0352 87.0802 98.0037 88.4728 96.4942 88.9327L70.3456 96.8999L41.6559 85.8654Z" fill="#2E7992"/>
<path fill-rule="evenodd" clip-rule="evenodd" d="M26.8302 29.8323C26.776 29.8526 26.728 29.8707 26.6863 29.8863C22.8886 31.3126 15.2931 34.1651 15.2931 34.1651C13.8934 34.69 12.9661 36.028 12.9661 37.5229V92.0717C12.9661 93.877 14.4295 95.3404 16.2348 95.3404C16.5467 95.3404 16.8565 95.2958 17.1547 95.2083L17.4488 95.1067L24.6212 88.8308L54.5123 61.7549C54.5123 61.7549 26.9564 29.7849 26.8302 29.8323Z" fill="#CEE7F4"/>
<path fill-rule="evenodd" clip-rule="evenodd" d="M99.0346 28.7603L31.0266 89.9423L41.6553 85.8707L70.345 96.8982L96.5181 88.7191C98.0153 88.2513 99.0346 86.8647 99.0346 85.2962V28.7603Z" fill="#155D72"/>
<path fill-rule="evenodd" clip-rule="evenodd" d="M98.9822 28.387L99.022 28.5724L99.0353 28.7616L31 90.5L16.5 95.5L54.3996 61.7317L26.696 29.8619L32.5075 28.3478L58.3928 58.1257L90 29.5L94 28L97.3129 27.4669C98.0279 27.26 98.7753 27.6719 98.9822 28.387Z" fill="white"/>
<g style="mix-blend-mode:multiply">
<path fill-rule="evenodd" clip-rule="evenodd" d="M41.6541 25.1758L70.3438 35.1068V96.8999L41.6541 85.8654V25.1758Z" fill="#FDF5F5"/>
</g>
<path fill-rule="evenodd" clip-rule="evenodd" d="M46.221 9.41661C53.8285 16.6388 53.8285 28.3482 46.221 35.5703L35.3463 45.8941C33.7447 47.4146 31.148 47.4146 29.5465 45.8941L18.6718 35.5703C11.0642 28.3482 11.0642 16.6388 18.6718 9.41661C26.2793 2.19446 38.6135 2.19446 46.221 9.41661Z" fill="white"/>
<path fill-rule="evenodd" clip-rule="evenodd" d="M43.0802 12.2836C48.9063 17.8146 48.9063 26.782 43.0802 32.313L34.752 40.2193C33.5255 41.3837 31.5369 41.3837 30.3103 40.2193L21.9821 32.313C16.156 26.782 16.156 17.8146 21.9821 12.2836C27.8082 6.75264 37.2541 6.75264 43.0802 12.2836Z" fill="#79B9D3"/>
<path fill-rule="evenodd" clip-rule="evenodd" d="M43.0679 12.2843C46.9663 15.9853 48.2562 21.2249 46.9375 25.944C38.4917 24.9363 31.9451 17.749 31.9451 9.03267C31.9451 8.73489 31.9527 8.4389 31.9678 8.14487C35.9673 8.00623 40.0147 9.38576 43.0679 12.2843Z" fill="#79B9D3"/>
<path d="M33.0972 18.3464H32.3343V19.4078C30.4504 19.5338 29.1039 20.5421 29.1039 22.2071C29.1039 23.6598 30.0524 24.3895 31.8634 24.8007L32.3343 24.9002V27.2419C31.5914 27.1357 31.0939 26.7244 31.001 26.008H29.2299C29.2962 27.5735 30.4902 28.6083 32.3343 28.741V29.8223H33.0972V28.7476C34.9214 28.6349 36.2282 27.6067 36.2282 26.0213C36.2282 24.5885 35.273 23.8124 33.5416 23.421L33.0972 23.3149V20.8936C33.9993 20.9931 34.4769 21.4641 34.5831 22.1407H36.3608C36.3144 20.4824 34.9612 19.5073 33.0972 19.4011V18.3464ZM34.3708 26.1938C34.3708 26.7244 33.933 27.1556 33.0972 27.2551V25.0794C33.9927 25.3182 34.3708 25.6631 34.3708 26.1938ZM30.9546 22.0014C30.9546 21.3978 31.4123 20.9865 32.3343 20.8936V23.1424C31.3062 22.8837 30.9546 22.5852 30.9546 22.0014Z" fill="white"/>
<path fill-rule="evenodd" clip-rule="evenodd" d="M98.221 70.3829C105.828 77.6051 105.828 89.3145 98.221 96.5366L87.3463 106.86C85.7447 108.381 83.148 108.381 81.5465 106.86L70.6718 96.5366C63.0642 89.3145 63.0642 77.6051 70.6718 70.3829C78.2793 63.1608 90.6135 63.1608 98.221 70.3829Z" fill="white"/>
<path fill-rule="evenodd" clip-rule="evenodd" d="M95.0802 73.2498C100.906 78.7807 100.906 87.7482 95.0802 93.2792L86.752 101.185C85.5255 102.35 83.5369 102.35 82.3103 101.185L73.9821 93.2792C68.156 87.7482 68.156 78.7807 73.9821 73.2498C79.8082 67.7188 89.2541 67.7188 95.0802 73.2498Z" fill="#155D72"/>
<path fill-rule="evenodd" clip-rule="evenodd" d="M95.0679 73.2505C98.9663 76.9515 100.256 82.1911 98.9375 86.9102C90.4917 85.9025 83.9451 78.7152 83.9451 69.9989C83.9451 69.7011 83.9527 69.4051 83.9678 69.1111C87.9673 68.9724 92.0147 70.3519 95.0679 73.2505Z" fill="#155D72"/>
<path d="M93.9326 79.311H93.185V80.3725C91.3385 80.4985 90.0186 81.507 90.0186 83.1722C90.0186 84.6251 90.9484 85.3549 92.7233 85.7662L93.185 85.8658V88.2077C92.4568 88.1015 91.9691 87.6902 91.8781 86.9737H90.1422C90.2072 88.5394 91.3775 89.5744 93.185 89.7071V90.7885H93.9326V89.7137C95.7206 89.6009 97.0014 88.5726 97.0014 86.987C97.0014 85.5539 96.0652 84.7777 94.3683 84.3863L93.9326 84.2801V81.8586C94.8169 81.9581 95.285 82.4292 95.389 83.1059H97.1315C97.086 81.4473 95.7596 80.472 93.9326 80.3659V79.311ZM95.181 87.1595C95.181 87.6902 94.7519 88.1214 93.9326 88.221V86.0449C94.8104 86.2837 95.181 86.6287 95.181 87.1595ZM91.8326 82.9665C91.8326 82.3628 92.2812 81.9515 93.185 81.8586V84.1076C92.1772 83.8489 91.8326 83.5504 91.8326 82.9665Z" fill="white"/>
<path d="M84.9926 79.311H84.2449V80.3725C82.3984 80.4985 81.0786 81.507 81.0786 83.1722C81.0786 84.6251 82.0083 85.3549 83.7833 85.7662L84.2449 85.8658V88.2077C83.5167 88.1015 83.0291 87.6902 82.938 86.9737H81.2021C81.2671 88.5394 82.4374 89.5744 84.2449 89.7071V90.7885H84.9926V89.7137C86.7805 89.6009 88.0614 88.5726 88.0614 86.987C88.0614 85.5539 87.1251 84.7777 85.4282 84.3863L84.9926 84.2801V81.8586C85.8768 81.9581 86.3449 82.4292 86.449 83.1059H88.1914C88.1459 81.4473 86.8195 80.472 84.9926 80.3659V79.311ZM86.2409 87.1595C86.2409 87.6902 85.8118 88.1214 84.9926 88.221V86.0449C85.8703 86.2837 86.2409 86.6287 86.2409 87.1595ZM82.8925 82.9665C82.8925 82.3628 83.3411 81.9515 84.2449 81.8586V84.1076C83.2371 83.8489 82.8925 83.5504 82.8925 82.9665Z" fill="white"/>
<path d="M76.0525 79.311H75.3048V80.3725C73.4583 80.4985 72.1385 81.507 72.1385 83.1722C72.1385 84.6251 73.0682 85.3549 74.8432 85.7662L75.3048 85.8658V88.2077C74.5766 88.1015 74.089 87.6902 73.998 86.9737H72.262C72.327 88.5394 73.4973 89.5744 75.3048 89.7071V90.7885H76.0525V89.7137C77.8405 89.6009 79.1213 88.5726 79.1213 86.987C79.1213 85.5539 78.1851 84.7777 76.4881 84.3863L76.0525 84.2801V81.8586C76.9367 81.9581 77.4049 82.4292 77.5089 83.1059H79.2513C79.2058 81.4473 77.8795 80.472 76.0525 80.3659V79.311ZM77.3008 87.1595C77.3008 87.6902 76.8717 88.1214 76.0525 88.221V86.0449C76.9302 86.2837 77.3008 86.6287 77.3008 87.1595ZM73.9525 82.9665C73.9525 82.3628 74.4011 81.9515 75.3048 81.8586V84.1076C74.2971 83.8489 73.9525 83.5504 73.9525 82.9665Z" fill="white"/>
</svg>
