<svg width="43" height="41" viewBox="0 0 43 41" fill="none" xmlns="http://www.w3.org/2000/svg">
<path d="M16.3241 8.59082H8.50016C8.3442 8.59082 8.19463 8.65244 8.08435 8.76213C7.97407 8.87182 7.91211 9.02059 7.91211 9.17571V13.4763C7.91216 13.6314 7.97414 13.7802 8.08441 13.8899C8.19468 13.9995 8.34422 14.0612 8.50016 14.0612H9.15871V15.3929L10.375 14.0612H16.3241C16.4801 14.0612 16.6297 13.9996 16.7399 13.8899C16.8502 13.7802 16.9122 13.6315 16.9122 13.4763V9.17571C16.9122 9.09889 16.897 9.02282 16.8675 8.95185C16.8379 8.88087 16.7946 8.81639 16.74 8.76207C16.6854 8.70775 16.6206 8.66467 16.5492 8.63529C16.4778 8.6059 16.4014 8.59079 16.3241 8.59082Z" fill="#CEE7F4"/>
<g style="mix-blend-mode:multiply">
<g style="mix-blend-mode:multiply">
<path d="M14.1488 11.0419C14.0731 11.0421 13.9981 11.0273 13.9282 10.9985C13.8582 10.9697 13.7947 10.9274 13.7413 10.874C13.6684 10.8018 13.5697 10.7613 13.4667 10.7613C13.3638 10.7613 13.2651 10.8018 13.1922 10.874C13.0839 10.9814 12.9372 11.0417 12.7842 11.0417C12.6313 11.0417 12.4846 10.9814 12.3763 10.874C12.3035 10.8018 12.2048 10.7612 12.1018 10.7612C11.9989 10.7612 11.9002 10.8018 11.8274 10.874C11.7738 10.9273 11.7102 10.9696 11.6402 10.9985C11.5702 11.0273 11.4952 11.0422 11.4194 11.0422C11.3437 11.0422 11.2686 11.0273 11.1986 10.9985C11.1286 10.9696 11.0651 10.9273 11.0115 10.874C10.9386 10.8018 10.8399 10.7613 10.7369 10.7613C10.634 10.7613 10.5353 10.8018 10.4624 10.874C10.3541 10.9814 10.2074 11.0417 10.0544 11.0417C9.9015 11.0417 9.7548 10.9814 9.6465 10.874C9.62882 10.8565 9.6189 10.8327 9.6189 10.8078C9.6189 10.783 9.62882 10.7591 9.6465 10.7416C9.66417 10.724 9.68813 10.7141 9.71312 10.7141C9.73812 10.7141 9.76208 10.724 9.77975 10.7416C9.85266 10.8139 9.95144 10.8545 10.0544 10.8545C10.1574 10.8545 10.2562 10.8139 10.3291 10.7416C10.4374 10.6341 10.5841 10.5738 10.737 10.5738C10.89 10.5738 11.0367 10.6341 11.145 10.7416C11.181 10.7774 11.2238 10.8059 11.2709 10.8253C11.318 10.8447 11.3685 10.8547 11.4194 10.8547C11.4704 10.8547 11.5209 10.8447 11.568 10.8253C11.6151 10.8059 11.6579 10.7774 11.6939 10.7416C11.8021 10.634 11.9488 10.5736 12.1018 10.5736C12.2548 10.5736 12.4016 10.634 12.5098 10.7416C12.5827 10.8139 12.6815 10.8545 12.7846 10.8545C12.8876 10.8545 12.9864 10.8139 13.0593 10.7416C13.1676 10.6341 13.3143 10.5738 13.4673 10.5738C13.6202 10.5738 13.767 10.6341 13.8752 10.7416C13.9112 10.7774 13.954 10.8059 14.0011 10.8253C14.0482 10.8447 14.0987 10.8547 14.1497 10.8547C14.2007 10.8547 14.2511 10.8447 14.2982 10.8253C14.3453 10.8059 14.3881 10.7774 14.4241 10.7416C14.5324 10.6341 14.6791 10.5737 14.8321 10.5737C14.9851 10.5737 15.1318 10.6341 15.24 10.7416C15.2577 10.7591 15.2676 10.7829 15.2676 10.8077C15.2677 10.8326 15.2578 10.8564 15.2401 10.8739C15.2225 10.8915 15.1985 10.9014 15.1736 10.9014C15.1486 10.9014 15.1246 10.8916 15.107 10.874C15.0341 10.8017 14.9353 10.7611 14.8324 10.7611C14.7294 10.7611 14.6307 10.8017 14.5578 10.874C14.5042 10.9276 14.4405 10.97 14.3703 10.9988C14.3001 11.0276 14.2248 11.0423 14.1488 11.0419Z" fill="#79B9D3"/>
</g>
<g style="mix-blend-mode:multiply">
<path d="M14.1488 11.7703C14.0731 11.7705 13.9981 11.7557 13.9282 11.7269C13.8582 11.6981 13.7947 11.6558 13.7413 11.6024C13.6684 11.5302 13.5697 11.4897 13.4667 11.4897C13.3638 11.4897 13.2651 11.5302 13.1922 11.6024C13.0838 11.7097 12.9372 11.77 12.7842 11.77C12.6313 11.77 12.4846 11.7097 12.3763 11.6024C12.3035 11.5302 12.2048 11.4896 12.1018 11.4896C11.9989 11.4896 11.9002 11.5302 11.8274 11.6024C11.7738 11.6557 11.7102 11.698 11.6402 11.7269C11.5702 11.7557 11.4952 11.7706 11.4194 11.7706C11.3437 11.7706 11.2686 11.7557 11.1986 11.7269C11.1286 11.698 11.0651 11.6557 11.0115 11.6024C10.9386 11.5302 10.8399 11.4897 10.7369 11.4897C10.634 11.4897 10.5353 11.5302 10.4624 11.6024C10.354 11.7097 10.2073 11.77 10.0544 11.77C9.90151 11.77 9.75483 11.7097 9.6465 11.6024C9.62882 11.5849 9.6189 11.561 9.6189 11.5362C9.6189 11.5114 9.62882 11.4875 9.6465 11.47C9.66417 11.4524 9.68813 11.4425 9.71312 11.4425C9.73812 11.4425 9.76208 11.4524 9.77975 11.47C9.85271 11.5422 9.95148 11.5827 10.0544 11.5827C10.1574 11.5827 10.2561 11.5422 10.3291 11.47C10.4374 11.3625 10.5841 11.3022 10.737 11.3022C10.89 11.3022 11.0367 11.3625 11.145 11.47C11.181 11.5058 11.2238 11.5343 11.2709 11.5537C11.318 11.5731 11.3685 11.5831 11.4194 11.5831C11.4704 11.5831 11.5209 11.5731 11.568 11.5537C11.6151 11.5343 11.6579 11.5058 11.6939 11.47C11.8021 11.3624 11.9488 11.302 12.1018 11.302C12.2548 11.302 12.4016 11.3624 12.5098 11.47C12.5828 11.5422 12.6816 11.5827 12.7846 11.5827C12.8875 11.5827 12.9863 11.5422 13.0593 11.47C13.1676 11.3625 13.3143 11.3022 13.4673 11.3022C13.6202 11.3022 13.767 11.3625 13.8752 11.47C13.9112 11.5058 13.954 11.5343 14.0011 11.5537C14.0482 11.5731 14.0987 11.5831 14.1497 11.5831C14.2007 11.5831 14.2511 11.5731 14.2982 11.5537C14.3453 11.5343 14.3881 11.5058 14.4241 11.47C14.5324 11.3625 14.6791 11.3021 14.8321 11.3021C14.9851 11.3021 15.1318 11.3625 15.24 11.47C15.2488 11.4786 15.2557 11.489 15.2604 11.5003C15.2652 11.5117 15.2676 11.5238 15.2676 11.5361C15.2676 11.5484 15.2652 11.5606 15.2605 11.572C15.2558 11.5833 15.2488 11.5936 15.2401 11.6023C15.2314 11.611 15.221 11.6179 15.2096 11.6226C15.1982 11.6274 15.1859 11.6298 15.1736 11.6298C15.1612 11.6298 15.1489 11.6274 15.1375 11.6227C15.1261 11.618 15.1157 11.6111 15.107 11.6024C15.0341 11.5301 14.9353 11.4895 14.8324 11.4895C14.7294 11.4895 14.6307 11.5301 14.5578 11.6024C14.5042 11.656 14.4405 11.6984 14.3703 11.7272C14.3001 11.756 14.2248 11.7707 14.1488 11.7703Z" fill="#79B9D3"/>
</g>
<g style="mix-blend-mode:multiply">
<path d="M11.42 12.4368C11.3443 12.437 11.2693 12.4222 11.1993 12.3934C11.1294 12.3646 11.0659 12.3223 11.0125 12.2689C10.9396 12.1967 10.8408 12.1562 10.7379 12.1562C10.635 12.1562 10.5363 12.1967 10.4633 12.2689C10.355 12.3762 10.2083 12.4365 10.0554 12.4365C9.90249 12.4365 9.75581 12.3762 9.64747 12.2689C9.6298 12.2514 9.61987 12.2276 9.61987 12.2027C9.61987 12.1779 9.6298 12.154 9.64747 12.1365C9.66514 12.1189 9.68911 12.109 9.7141 12.109C9.73909 12.109 9.76306 12.1189 9.78073 12.1365C9.85369 12.2087 9.95245 12.2492 10.0554 12.2492C10.1584 12.2492 10.2571 12.2087 10.3301 12.1365C10.4383 12.029 10.585 11.9687 10.738 11.9687C10.891 11.9687 11.0377 12.029 11.1459 12.1365C11.182 12.1723 11.2248 12.2008 11.2718 12.2202C11.3189 12.2396 11.3694 12.2496 11.4204 12.2496C11.4714 12.2496 11.5219 12.2396 11.569 12.2202C11.6161 12.2008 11.6589 12.1723 11.6949 12.1365C11.8031 12.0289 11.9498 11.9685 12.1028 11.9685C12.2558 11.9685 12.4025 12.0289 12.5107 12.1365C12.5284 12.154 12.5384 12.1778 12.5384 12.2026C12.5384 12.2275 12.5285 12.2513 12.5108 12.2688C12.4932 12.2864 12.4693 12.2963 12.4443 12.2963C12.4193 12.2963 12.3954 12.2865 12.3777 12.2689C12.3049 12.1967 12.2061 12.1561 12.1032 12.1561C12.0003 12.1561 11.9016 12.1967 11.8288 12.2689C11.7752 12.3224 11.7115 12.3648 11.6413 12.3936C11.5711 12.4224 11.4959 12.4371 11.42 12.4368Z" fill="#79B9D3"/>
</g>
</g>
<path d="M36.9133 4.29114H27.8185C27.6699 4.29114 27.5273 4.34987 27.4222 4.4544C27.3171 4.55894 27.2581 4.70072 27.2581 4.84856V10.1248C27.2581 10.2726 27.3172 10.4144 27.4223 10.5189C27.5274 10.6234 27.6699 10.6822 27.8185 10.6822H34.6438L35.86 12.0128V10.6822H36.9133C37.062 10.6822 37.2045 10.6235 37.3096 10.519C37.4147 10.4144 37.4738 10.2726 37.4738 10.1248V4.84856C37.4738 4.77535 37.4593 4.70285 37.4312 4.63521C37.403 4.56757 37.3617 4.50611 37.3097 4.45434C37.2576 4.40258 37.1959 4.36152 37.1278 4.33351C37.0598 4.30551 36.987 4.29111 36.9133 4.29114Z" fill="#155D72"/>
<path d="M34.1299 7.67626C34.0578 7.67651 33.9865 7.66254 33.9199 7.63515C33.8534 7.60777 33.793 7.56752 33.7422 7.51675C33.6747 7.44978 33.5831 7.41217 33.4877 7.41217C33.3923 7.41217 33.3008 7.44978 33.2332 7.51675C33.1303 7.6188 32.9908 7.67611 32.8454 7.67611C32.7 7.67611 32.5605 7.6188 32.4575 7.51675C32.39 7.44978 32.2985 7.41217 32.2031 7.41217C32.1076 7.41217 32.0161 7.44978 31.9486 7.51675C31.8457 7.61888 31.7063 7.67625 31.5609 7.67625C31.4156 7.67625 31.2761 7.61888 31.1733 7.51675C31.1057 7.44972 31.0141 7.41207 30.9187 7.41207C30.8232 7.41207 30.7317 7.44972 30.6641 7.51675C30.5612 7.61879 30.4217 7.67609 30.2764 7.67609C30.131 7.67609 29.9915 7.61879 29.8886 7.51675C29.8794 7.50818 29.8719 7.49784 29.8668 7.48636C29.8616 7.47489 29.8589 7.46249 29.8587 7.44993C29.8584 7.43736 29.8608 7.42488 29.8655 7.41323C29.8702 7.40157 29.8773 7.39099 29.8862 7.3821C29.8952 7.37321 29.9058 7.36621 29.9175 7.3615C29.9292 7.35679 29.9418 7.35448 29.9544 7.3547C29.9671 7.35493 29.9795 7.35768 29.9911 7.36279C30.0026 7.36791 30.013 7.37528 30.0217 7.38448C30.0893 7.45147 30.1809 7.48908 30.2764 7.48908C30.3718 7.48908 30.4634 7.45147 30.531 7.38448C30.634 7.28255 30.7734 7.22532 30.9187 7.22532C31.064 7.22532 31.2034 7.28255 31.3063 7.38448C31.3739 7.4515 31.4655 7.48915 31.5609 7.48915C31.6564 7.48915 31.7479 7.4515 31.8155 7.38448C31.9184 7.28234 32.0578 7.22498 32.2032 7.22498C32.3485 7.22498 32.488 7.28234 32.5908 7.38448C32.6584 7.45145 32.75 7.48906 32.8454 7.48906C32.9408 7.48906 33.0324 7.45145 33.1 7.38448C33.203 7.28248 33.3424 7.22522 33.4877 7.22522C33.6331 7.22522 33.7725 7.28248 33.8755 7.38448C33.943 7.45154 34.0345 7.48922 34.13 7.48922C34.2254 7.48922 34.3169 7.45154 34.3845 7.38448C34.4873 7.28234 34.6267 7.22498 34.7721 7.22498C34.9175 7.22498 35.0569 7.28234 35.1597 7.38448C35.1774 7.40204 35.1873 7.42586 35.1873 7.45068C35.1872 7.47551 35.1773 7.49931 35.1596 7.51685C35.142 7.53439 35.118 7.54423 35.093 7.54421C35.0681 7.54419 35.0441 7.53431 35.0265 7.51675C34.9589 7.44978 34.8674 7.41217 34.772 7.41217C34.6766 7.41217 34.5851 7.44978 34.5175 7.51675C34.4667 7.56752 34.4063 7.60777 34.3398 7.63515C34.2732 7.66254 34.2019 7.67651 34.1299 7.67626Z" fill="#79B9D3"/>
<g style="mix-blend-mode:screen">
<g style="mix-blend-mode:screen">
<path d="M32.8376 9.21034C32.8253 9.21035 32.813 9.20793 32.8016 9.20322C32.7902 9.19851 32.7798 9.19159 32.7711 9.18288L31.8274 8.24427C31.8098 8.22672 31.7998 8.20291 31.7998 8.17807C31.7998 8.15323 31.8097 8.12941 31.8273 8.11183C31.845 8.09426 31.8689 8.08437 31.8939 8.08435C31.9189 8.08433 31.9428 8.09418 31.9605 8.11173L32.904 9.04992C32.9171 9.06303 32.9261 9.07972 32.9297 9.09789C32.9333 9.11607 32.9314 9.1349 32.9243 9.152C32.9171 9.16911 32.9051 9.18372 32.8896 9.194C32.8741 9.20427 32.8558 9.20974 32.8372 9.20972L32.8376 9.21034Z" fill="#EFF9FF"/>
</g>
<g style="mix-blend-mode:screen">
<path d="M31.8939 9.21005C31.8753 9.21003 31.8571 9.20453 31.8416 9.19424C31.8261 9.18395 31.8141 9.16933 31.807 9.15224C31.7998 9.13514 31.798 9.11632 31.8016 9.09817C31.8052 9.08002 31.8142 9.06334 31.8273 9.05025L32.771 8.11143C32.7887 8.09386 32.8127 8.08398 32.8377 8.08398C32.8627 8.08398 32.8866 8.09386 32.9043 8.11143C32.922 8.12901 32.9319 8.15285 32.9319 8.1777C32.9319 8.20256 32.922 8.2264 32.9043 8.24398L31.9604 9.18258C31.9517 9.1913 31.9413 9.19821 31.9299 9.20292C31.9185 9.20764 31.9062 9.21006 31.8939 9.21005Z" fill="#EFF9FF"/>
</g>
</g>
<path d="M11.0177 4.71826H4.9633C4.88606 4.71826 4.80957 4.7334 4.73821 4.7628C4.66685 4.79221 4.60202 4.83531 4.54741 4.88964C4.4928 4.94398 4.44949 5.00848 4.41995 5.07947C4.39041 5.15045 4.37522 5.22653 4.37524 5.30336V8.98476C4.37522 9.06158 4.39041 9.13766 4.41995 9.20865C4.44949 9.27963 4.4928 9.34413 4.54741 9.39847C4.60202 9.4528 4.66685 9.4959 4.73821 9.52531C4.80957 9.55472 4.88606 9.56985 4.9633 9.56985H5.41663V10.9015L6.6329 9.56985H11.0177C11.1736 9.5698 11.3232 9.50813 11.4335 9.39841C11.5438 9.28869 11.6057 9.1399 11.6057 8.98476V5.30336C11.6057 5.14822 11.5438 4.99943 11.4335 4.88971C11.3232 4.77998 11.1736 4.71832 11.0177 4.71826Z" fill="#79B9D3"/>
<path d="M5.98694 5.67773H5.71094V6.0446H5.98694V5.67773Z" fill="#155D72"/>
<path d="M6.71961 5.67773H6.4436V6.0446H6.71961V5.67773Z" fill="#155D72"/>
<path d="M7.45203 5.67773H7.17603V6.0446H7.45203V5.67773Z" fill="#155D72"/>
<path d="M8.18494 5.67773H7.90894V6.0446H8.18494V5.67773Z" fill="#155D72"/>
<path d="M29.1992 0H19.7762C19.6367 0 19.5029 0.0551113 19.4043 0.15321C19.3057 0.251308 19.2502 0.384358 19.2502 0.52309V5.21322C19.2502 5.35195 19.3057 5.485 19.4043 5.5831C19.5029 5.6812 19.6367 5.73631 19.7762 5.73631H25.032V7.06797L26.2483 5.73631H29.1992C29.3387 5.73626 29.4724 5.68113 29.5711 5.58304C29.6697 5.48495 29.7251 5.35194 29.7252 5.21322V0.52309C29.7251 0.384375 29.6697 0.251357 29.5711 0.15327C29.4724 0.0551836 29.3387 5.51443e-05 29.1992 0Z" fill="#A5D2E7"/>
<path d="M24.2512 2.97382C24.2512 2.92738 24.2651 2.88198 24.2911 2.84337C24.317 2.80475 24.354 2.77466 24.3972 2.75689C24.4404 2.73912 24.4879 2.73447 24.5338 2.74353C24.5796 2.75259 24.6218 2.77495 24.6548 2.80779C24.6879 2.84062 24.7104 2.88246 24.7195 2.92801C24.7287 2.97356 24.724 3.02077 24.7061 3.06368C24.6882 3.10658 24.6579 3.14325 24.619 3.16905C24.5801 3.19486 24.5344 3.20863 24.4877 3.20863C24.4249 3.20863 24.3648 3.18389 24.3205 3.13985C24.2761 3.09582 24.2512 3.03609 24.2512 2.97382Z" fill="#EFF9FF"/>
<path d="M25.4404 2.97386C25.4404 2.92738 25.4542 2.88192 25.4802 2.84324C25.5062 2.80457 25.5431 2.77442 25.5864 2.7566C25.6296 2.73878 25.6772 2.73409 25.7231 2.74314C25.769 2.75218 25.8112 2.77455 25.8443 2.80741C25.8774 2.84026 25.9 2.88214 25.9091 2.92773C25.9183 2.97332 25.9136 3.02059 25.8957 3.06354C25.8778 3.1065 25.8475 3.14321 25.8086 3.16904C25.7696 3.19488 25.7239 3.20867 25.6771 3.20867C25.6143 3.20867 25.5542 3.18393 25.5098 3.13991C25.4654 3.09588 25.4405 3.03616 25.4404 2.97386Z" fill="#EFF9FF"/>
<path d="M23.5349 2.97382C23.5349 2.92738 23.521 2.88198 23.495 2.84337C23.4691 2.80475 23.4321 2.77466 23.3889 2.75689C23.3457 2.73912 23.2982 2.73447 23.2523 2.74353C23.2065 2.75259 23.1643 2.77495 23.1313 2.80779C23.0982 2.84062 23.0757 2.88246 23.0666 2.92801C23.0574 2.97356 23.0621 3.02077 23.08 3.06368C23.0979 3.10658 23.1282 3.14325 23.1671 3.16905C23.206 3.19486 23.2517 3.20863 23.2985 3.20863C23.3612 3.20863 23.4213 3.18389 23.4656 3.13985C23.51 3.09582 23.5349 3.03609 23.5349 2.97382Z" fill="#EFF9FF"/>
<path d="M22.7007 15.2229C22.7007 15.2229 25.3607 16.5131 26.0776 17.9002C26.7246 19.152 25.4436 20.143 24.562 19.6996C23.6798 19.2563 22.7007 15.2229 22.7007 15.2229Z" fill="#F29892"/>
<path d="M20.8271 12.4029C20.7697 12.0855 20.3104 12.1607 20.166 12.2587C20.0216 12.3567 19.6712 12.4698 19.593 12.628C19.5148 12.7866 19.6248 12.8385 19.6248 12.8385C19.6248 12.8385 20.1467 12.8006 20.287 12.8457C20.3772 12.8748 20.4522 13.0724 20.4887 13.2798C20.6154 13.0143 20.7249 12.7529 20.7249 12.7529C20.7249 12.7529 20.8646 12.6119 20.8271 12.4029Z" fill="#4F4F4F"/>
<path d="M20.2878 12.8457C20.1475 12.8006 19.625 12.8385 19.625 12.8385C19.625 12.8385 19.5885 12.9743 19.7101 13.3184C19.8317 13.6626 20.0128 13.8445 20.1475 13.8285C20.2153 13.8207 20.3614 13.548 20.4898 13.2796C20.4533 13.0722 20.3781 12.8747 20.2878 12.8457Z" fill="#4F4F4F"/>
<path d="M29.3959 39.6868H11.3355C10.4465 39.6868 6.72298 39.7355 7.55855 39.8433C8.33363 39.9433 13.665 39.9998 14.5554 39.9998H30.8293C33.5344 39.9998 35.9342 39.9293 35.0494 39.8433C34.1646 39.7573 32.3415 39.6868 29.3973 39.6868H29.3959Z" fill="black" fill-opacity="0.15"/>
<path d="M17.5261 38.8697C17.6726 38.5918 17.6784 38.1432 17.6841 38.1219C17.7097 38.0296 17.9271 37.998 17.986 38.2158C18.1022 38.6452 18.5308 38.1271 18.4755 38.2827C18.3118 38.7447 18.2691 39.5298 18.0991 39.5449C17.7378 39.5775 16.3515 39.801 16.3713 39.6113C16.3833 39.4972 17.4281 39.0548 17.5256 38.8697H17.5261Z" fill="#073C4B"/>
<path d="M23.9362 39.2794C23.7402 39.1881 23.7193 39.0118 23.6391 38.8433C23.6338 38.8319 23.6072 38.5918 23.6072 38.5726C23.6083 38.4901 23.2892 37.1673 23.1735 37.3363C22.9446 37.6698 22.7663 38.2407 22.7757 38.3823C22.8033 38.8038 22.6266 39.4692 22.783 39.5189C23.1161 39.6253 24.6807 39.7787 24.7146 39.6154C24.735 39.5174 24.2756 39.437 23.9362 39.2789V39.2794Z" fill="#073C4B"/>
<path d="M19.2796 22.672C19.3229 22.5947 24.3395 21.6395 24.5621 21.8205C24.5621 21.8205 24.4135 38.1008 24.1075 38.3206C23.8014 38.5405 22.6695 38.6504 22.5084 38.3066C22.0726 37.3753 21.9667 27.2374 22.0439 25.6776C21.9521 26.1671 19.1508 38.0079 18.9105 38.3066C18.6701 38.6053 17.7264 38.5058 17.4465 38.3066C17.2822 38.1899 18.1884 32.6382 18.5314 28.5442C18.8171 25.1377 19.0538 23.0733 19.2796 22.6725V22.672Z" fill="#79B9D3"/>
<path d="M24.562 21.8205C24.4822 21.7557 23.7888 21.8366 22.9291 21.9704C21.8097 22.4194 20.4583 22.8841 19.3921 22.7793C19.3921 22.7793 19.5959 23.1475 20.8446 23.2828C21.867 23.3938 23.7252 23.2595 24.55 23.0365C24.5583 22.2763 24.5625 21.8205 24.5625 21.8205H24.562Z" fill="#2E7992"/>
<path d="M19.178 22.8549C19.177 21.769 19.1785 21.1115 18.9684 20.2833C18.3016 17.6552 17.6561 17.1631 18.0174 16.3402C18.3459 15.5924 19.4074 14.8457 20.4282 14.7477C21.5356 14.6414 22.5414 14.911 22.983 15.5058C23.7989 16.6046 24.5763 19.4194 24.7254 22.3368C24.753 22.8787 23.9047 22.8642 23.2843 22.9762C21.6545 23.2692 19.178 23.0296 19.1775 22.8554L19.178 22.8549Z" fill="#F6BFBB"/>
<path d="M19.8581 14.7296C19.844 14.8836 20.7449 15.6065 20.9305 15.354C20.9847 15.2803 20.868 14.9692 20.7934 14.7742L20.6526 14.2266L20.588 13.8813L20.5291 13.5665L20.0619 13.4104C20.0619 13.4104 19.8826 14.46 19.8581 14.7301V14.7296Z" fill="#9388CD"/>
<path d="M20.1294 13.7578C20.1294 13.7578 20.1753 14.0548 20.3883 14.1486C20.4838 14.1906 20.5762 14.215 20.6529 14.2264L20.5882 13.8812C20.4102 13.8485 20.1732 13.7993 20.1294 13.7578Z" fill="#5745A0"/>
<path d="M20.1702 12.9898L20.1051 13.6307C20.1004 13.8433 20.3068 13.973 20.4867 13.9963C20.6561 14.0181 20.8032 14.0279 20.982 13.9133C21.091 13.8433 21.1759 13.707 21.1264 13.4829C21.0623 13.1925 20.9205 12.9431 20.8371 12.8135C20.6468 12.5189 20.2437 12.5755 20.1708 12.9903L20.1702 12.9898Z" fill="#9388CD"/>
<path d="M20.5786 13.2646C20.5786 13.2646 20.7597 13.2792 20.9904 13.2227C20.9904 13.2227 21.0405 13.3569 20.9612 13.416C20.8818 13.4751 20.6872 13.4186 20.5786 13.2646Z" fill="white"/>
<path d="M20.7918 13.1381C20.8105 13.1354 20.822 13.1229 20.8215 13.1041C20.8199 13.0624 20.8846 13.0635 20.8867 13.1052C20.8888 13.1506 20.8533 13.1949 20.8079 13.2012C20.7907 13.2038 20.773 13.196 20.7683 13.1777C20.7641 13.1621 20.774 13.1407 20.7918 13.1381Z" fill="#5745A0"/>
<path d="M20.559 12.9537C20.5704 12.9474 20.5892 12.9505 20.5944 12.9636C20.6012 12.9798 20.6049 12.9954 20.6028 13.0131C20.6012 13.0272 20.5913 13.0392 20.5762 13.0387C20.5631 13.0387 20.549 13.0262 20.5506 13.0121C20.5516 13.0043 20.5454 12.961 20.559 12.9537Z" fill="#155D72"/>
<path d="M20.937 12.9423V12.9721C20.9359 13.006 20.8832 13.0049 20.8843 12.971V12.9413C20.8853 12.9074 20.938 12.9084 20.937 12.9423Z" fill="#155D72"/>
<path d="M20.046 13.1133C20.0371 13.0833 20.1018 12.977 20.1692 13.0024C20.1692 13.0024 20.178 13.0708 20.1911 13.1372L20.0877 13.2108C20.0658 13.1657 20.0496 13.1253 20.0465 13.1133H20.046Z" fill="#4F4F4F"/>
<path d="M20.1324 13.2367C20.1 13.2128 20.0724 13.1843 20.0458 13.1543C19.9957 13.0973 19.908 13.0237 19.8589 13.1392C19.7879 13.3072 20.0296 13.5871 20.1924 13.487C20.313 13.4129 20.2138 13.2968 20.1324 13.2367Z" fill="#9388CD"/>
<path d="M20.191 13.1371C20.1983 13.1728 20.2066 13.2081 20.2155 13.2309C20.2411 13.2957 20.2823 13.3366 20.2155 13.3537C20.1743 13.3641 20.1153 13.2573 20.0803 13.1858L20.191 13.1371Z" fill="#4F4F4F"/>
<path d="M22.0432 25.7482C22.0709 25.7482 22.0975 25.7321 22.109 25.7046C22.3762 25.0811 22.7337 24.8701 22.7368 24.8681C22.7713 24.8484 22.7828 24.8048 22.7629 24.7711C22.7431 24.7369 22.6993 24.7255 22.6653 24.7452C22.6492 24.7546 22.263 24.9826 21.9775 25.6492C21.9618 25.6855 21.979 25.7269 22.0156 25.7425C22.025 25.7461 22.0344 25.7482 22.0438 25.7482H22.0432Z" fill="#2E7992"/>
<path d="M20.8238 15.2541C20.8238 15.2541 20.036 14.8472 19.8729 14.5922C19.8729 14.5922 19.632 14.8316 19.6169 14.8897C19.6018 14.9477 20.5819 15.6469 20.5819 15.6469L20.9078 15.4064L21.219 15.4852C21.219 15.4852 21.1492 15.0659 20.9745 14.8721C20.7999 14.6782 20.7613 14.6523 20.7613 14.6523C20.7613 14.6523 20.8004 14.9016 20.8066 14.9835C20.8118 15.0498 20.8233 15.2541 20.8233 15.2541H20.8238Z" fill="#F29892"/>
<path d="M20.4035 12.9064C20.4035 12.9064 20.5356 12.8229 20.5585 12.8229C20.5815 12.8229 20.5878 12.8531 20.5789 12.8573C20.5314 12.8787 20.4422 12.9283 20.4307 12.934C20.4192 12.9398 20.3999 12.9194 20.4035 12.9064Z" fill="#4F4F4F"/>
<path d="M20.8956 12.8123C20.8956 12.8123 20.7735 12.7784 20.7548 12.7857C20.736 12.793 20.7438 12.8165 20.7438 12.8165C20.7438 12.8165 20.8669 12.8441 20.8773 12.8457C20.8878 12.8473 20.9008 12.8227 20.8961 12.8118L20.8956 12.8123Z" fill="#4F4F4F"/>
<path d="M17.6673 37.5976H17.6662C17.6511 37.5971 17.6396 37.5846 17.6402 37.5696C17.6475 37.3565 17.82 36.2779 18.0025 35.1365C18.2048 33.8702 18.4144 32.5608 18.4384 32.1957C18.4827 31.5226 18.8044 28.0602 18.9775 27.2004C19.1438 26.3723 19.2965 23.7198 19.2981 23.6934C19.2991 23.6784 19.3122 23.6675 19.3268 23.668C19.3419 23.669 19.3528 23.6815 19.3523 23.6965C19.3508 23.7235 19.198 26.3795 19.0312 27.2113C18.8586 28.069 18.5374 31.5273 18.4931 32.1994C18.4691 32.567 18.2595 33.878 18.0567 35.1453C17.8742 36.2851 17.7022 37.3622 17.6949 37.5717C17.6949 37.5862 17.6824 37.5976 17.6678 37.5976H17.6673Z" fill="#2E7992"/>
<path d="M22.6401 38.1473C22.626 38.1473 22.614 38.1364 22.6129 38.1219C22.6119 38.1038 22.5038 36.3163 22.3603 35.7453C22.2841 35.4415 22.317 34.618 22.3494 33.822C22.3791 33.0867 22.4073 32.3918 22.3457 32.1901C22.2705 31.9427 22.3034 30.7085 22.3321 29.6201C22.3535 28.8059 22.3739 28.0374 22.3447 27.8357C22.2768 27.3664 22.2439 25.8481 22.2434 25.833C22.2434 25.818 22.2549 25.8061 22.27 25.8055H22.2705C22.2852 25.8055 22.2972 25.817 22.2977 25.832C22.2977 25.847 22.3311 27.3623 22.3984 27.8285C22.4282 28.0343 22.4089 28.7702 22.3864 29.6222C22.3577 30.707 22.3253 31.936 22.3979 32.175C22.4616 32.3856 22.4334 33.0846 22.4036 33.8246C22.3718 34.617 22.3384 35.4363 22.413 35.7329C22.5576 36.3085 22.6656 38.1012 22.6672 38.1193C22.6682 38.1344 22.6568 38.1468 22.6416 38.1478H22.6401V38.1473Z" fill="#2E7992"/>
<path d="M21.1942 13.7974C21.141 13.7316 20.2891 13.7502 20.3657 13.8414C20.4424 13.9332 20.6827 13.9275 20.6827 13.9275C20.6827 13.9275 20.8 14.3509 20.8511 14.4085C20.9022 14.466 21.0086 14.4717 21.0842 14.5298C21.1603 14.5873 21.1879 14.621 21.373 14.5598C21.5581 14.4987 21.2468 13.8637 21.1936 13.7979L21.1942 13.7974Z" fill="#9388CD"/>
<path d="M17.0038 20.7725C16.7364 20.8825 16.3787 20.9571 15.9194 20.9146C15.2432 20.8519 14.8667 20.6247 14.6655 20.4349C14.654 20.9156 14.7234 21.332 14.9778 21.7863C16.0737 23.7439 18.2395 25.297 19.1222 25.4219C19.2859 25.4453 19.6232 24.8956 19.6232 24.8956C19.6232 24.8956 17.471 21.7884 17.0044 20.7725H17.0038Z" fill="#9388CD"/>
<path d="M17.144 20.927C17.1513 20.9099 17.1414 20.1216 17.5439 19.5497C18.3677 18.3788 20.2436 16.8671 19.8577 16.0457C19.6596 15.6242 19.3327 15.004 18.6544 15.5241C18.1607 15.9026 14.6373 18.455 14.5862 20.6106C14.7874 20.7999 15.154 20.9851 15.8302 21.0478C16.2895 21.0903 17.0366 21.1837 17.144 20.9275V20.927Z" fill="#F6BFBB"/>
<path d="M19.4317 24.5937C19.4317 24.5937 19.9233 24.3494 20.062 24.3308C20.2012 24.3121 21.0047 24.5434 20.9937 24.5937C20.9661 24.727 20.3769 24.5937 20.3769 24.5937C20.3769 24.5937 20.9233 24.7928 20.9202 24.8722C20.9171 24.952 20.8733 24.9671 20.8733 24.9671C20.8733 24.9671 20.9056 25.034 20.841 25.0962C20.8003 25.1351 20.317 25.0868 20.317 25.0868C20.317 25.0868 20.5208 25.133 20.6319 25.202C20.7429 25.2709 20.3582 25.2248 20.1866 25.2295C20.0151 25.2341 19.7091 25.4192 19.3848 25.4374C19.0605 25.4555 18.9093 25.3705 18.8608 25.1605C18.8389 25.0656 19.2085 24.6995 19.4312 24.5932L19.4317 24.5937Z" fill="#9388CD"/>
<path d="M18.4236 18.5457C18.41 18.5457 18.3965 18.5405 18.386 18.5301C18.3657 18.5094 18.3662 18.4767 18.3871 18.4565C19.9611 16.9308 19.6832 16.32 19.6801 16.3138C19.667 16.2878 19.678 16.2567 19.7035 16.2443C19.7291 16.2318 19.7609 16.2422 19.7734 16.2676C19.7869 16.2951 20.0878 16.9531 18.4595 18.5306C18.4496 18.5405 18.4361 18.5451 18.423 18.5451L18.4236 18.5457Z" fill="#F29892"/>
<path d="M24.4016 19.6335C24.3766 19.6335 24.3547 19.6159 24.3505 19.5905C24.3155 19.3945 24.1198 18.5134 24.1177 18.5046C24.1114 18.4766 24.1292 18.4491 24.1574 18.4429C24.1856 18.4367 24.2132 18.4543 24.2195 18.4823C24.2273 18.5186 24.4173 19.3748 24.4533 19.5723C24.4585 19.6003 24.4392 19.6273 24.411 19.6325C24.4079 19.633 24.4048 19.6335 24.4016 19.6335Z" fill="#F29892"/>
<path d="M21.3202 14.3179C21.3202 14.3179 21.4558 14.2904 21.9198 14.5927C22.3838 14.8951 25.5464 16.5996 25.5558 17.8135C25.5641 18.8289 24.4369 18.8242 23.9036 18.4939C23.3702 18.1636 20.1638 14.4221 21.3202 14.3184V14.3179Z" fill="#9388CD"/>
<g clip-path="url(#clip0_1356_58579)">
<path d="M31.6772 23.0047V24.9411H29.2315V40.0104H27.4492V22.2676C27.4492 22.0313 27.5431 21.8046 27.7102 21.6375C27.8774 21.4704 28.104 21.3765 28.3404 21.3765C28.5767 21.3765 28.8034 21.4704 28.9705 21.6375C29.1377 21.8046 29.2315 22.0313 29.2315 22.2676V23.0047H31.6772Z" fill="#F6BFBB"/>
<path d="M39.0745 23.0049V24.9413H31.9519V23.0049H39.0745Z" fill="#F6BFBB"/>
<path d="M42.0426 23.9695C42.0431 24.0963 42.0185 24.2221 41.9702 24.3394C41.9219 24.4567 41.8509 24.5632 41.7612 24.6529C41.6715 24.7426 41.5649 24.8137 41.4476 24.862C41.3303 24.9103 41.2046 24.9349 41.0777 24.9344H39.3557V22.9979H41.0777C41.3336 23.0018 41.5778 23.1056 41.7581 23.2871C41.9384 23.4687 42.0405 23.7136 42.0426 23.9695Z" fill="#F6BFBB"/>
<path d="M40.5682 25.3767H39.3555V25.6046C39.3988 25.635 39.4314 25.6784 39.4485 25.7285C39.4657 25.7787 39.4665 25.8329 39.4508 25.8836C39.4352 25.9342 39.4039 25.9785 39.3615 26.0103C39.3191 26.042 39.2677 26.0595 39.2148 26.0602C39.1493 26.0592 39.0869 26.0327 39.0406 25.9864C38.9943 25.9402 38.9679 25.8777 38.9668 25.8123C38.9662 25.7715 38.9757 25.7312 38.9944 25.695C39.0131 25.6588 39.0405 25.6277 39.074 25.6046V25.3767H31.9515V25.6046C31.9948 25.635 32.0274 25.6784 32.0445 25.7285C32.0617 25.7787 32.0625 25.8329 32.0468 25.8836C32.0312 25.9342 31.9999 25.9785 31.9575 26.0103C31.9151 26.042 31.8637 26.0595 31.8107 26.0602C31.7453 26.0592 31.6829 26.0327 31.6366 25.9864C31.5903 25.9402 31.5639 25.8777 31.5628 25.8123C31.5622 25.7715 31.5717 25.7312 31.5904 25.695C31.6091 25.6588 31.6365 25.6277 31.67 25.6046V25.3767H30.4573C30.4217 25.3767 30.3876 25.3909 30.3625 25.416C30.3374 25.4411 30.3232 25.4752 30.3232 25.5108V32.9617C30.3232 32.9972 30.3374 33.0313 30.3625 33.0564C30.3876 33.0816 30.4217 33.0957 30.4573 33.0957H40.5615C40.5971 33.0957 40.6312 33.0816 40.6563 33.0564C40.6814 33.0313 40.6956 32.9972 40.6956 32.9617V25.5108C40.6969 25.4934 40.6945 25.4759 40.6887 25.4595C40.6828 25.4431 40.6736 25.4281 40.6616 25.4155C40.6496 25.4029 40.6351 25.3929 40.619 25.3862C40.603 25.3796 40.5857 25.3763 40.5682 25.3767ZM32.5478 30.181C32.6416 30.2949 32.7622 30.4423 32.9163 30.6165C32.9247 30.6241 32.9315 30.6335 32.9361 30.6438C32.9407 30.6542 32.9431 30.6654 32.9431 30.6768C32.9417 30.6962 32.9354 30.715 32.9249 30.7314C32.9144 30.7478 32.8999 30.7613 32.8828 30.7706C32.839 30.7988 32.7875 30.8128 32.7354 30.8108C32.64 30.8053 32.5486 30.7702 32.4741 30.7103C32.3872 30.643 32.3125 30.5615 32.253 30.4691C32.186 30.3686 32.1123 30.2413 32.0252 30.0805C31.9582 29.9599 31.918 29.8862 31.9046 29.8661C31.7507 29.9157 31.5905 29.9428 31.4288 29.9465C31.4301 30.0675 31.439 30.1884 31.4556 30.3083C31.469 30.4624 31.4757 30.5763 31.4757 30.65C31.4757 30.6741 31.4696 30.6979 31.4578 30.719C31.4461 30.7401 31.4292 30.7579 31.4087 30.7706C31.364 30.803 31.3098 30.8195 31.2546 30.8175C31.2241 30.8191 31.1937 30.8124 31.1666 30.7983C31.1395 30.7841 31.1167 30.763 31.1005 30.7371C31.0632 30.6541 31.0384 30.5661 31.0268 30.4758C31.0201 30.3753 31.0134 30.2547 31.0134 30.114C31.0133 29.9461 31.0223 29.7783 31.0402 29.6114C31.0536 29.4037 31.0603 29.2496 31.0603 29.1491C31.0603 29.0687 31.0536 28.9615 31.0402 28.8275C31.0402 28.8074 31.0335 28.7672 31.0268 28.7069C31.0215 28.6557 31.0193 28.6042 31.0201 28.5528C31.0206 28.5174 31.035 28.4837 31.0603 28.459C31.086 28.4344 31.1154 28.4141 31.1474 28.3987C31.3511 28.3645 31.5573 28.3466 31.7638 28.345C32.1056 28.345 32.387 28.4054 32.6081 28.5394C32.7132 28.5951 32.8004 28.6794 32.8597 28.7825C32.919 28.8857 32.9479 29.0034 32.9431 29.1223C32.9421 29.2034 32.9238 29.2833 32.8895 29.3568C32.8582 29.4278 32.8099 29.4899 32.7488 29.5377C32.6083 29.6513 32.4466 29.7355 32.2731 29.7856C32.3669 29.9264 32.4607 30.0604 32.5478 30.181ZM35.0873 30.5696C35.0605 30.5977 35.0287 30.6204 34.9935 30.6366C34.865 30.6949 34.73 30.7376 34.5914 30.7639C34.4193 30.7973 34.2442 30.8131 34.0688 30.8108C33.8343 30.8108 33.6668 30.7706 33.5596 30.6902C33.4616 30.6229 33.3904 30.5233 33.3586 30.4088C33.3347 30.2649 33.3235 30.1191 33.325 29.9733C33.3236 29.7853 33.3326 29.5974 33.3518 29.4104C33.3653 29.2228 33.3921 28.9883 33.4323 28.6935C33.4361 28.6408 33.4513 28.5896 33.4767 28.5434C33.5022 28.4971 33.5373 28.4569 33.5797 28.4255C33.6566 28.367 33.7511 28.3363 33.8477 28.3383C33.9281 28.3383 34.0621 28.3383 34.243 28.3316L34.5847 28.3249C34.6854 28.3241 34.7861 28.3285 34.8863 28.3383C34.9467 28.3472 35.0055 28.3653 35.0605 28.392C35.0786 28.4 35.094 28.4131 35.1047 28.4298C35.1154 28.4465 35.121 28.4659 35.1208 28.4858C35.1183 28.5413 35.0996 28.5948 35.0672 28.6399C35.0495 28.6639 35.0262 28.6831 34.9993 28.696C34.9724 28.7088 34.9428 28.7149 34.9131 28.7136C34.8327 28.7136 34.7187 28.7069 34.5646 28.7002C34.4105 28.6935 34.3033 28.6868 34.2229 28.6868C34.158 28.6879 34.0931 28.6924 34.0286 28.7002C33.9762 28.7015 33.9243 28.7106 33.8745 28.727C33.8601 28.7319 33.8474 28.7408 33.8379 28.7527C33.8284 28.7645 33.8225 28.7789 33.8209 28.794C33.7921 28.9916 33.7742 29.1907 33.7673 29.3903C33.8251 29.3979 33.8832 29.4023 33.9415 29.4037C34.0152 29.4037 34.0956 29.397 34.176 29.3903C34.2564 29.3836 34.31 29.3769 34.3368 29.3769C34.4775 29.3635 34.5914 29.3568 34.6919 29.3568C34.7369 29.3538 34.7816 29.3656 34.8193 29.3903C34.8346 29.3988 34.8472 29.4115 34.8556 29.427C34.8639 29.4424 34.8676 29.4599 34.8662 29.4774C34.8683 29.5018 34.8652 29.5264 34.8571 29.5495C34.849 29.5726 34.8361 29.5937 34.8193 29.6114C34.7761 29.6504 34.7226 29.6761 34.6651 29.6851C34.5525 29.7075 34.4382 29.721 34.3234 29.7253C34.1894 29.732 34.0621 29.7387 33.9348 29.7387C33.8879 29.7387 33.8276 29.7387 33.7539 29.732C33.7472 29.8929 33.7405 30.0403 33.7405 30.1743C33.7405 30.3619 33.8611 30.449 34.109 30.449C34.2169 30.4521 34.3248 30.4432 34.4306 30.4222C34.511 30.4021 34.6182 30.3753 34.7254 30.3418C34.8041 30.3079 34.8879 30.2875 34.9734 30.2815C34.9951 30.2802 35.0168 30.2852 35.0358 30.2959C35.0548 30.3066 35.0703 30.3225 35.0806 30.3418C35.1076 30.3761 35.1219 30.4187 35.1208 30.4624C35.12 30.5006 35.1084 30.5378 35.0873 30.5696ZM37.5798 29.9264C37.5932 30.1542 37.5932 30.3217 37.5932 30.4289C37.5951 30.4937 37.5929 30.5586 37.5865 30.6232C37.5795 30.6721 37.5558 30.717 37.5195 30.7505C37.4599 30.7951 37.3861 30.8165 37.3118 30.8108C37.2678 30.813 37.2239 30.8038 37.1845 30.784C37.1561 30.7691 37.131 30.7486 37.1108 30.7237C36.9902 30.5763 36.8093 30.3217 36.5748 29.9666C36.3135 29.5712 36.099 29.263 35.9315 29.0553C35.9549 29.2846 35.9661 29.515 35.965 29.7454C35.965 29.8661 35.965 30.0202 35.9583 30.2145C35.9516 30.4088 35.9516 30.5294 35.9449 30.5897C35.9384 30.6539 35.9127 30.7146 35.8712 30.7639C35.8505 30.7852 35.8254 30.8017 35.7976 30.8121C35.7698 30.8225 35.74 30.8267 35.7104 30.8242C35.687 30.827 35.6633 30.8242 35.6411 30.8161C35.619 30.8079 35.5991 30.7946 35.5831 30.7773C35.5521 30.7245 35.5358 30.6643 35.5362 30.6031C35.5362 30.4959 35.5362 30.3351 35.5563 30.1207C35.5563 30.0872 35.563 30.0269 35.5697 29.9465C35.5764 29.8661 35.5764 29.7923 35.5764 29.7253C35.5764 29.5444 35.5697 29.3367 35.5496 29.1089C35.5362 28.8543 35.5228 28.6667 35.5228 28.5394C35.5211 28.5121 35.5263 28.4849 35.538 28.4603C35.5498 28.4357 35.5676 28.4145 35.5898 28.3987C35.6364 28.3642 35.6927 28.3454 35.7506 28.345C35.8066 28.3457 35.8617 28.3594 35.9114 28.3853C36.1325 28.6667 36.4408 29.0888 36.8227 29.6449L37.1912 30.2078V30.0336C37.1912 29.8996 37.1912 29.7588 37.1845 29.6047C37.1778 29.4506 37.1778 29.3501 37.1711 29.2898C37.1577 29.0352 37.151 28.8141 37.151 28.6198C37.1504 28.5513 37.1689 28.4839 37.2046 28.4255C37.2212 28.3979 37.2449 28.3753 37.2732 28.36C37.3014 28.3447 37.3333 28.3372 37.3654 28.3383C37.4208 28.3383 37.4755 28.3497 37.5262 28.3719C37.5475 28.382 37.5653 28.3982 37.5772 28.4185C37.5891 28.4388 37.5947 28.4623 37.5932 28.4858C37.5932 28.593 37.5865 28.7404 37.5798 28.9347C37.5731 29.129 37.5664 29.263 37.5664 29.3501C37.5597 29.4975 37.5664 29.6851 37.5798 29.9264ZM39.9652 28.727C39.9489 28.7465 39.9283 28.762 39.9051 28.7725C39.8819 28.7829 39.8566 28.788 39.8312 28.7873C39.7482 28.7855 39.6655 28.7787 39.5833 28.7672C39.4996 28.7493 39.4142 28.7404 39.3287 28.7404C39.275 28.7386 39.2212 28.7409 39.1678 28.7471C39.1611 28.8342 39.1544 29.0419 39.1544 29.3635C39.1544 29.7521 39.1678 30.1475 39.188 30.5428L39.1947 30.6567C39.1947 30.7639 39.1343 30.8175 39.0137 30.8175C38.9199 30.8175 38.8529 30.7974 38.8194 30.7505C38.7802 30.6886 38.7615 30.6159 38.7658 30.5428C38.7658 30.3552 38.7591 30.1274 38.7524 29.8527C38.7457 29.6248 38.739 29.464 38.739 29.3635C38.739 29.2965 38.7457 29.1022 38.7658 28.7672L38.3102 28.7739C38.2058 28.7801 38.1012 28.7665 38.002 28.7337C37.9715 28.7136 37.9472 28.6854 37.9318 28.6522C37.9164 28.6191 37.9106 28.5823 37.9149 28.5461C37.9149 28.4322 37.9953 28.3786 38.1628 28.3786C38.2298 28.3786 38.3638 28.3786 38.5648 28.3853C38.7859 28.392 38.9467 28.3987 39.0606 28.3987C39.1477 28.3987 39.2617 28.392 39.389 28.3853C39.4761 28.3786 39.5364 28.3786 39.5565 28.3786C39.6812 28.3816 39.8041 28.4089 39.9183 28.459C39.9441 28.4689 39.9671 28.485 39.9853 28.5059C40.0031 28.5314 40.0125 28.5618 40.0121 28.593C40.0136 28.6173 40.0102 28.6417 40.0021 28.6647C39.9941 28.6877 39.9815 28.7089 39.9652 28.727Z" fill="#EF5E4E"/>
<path d="M32.5417 29.0953C32.542 29.1344 32.5331 29.173 32.5156 29.2079C32.4982 29.2429 32.4727 29.2732 32.4412 29.2963C32.378 29.3513 32.3053 29.3944 32.2268 29.4237C32.1531 29.4505 32.0526 29.484 31.9387 29.5175C31.8784 29.5309 31.7846 29.5443 31.6707 29.5577C31.6573 29.5577 31.6238 29.5644 31.5702 29.5711C31.5225 29.5712 31.4752 29.5779 31.4294 29.5912C31.4294 29.4639 31.4361 29.35 31.4428 29.2427C31.4495 29.1355 31.4562 29.0216 31.4562 28.9077L31.4495 28.7067C31.5547 28.6802 31.6627 28.6667 31.7712 28.6665C32.0124 28.6665 32.2067 28.7067 32.334 28.7871C32.4747 28.8675 32.5417 28.9747 32.5417 29.0953Z" fill="#EF5E4E"/>
<path d="M31.9516 23.0248V25.8122C31.9515 25.8494 31.9366 25.8851 31.9102 25.9115C31.8839 25.9378 31.8482 25.9527 31.8109 25.9529C31.7923 25.9533 31.7738 25.95 31.7565 25.9431C31.7393 25.9362 31.7236 25.9258 31.7104 25.9127C31.6972 25.8995 31.6869 25.8838 31.68 25.8666C31.6731 25.8493 31.6697 25.8308 31.6702 25.8122V23.0047C31.6747 22.9708 31.6915 22.9397 31.7175 22.9174C31.7434 22.8952 31.7767 22.8833 31.8109 22.8841C31.8445 22.8854 31.8767 22.898 31.9022 22.9199C31.9278 22.9418 31.9452 22.9717 31.9516 23.0047V23.0248Z" fill="#CCCCCC"/>
<path d="M39.3556 23.0248V25.8323C39.3556 25.8508 39.352 25.869 39.3449 25.8861C39.3379 25.9032 39.3275 25.9187 39.3144 25.9318C39.3014 25.9448 39.2858 25.9552 39.2688 25.9623C39.2517 25.9693 39.2334 25.973 39.2149 25.973C39.1965 25.973 39.1782 25.9693 39.1611 25.9623C39.144 25.9552 39.1285 25.9448 39.1154 25.9318C39.1024 25.9187 39.092 25.9032 39.0849 25.8861C39.0779 25.869 39.0742 25.8508 39.0742 25.8323V23.0047C39.0787 22.9708 39.0955 22.9397 39.1215 22.9174C39.1474 22.8952 39.1807 22.8833 39.2149 22.8841C39.2488 22.8844 39.2815 22.8967 39.3073 22.9187C39.333 22.9408 39.3501 22.9712 39.3556 23.0047V23.0248Z" fill="#CCCCCC"/>
<rect x="30.6294" y="26.8375" width="9.89703" height="5.41808" fill="#EF5E4E"/>
<path d="M32.0613 28.2398H32.8317C33.1827 28.2398 33.4373 28.2901 33.5953 28.3905C33.7544 28.4898 33.834 28.6484 33.834 28.8663C33.834 29.0142 33.799 29.1355 33.729 29.2303C33.6602 29.3251 33.5682 29.3821 33.4531 29.4013V29.4183C33.61 29.4532 33.7228 29.5187 33.7917 29.6147C33.8617 29.7106 33.8967 29.8382 33.8967 29.9973C33.8967 30.2231 33.8148 30.3992 33.6512 30.5256C33.4886 30.652 33.2674 30.7152 32.9874 30.7152H32.0613V28.2398ZM32.5862 29.2202H32.8909C33.0332 29.2202 33.1359 29.1981 33.1991 29.1541C33.2634 29.1101 33.2956 29.0373 33.2956 28.9357C33.2956 28.8409 33.2606 28.7732 33.1906 28.7325C33.1218 28.6908 33.0123 28.6699 32.8622 28.6699H32.5862V29.2202ZM32.5862 29.6367V30.2818H32.9282C33.0727 30.2818 33.1793 30.2541 33.2482 30.1988C33.317 30.1435 33.3515 30.0588 33.3515 29.9448C33.3515 29.7394 33.2047 29.6367 32.9113 29.6367H32.5862ZM36.4059 28.2398V29.8415C36.4059 30.0244 36.3647 30.1847 36.2823 30.3224C36.201 30.4601 36.0831 30.5656 35.9284 30.639C35.7738 30.7124 35.5909 30.7491 35.3799 30.7491C35.0616 30.7491 34.8144 30.6678 34.6383 30.5053C34.4622 30.3416 34.3741 30.1181 34.3741 29.8348V28.2398H34.8973V29.7552C34.8973 29.946 34.9357 30.0859 35.0125 30.1751C35.0892 30.2643 35.2162 30.3089 35.3934 30.3089C35.565 30.3089 35.6892 30.2643 35.7659 30.1751C35.8438 30.0848 35.8827 29.9437 35.8827 29.7518V28.2398H36.4059ZM37.7824 29.2591L38.2989 28.2398H38.8644L38.0432 29.7518V30.7152H37.5217V29.7687L36.7005 28.2398H37.2694L37.7824 29.2591Z" fill="white"/>
</g>
<g clip-path="url(#clip1_1356_58579)">
<path d="M12.2917 40.0817C12.1891 40.0859 12.0814 40.0538 11.9882 39.9904C11.6234 39.7424 10.753 39.0374 10.9484 38.0635C11.0439 37.587 11.0344 37.3957 10.9747 37.129C10.8201 36.4397 10.749 35.9006 11.2439 35.9887C11.7387 36.0768 12.0608 37.0829 12.1615 37.236C12.3394 37.5064 12.7156 37.4705 12.8977 38.0563C13.0797 38.6421 12.9377 40.0548 12.9377 40.0548L12.2917 40.0817Z" fill="#2E7992"/>
<path d="M12.79 38.8668C12.7828 38.8607 12.772 38.86 12.7657 38.8651L12.28 39.2656C12.2389 39.0604 12.1815 38.8165 12.1025 38.556L12.3595 37.8189C12.362 37.8116 12.3566 37.8031 12.3475 37.7999C12.3384 37.7966 12.3289 37.7999 12.3264 37.8071L12.085 38.4993C12.0749 38.4673 12.0645 38.435 12.0539 38.4024C11.9689 38.1443 11.8573 37.83 11.7457 37.5243L11.8215 37.1626C11.8231 37.1551 11.8168 37.1469 11.8074 37.1445C11.7981 37.1419 11.7892 37.1461 11.7876 37.1536L11.7229 37.4621C11.5042 36.865 11.2926 36.3177 11.2894 36.3092C11.2864 36.3014 11.2766 36.2962 11.2676 36.2976C11.2586 36.299 11.2538 36.3064 11.2568 36.3142C11.2601 36.3227 11.4781 36.8869 11.7003 37.4945L11.2427 37.2784C11.2339 37.2742 11.2239 37.2764 11.2202 37.2832C11.2165 37.29 11.2207 37.2988 11.2294 37.303L11.7138 37.5318C11.8248 37.8363 11.9359 38.149 12.0206 38.4061C12.0342 38.4473 12.0471 38.4883 12.0597 38.5289L11.3715 38.2546C11.3625 38.251 11.3528 38.2538 11.3498 38.2609C11.3469 38.2679 11.3518 38.2766 11.3608 38.2802L12.0702 38.5629C12.1491 38.8235 12.2063 39.0671 12.247 39.2717L11.4072 38.9179C11.3982 38.9141 11.3884 38.9168 11.3853 38.9238C11.382 38.9308 11.3868 38.9395 11.3956 38.9433L12.2535 39.3047C12.319 39.6408 12.3392 39.8634 12.3395 39.8673C12.3402 39.8753 12.3484 39.8822 12.3579 39.8828C12.3586 39.8828 12.3591 39.8828 12.3598 39.8828C12.3684 39.8826 12.3745 39.8769 12.3738 39.8695C12.3734 39.8656 12.3531 39.6414 12.2872 39.303L12.7915 38.8872C12.7977 38.8822 12.7969 38.8731 12.7897 38.8669L12.79 38.8668Z" fill="#CEE7F4"/>
<path d="M10.3658 23.0046V24.941H12.8114V40.0103H14.5938V22.2675C14.5927 22.0315 14.4985 21.8054 14.3316 21.6385C14.1647 21.4716 13.9386 21.3774 13.7026 21.3763C13.4663 21.3767 13.2399 21.4707 13.0728 21.6377C12.9058 21.8048 12.8118 22.0313 12.8114 22.2675V23.0046H10.3658Z" fill="#F6BFBB"/>
<path d="M2.96883 23.0048V24.9412H10.0847V23.0048H2.96883Z" fill="#F6BFBB"/>
<path d="M0.000370741 23.9694C-0.000161171 24.0962 0.0244331 24.2219 0.0727339 24.3392C0.121034 24.4565 0.192086 24.5631 0.281788 24.6528C0.37149 24.7425 0.478068 24.8136 0.595371 24.8619C0.712674 24.9102 0.838381 24.9348 0.965238 24.9342H2.68726V22.9978H0.965238C0.708998 23.0004 0.464101 23.1039 0.283531 23.2857C0.102961 23.4675 0.00123763 23.7131 0.000370741 23.9694Z" fill="#F6BFBB"/>
<path d="M11.5789 25.3766H10.3661V25.6044C10.4094 25.6349 10.442 25.6783 10.4592 25.7284C10.4763 25.7785 10.4771 25.8328 10.4615 25.8834C10.4459 25.934 10.4146 25.9784 10.3722 26.0101C10.3297 26.0419 10.2784 26.0593 10.2254 26.06C10.16 26.059 10.0975 26.0325 10.0512 25.9863C10.005 25.94 9.9785 25.8775 9.97747 25.8121C9.97688 25.7713 9.98636 25.7311 10.0051 25.6948C10.0238 25.6586 10.0511 25.6275 10.0847 25.6044V25.3766H2.96879V25.6044C3.01214 25.6349 3.04472 25.6783 3.06186 25.7284C3.079 25.7785 3.07981 25.8328 3.06418 25.8834C3.04854 25.934 3.01727 25.9784 2.97485 26.0101C2.93243 26.0419 2.88105 26.0593 2.82808 26.06C2.76265 26.059 2.70019 26.0325 2.65392 25.9863C2.60765 25.94 2.5812 25.8775 2.58016 25.8121C2.57957 25.7713 2.58905 25.7311 2.60775 25.6948C2.62645 25.6586 2.6538 25.6275 2.68737 25.6044V25.3766H1.47459C1.43904 25.3766 1.40496 25.3907 1.37983 25.4158C1.35469 25.441 1.34058 25.4751 1.34058 25.5106V32.9615C1.34058 32.997 1.35469 33.0311 1.37983 33.0563C1.40496 33.0814 1.43904 33.0955 1.47459 33.0955H11.5789C11.6144 33.0955 11.6485 33.0814 11.6736 33.0563C11.6988 33.0311 11.7129 32.997 11.7129 32.9615V25.5106C11.7129 25.4751 11.6988 25.441 11.6736 25.4158C11.6485 25.3907 11.6144 25.3766 11.5789 25.3766ZM4.36248 31.1792C4.28779 31.3163 4.17643 31.43 4.04086 31.5075C3.92724 31.5771 3.79979 31.621 3.66743 31.6361C3.53507 31.6512 3.401 31.6372 3.27461 31.5951C3.14823 31.553 3.03258 31.4837 2.93577 31.3922C2.83896 31.3007 2.76333 31.1891 2.71417 31.0653C2.63456 30.8716 2.5914 30.6649 2.58686 30.4555L3.04919 30.3215C3.05516 30.4595 3.07536 30.5965 3.1095 30.7303C3.13683 30.8507 3.1919 30.9631 3.27031 31.0586C3.31018 31.0994 3.35829 31.1313 3.41143 31.1521C3.46458 31.1729 3.52154 31.1821 3.57853 31.1792C3.63558 31.1826 3.6927 31.1736 3.74592 31.1528C3.79914 31.132 3.8472 31.0998 3.88675 31.0586C3.96563 30.9578 4.00388 30.8311 3.99396 30.7035C4.00069 30.5501 3.96099 30.3983 3.88005 30.2679C3.79512 30.1452 3.69618 30.0327 3.58523 29.9329L2.95539 29.3366C2.84025 29.2306 2.74693 29.1031 2.68067 28.9613C2.61744 28.7992 2.58781 28.626 2.59356 28.4521C2.59356 28.1573 2.67397 27.9295 2.82808 27.7687C2.91334 27.6869 3.01434 27.6234 3.12492 27.582C3.2355 27.5405 3.35335 27.5219 3.47132 27.5274C3.60406 27.5233 3.73626 27.5461 3.85995 27.5944C3.96903 27.6303 4.06631 27.6952 4.14137 27.7821C4.22142 27.8794 4.28275 27.9907 4.32228 28.1104C4.37101 28.2581 4.40249 28.411 4.41609 28.566L3.97386 28.6933C3.96782 28.5712 3.94986 28.4501 3.92025 28.3315C3.90029 28.229 3.84874 28.1352 3.77284 28.0635C3.73327 28.0269 3.68682 27.9987 3.6362 27.9802C3.58559 27.9618 3.53182 27.9537 3.47802 27.9563C3.42166 27.9539 3.36539 27.9627 3.31247 27.9823C3.25956 28.0018 3.21106 28.0317 3.1698 28.0702C3.0961 28.1439 3.06259 28.2511 3.06259 28.3985C3.06045 28.5015 3.07866 28.604 3.1162 28.7C3.16353 28.7912 3.22711 28.8729 3.30381 28.9412L3.94035 29.5376C4.08658 29.6783 4.21283 29.8383 4.31558 30.0133C4.42743 30.2112 4.48304 30.436 4.47639 30.6633C4.47909 30.8417 4.44008 31.0184 4.36248 31.1792ZM6.28552 31.5745L6.1113 30.5627H5.34745L5.16654 31.5745H4.67741L5.47476 27.5609H5.97729L6.78135 31.5745H6.28552ZM8.65078 31.5745H7.16328V27.5609H7.68591V31.1725H8.64408V31.5745H8.65078ZM10.4733 31.5745H9.0059V27.5609H10.4599V27.9764H9.52854V29.3031H10.2857V29.6984H9.52854V31.1725H10.4733V31.5745Z" fill="#EF5E4E"/>
<path d="M4.3088 30.0134C4.42065 30.2114 4.47626 30.4361 4.46961 30.6634C4.47306 30.8419 4.43402 31.0188 4.3557 31.1793C4.281 31.3164 4.16965 31.4301 4.03408 31.5076C3.92046 31.5772 3.79301 31.6211 3.66065 31.6362C3.52828 31.6513 3.39422 31.6374 3.26783 31.5952C3.14144 31.5531 3.02579 31.4838 2.92898 31.3923C2.83217 31.3008 2.75654 31.1892 2.70739 31.0654C2.62777 30.8717 2.58461 30.665 2.58008 30.4557L3.04241 30.3216C3.04837 30.4596 3.06858 30.5966 3.10271 30.7304C3.13005 30.8508 3.18511 30.9633 3.26353 31.0587C3.3034 31.0995 3.3515 31.1314 3.40465 31.1522C3.45779 31.173 3.51475 31.1822 3.57175 31.1793C3.6288 31.1828 3.68591 31.1738 3.73914 31.1529C3.79236 31.1321 3.84041 31.1 3.87997 31.0587C3.95884 30.9579 3.99709 30.8312 3.98717 30.7036C3.9939 30.5502 3.9542 30.3984 3.87327 30.268C3.78833 30.1453 3.68939 30.0329 3.57845 29.933L2.9486 29.3367C2.83347 29.2307 2.74015 29.1032 2.67388 28.9615C2.61066 28.7994 2.58103 28.6261 2.58678 28.4522C2.58678 28.1574 2.66718 27.9296 2.82129 27.7688C2.90656 27.6871 3.00755 27.6235 3.11813 27.5821C3.22871 27.5406 3.34657 27.5221 3.46454 27.5276C3.59728 27.5234 3.72947 27.5462 3.85317 27.5946C3.96225 27.6304 4.05953 27.6953 4.13459 27.7822C4.21463 27.8795 4.27597 27.9908 4.3155 28.1105C4.36422 28.2582 4.3957 28.4111 4.4093 28.5661L3.96707 28.6934C3.96103 28.5714 3.94308 28.4502 3.91347 28.3316C3.8935 28.2291 3.84196 28.1354 3.76606 28.0636C3.72648 28.0271 3.68004 27.9988 3.62942 27.9804C3.57881 27.962 3.52504 27.9538 3.47124 27.9564C3.41488 27.954 3.3586 27.9628 3.30569 27.9824C3.25277 28.0019 3.20428 28.0318 3.16302 28.0703C3.08931 28.144 3.05581 28.2512 3.05581 28.3986C3.05367 28.5017 3.07188 28.6041 3.10941 28.7001C3.15675 28.7913 3.22033 28.873 3.29703 28.9414L3.93357 29.5377C4.08134 29.677 4.20778 29.8373 4.3088 30.0134Z" fill="#EF5E4E"/>
<path d="M5.97714 27.561H5.4746L4.67725 31.5746H5.16638L5.34729 30.5628H6.11114L6.28536 31.5746H6.78119L5.97714 27.561ZM5.4143 30.1608L5.72252 28.3517L6.03744 30.1608H5.4143Z" fill="#EF5E4E"/>
<path d="M7.68559 31.1726H8.64375V31.5746H7.15625V27.561H7.68559V31.1726Z" fill="#EF5E4E"/>
<path d="M9.52825 31.1726H10.475V31.5746H9.00562V27.561H10.4596V27.9765H9.52825V29.3032H10.2854V29.6985H9.52825V31.1726Z" fill="#EF5E4E"/>
<path d="M10.0845 23.0247V25.812C10.0847 25.8493 10.0996 25.885 10.1259 25.9114C10.1523 25.9377 10.188 25.9526 10.2252 25.9528C10.2438 25.9532 10.2623 25.9499 10.2796 25.943C10.2969 25.9361 10.3126 25.9257 10.3257 25.9126C10.3389 25.8994 10.3492 25.8837 10.3562 25.8664C10.3631 25.8492 10.3664 25.8307 10.3659 25.812V23.0046C10.3615 22.9706 10.3446 22.9396 10.3187 22.9173C10.2927 22.895 10.2594 22.8832 10.2252 22.8839C10.1913 22.8843 10.1586 22.8966 10.1329 22.9186C10.1072 22.9407 10.09 22.9711 10.0845 23.0046V23.0247Z" fill="#CCCCCC"/>
<path d="M2.68709 23.0247V25.8322C2.68709 25.8506 2.69073 25.8689 2.6978 25.886C2.70487 25.9031 2.71523 25.9186 2.7283 25.9316C2.74137 25.9447 2.75688 25.9551 2.77395 25.9621C2.79102 25.9692 2.80932 25.9729 2.8278 25.9729C2.84627 25.9729 2.86457 25.9692 2.88164 25.9621C2.89871 25.9551 2.91423 25.9447 2.92729 25.9316C2.94036 25.9186 2.95072 25.9031 2.9578 25.886C2.96487 25.8689 2.96851 25.8506 2.96851 25.8322V23.0046C2.96405 22.9706 2.94722 22.9396 2.92125 22.9173C2.89528 22.895 2.86199 22.8832 2.8278 22.8839C2.79419 22.8853 2.76202 22.8979 2.73648 22.9198C2.71095 22.9417 2.69355 22.9716 2.68709 23.0046V23.0247Z" fill="#CCCCCC"/>
<path d="M6.04415 30.1608H5.41431L5.72253 28.3517L6.04415 30.1608Z" fill="#EF5E4E"/>
<rect x="2.09497" y="26.8374" width="8.74117" height="5.41808" fill="#EF5E4E"/>
<path d="M2.80712 29.3387H2.97643C3.14236 29.3387 3.26483 29.311 3.34385 29.2557C3.42286 29.2004 3.46237 29.1135 3.46237 28.995C3.46237 28.8776 3.42173 28.794 3.34046 28.7444C3.26032 28.6947 3.13559 28.6699 2.96628 28.6699H2.80712V29.3387ZM2.80712 29.7654V30.7152H2.28224V28.2398H3.00352C3.3399 28.2398 3.58879 28.3013 3.7502 28.4244C3.91162 28.5463 3.99232 28.732 3.99232 28.9814C3.99232 29.127 3.95225 29.2568 3.87211 29.3708C3.79197 29.4837 3.67853 29.5723 3.53179 29.6367C3.90428 30.1932 4.14696 30.5527 4.25984 30.7152H3.6774L3.08649 29.7654H2.80712ZM5.99701 30.7152H4.57138V28.2398H5.99701V28.6699H5.09626V29.2134H5.93437V29.6434H5.09626V30.2818H5.99701V30.7152ZM8.71113 30.7152H8.04403L6.96719 28.8426H6.95195C6.9734 29.1733 6.98412 29.4092 6.98412 29.5503V30.7152H6.51512V28.2398H7.17714L8.25229 30.0938H8.26414C8.24721 29.7721 8.23874 29.5447 8.23874 29.4115V28.2398H8.71113V30.7152ZM10.2908 30.7152H9.76597V28.6767H9.09378V28.2398H10.963V28.6767H10.2908V30.7152Z" fill="white"/>
</g>
<defs>
<clipPath id="clip0_1356_58579">
<rect width="14.5936" height="18.634" fill="white" transform="translate(27.4492 21.3763)"/>
</clipPath>
<clipPath id="clip1_1356_58579">
<rect width="14.5936" height="18.634" fill="white" transform="matrix(-1 0 0 1 14.5935 21.3763)"/>
</clipPath>
</defs>
</svg>
