<svg width="38" height="40" viewBox="0 0 38 40" fill="none" xmlns="http://www.w3.org/2000/svg">
<mask id="mask0_1356_58361" style="mask-type:alpha" maskUnits="userSpaceOnUse" x="2" y="0" width="33" height="35">
<rect width="31.9149" height="34.8936" transform="matrix(1 0 0 -1 2.9624 34.8937)" fill="black"/>
</mask>
<g mask="url(#mask0_1356_58361)">
<path d="M18.5513 3.91426L24.0974 2.97961V39.9541H18.5513V3.91426Z" fill="#2E7992"/>
<rect x="24.1003" y="2.97974" width="5.54617" height="34.2014" fill="#EFF9FF"/>
<path fill-rule="evenodd" clip-rule="evenodd" d="M29.6433 4.83044H24.0972V6.67917H29.6433V4.83044ZM29.6434 30.7105H24.0972V32.5592H29.6434V30.7105ZM24.0972 27.013H29.6434V28.8618H24.0972V27.013ZM29.6434 23.316H24.0972V25.1647H29.6434V23.316ZM24.0972 8.52732H29.6434V10.376H24.0972V8.52732ZM29.6434 12.2244H24.0972V14.0731H29.6434V12.2244ZM24.0972 15.9218H29.6434V17.7705H24.0972V15.9218ZM29.6434 19.6189H24.0972V21.4676H29.6434V19.6189Z" fill="#A5D2E7"/>
<path fill-rule="evenodd" clip-rule="evenodd" d="M24.0975 2.97876L18.5367 3.91341V5.78271L24.0975 4.82748V2.97876ZM24.0974 6.67631L18.5512 7.65112L18.5366 9.52042L24.0974 8.52503V6.67631ZM18.5513 36.2536H24.0975V38.1023H18.5513V36.2536ZM24.0974 32.5565L18.5366 33.3561V35.2254L24.0974 34.4053V32.5565ZM18.5366 30.0826L24.0974 28.8595V30.7082L18.5366 31.9519V30.0826ZM24.0974 25.162L18.5366 26.345V28.2143L24.0974 27.0108V25.162ZM18.5366 11.392L24.0974 10.3734V12.2221L18.5366 13.2613V11.392ZM24.0974 14.0703L18.5366 15.1291V16.9984L24.0974 15.9191V14.0703ZM18.5366 18.8668L24.0974 17.7679V19.6166L18.5366 20.7361V18.8668ZM24.0974 21.465L18.5366 22.6077V24.477L24.0974 23.3137V21.465Z" fill="#A5D2E7"/>
<path d="M5.60767 11.3904L11.1538 10.3718V36.2539H5.60767V11.3904Z" fill="#A5D2E7"/>
<rect x="11.1575" y="10.3717" width="9.24361" height="33.277" fill="#EFF9FF"/>
<path fill-rule="evenodd" clip-rule="evenodd" d="M5.60693 14.1958L11.1531 13.1443V15.9174L5.60693 16.7404V14.1958ZM5.60714 35.3273H11.1533V38.1004H5.60714V35.3273ZM11.1533 18.6924L5.60714 19.4874V22.3768L11.1533 21.4655V18.6924ZM5.60714 25.1265L11.1533 24.2357V27.0088L5.60714 27.9277V25.1265ZM11.1533 29.7841L5.60714 30.6398V33.2297L11.1533 32.5572V29.7841Z" fill="#2E7992"/>
<path fill-rule="evenodd" clip-rule="evenodd" d="M20.3972 13.1443H11.1535V15.9174H20.3972V13.1443ZM20.3969 40.8755H11.1533V43.6486H20.3969V40.8755ZM11.1533 18.6924H20.3969V21.4654H11.1533V18.6924ZM20.3969 24.2357H11.1533V27.0088H20.3969V24.2357ZM11.1533 35.3273H20.3969V38.1004H11.1533V35.3273ZM20.3969 29.7841H11.1533V32.5571H20.3969V29.7841Z" fill="#A5D2E7"/>
<path d="M33.7537 6.57605C34.3702 6.57605 34.89 6.9896 35.0513 7.55444H32.4561C32.6173 6.9896 33.1372 6.57605 33.7537 6.57605Z" fill="#EF5E4E"/>
<path d="M27.4273 6.11316C28.3354 6.11316 29.1015 6.72232 29.3388 7.55408H25.5159C25.7535 6.72198 26.5192 6.11316 27.4273 6.11316Z" fill="#EF5E4E"/>
<path d="M33.3597 7.55454C33.0665 6.54017 31.9051 5.78271 30.5165 5.78271C29.1279 5.78271 27.9666 6.54017 27.6733 7.55454H33.3594H33.3597Z" fill="#EF5E4E"/>
<path d="M6.88186 33.9259C7.031 34.0203 7.13186 34.136 7.17562 34.1919C7.17848 34.1879 7.18134 34.1839 7.18432 34.1799C7.25907 34.0767 7.34658 33.9619 7.44637 33.8408C7.38402 33.809 7.23916 33.7274 7.11625 33.5975C6.95458 33.4266 6.89223 33.2369 6.89223 33.2369C6.89223 33.2369 7.09193 33.3243 7.25359 33.4952C7.37245 33.6209 7.43755 33.7567 7.46378 33.8197C7.54699 33.7196 7.63855 33.6152 7.73822 33.5095C7.686 33.4635 7.57155 33.3527 7.49131 33.2013C7.38437 32.9994 7.37877 32.8019 7.37877 32.8019C7.37877 32.8019 7.54663 32.9317 7.65357 33.1336C7.72833 33.2746 7.7536 33.4134 7.76195 33.4843C7.86209 33.3792 7.97022 33.273 8.08611 33.1682C8.04247 33.1158 7.94817 32.9906 7.89488 32.8298C7.82382 32.6158 7.85232 32.42 7.85232 32.42C7.85232 32.42 7.99586 32.571 8.06691 32.785C8.11579 32.9324 8.11758 33.0712 8.11388 33.1433C8.19257 33.0731 8.27459 33.0037 8.3602 32.936C8.34207 32.8724 8.30857 32.7254 8.32753 32.5595C8.35292 32.3376 8.46272 32.1658 8.46272 32.1658C8.46272 32.1658 8.53128 32.3537 8.50576 32.5756C8.49026 32.7104 8.44377 32.8267 8.40955 32.8973C8.47012 32.8504 8.53235 32.8044 8.59625 32.7595C8.64382 32.6954 8.72787 32.5967 8.84662 32.5109C9.04166 32.3701 9.25638 32.3175 9.25638 32.3175C9.25638 32.3175 9.15492 32.4933 8.95988 32.6342C8.84232 32.7191 8.71786 32.7718 8.63726 32.8004C8.5711 32.8468 8.50684 32.8944 8.44425 32.9429C8.52579 32.9386 8.68161 32.9381 8.84769 32.9788C9.09006 33.0382 9.2627 33.1631 9.2627 33.1631C9.2627 33.1631 9.04226 33.1915 8.79988 33.1321C8.6158 33.087 8.47202 33.0042 8.41349 32.9669C8.32729 33.0348 8.24479 33.1044 8.16563 33.1747C8.23943 33.1892 8.40013 33.2281 8.55679 33.3158C8.76948 33.4348 8.89407 33.5985 8.89407 33.5985C8.89407 33.5985 8.67386 33.5692 8.46106 33.4503C8.29939 33.3599 8.18876 33.2437 8.14488 33.193C8.02542 33.3002 7.91419 33.4092 7.81142 33.517C7.88737 33.5259 8.04974 33.5523 8.21296 33.6266C8.43674 33.7286 8.57706 33.8819 8.57706 33.8819C8.57706 33.8819 8.35471 33.8701 8.13105 33.7681C7.96259 33.6914 7.84135 33.5855 7.79175 33.5378C7.69089 33.6445 7.59838 33.7497 7.51432 33.8508C7.59158 33.8575 7.75324 33.8789 7.91777 33.9473C8.14548 34.042 8.292 34.1908 8.292 34.1908C8.292 34.1908 8.0693 34.186 7.84158 34.0914C7.67229 34.0209 7.54783 33.9207 7.49513 33.874C7.39665 33.9934 7.31022 34.1067 7.23654 34.2085C7.23284 34.2136 7.22915 34.2187 7.22557 34.2237C7.27517 34.2319 7.46318 34.2678 7.64582 34.3701C7.85851 34.4891 7.9831 34.6528 7.9831 34.6528C7.9831 34.6528 7.7629 34.6235 7.55009 34.5046C7.36744 34.4023 7.24977 34.2673 7.22021 34.2311C6.91953 34.6501 6.76407 34.9666 6.76252 34.9697L6.70601 34.948C6.70756 34.9449 6.86123 34.6318 7.15809 34.2159C7.08501 34.1976 6.92764 34.1506 6.7773 34.0554C6.5726 33.9258 6.45874 33.7561 6.45874 33.7561C6.45874 33.7561 6.6768 33.7965 6.88138 33.9261L6.88186 33.9259Z" fill="#FDF5F5"/>
<path d="M4.37529 33.2174C4.65026 33.2918 4.86749 33.4261 4.96526 33.4934C4.96712 33.4854 4.96885 33.4773 4.97071 33.4693C5.01755 33.2629 5.07617 33.031 5.14878 32.7821C5.0385 32.7637 4.77752 32.7077 4.51928 32.562C4.17987 32.3704 3.97417 32.0962 3.97417 32.0962C3.97417 32.0962 4.31878 32.1326 4.65832 32.3242C4.90801 32.4651 5.08521 32.6506 5.16155 32.7389C5.22264 32.5328 5.2934 32.3156 5.37518 32.0919C5.27109 32.0449 5.03676 31.9256 4.82808 31.7229C4.54976 31.4523 4.42225 31.1354 4.42225 31.1354C4.42225 31.1354 4.74593 31.2572 5.02437 31.5279C5.2188 31.7169 5.33962 31.9283 5.39476 32.0387C5.47754 31.8157 5.57147 31.5867 5.67742 31.3559C5.58212 31.2941 5.36861 31.141 5.19339 30.9088C4.9603 30.5996 4.88348 30.2674 4.88348 30.2674C4.88348 30.2674 5.18447 30.4363 5.41756 30.7454C5.57816 30.9585 5.66453 31.1823 5.70282 31.3011C5.77531 31.146 5.85338 30.9904 5.9374 30.8354C5.87246 30.742 5.73467 30.5218 5.66217 30.243C5.56527 29.8702 5.6219 29.5342 5.6219 29.5342C5.6219 29.5342 5.83566 29.8024 5.93256 30.1752C5.99142 30.4017 5.99365 30.6145 5.98634 30.7468C6.04657 30.639 6.10964 30.5317 6.17594 30.4253C6.20679 30.2965 6.26987 30.0924 6.39156 29.8909C6.59143 29.5601 6.87335 29.3619 6.87335 29.3619C6.87335 29.3619 6.83134 29.7002 6.63146 30.031C6.51101 30.2302 6.36095 30.3814 6.26045 30.47C6.1918 30.58 6.12662 30.691 6.06454 30.8026C6.18114 30.7525 6.40841 30.6696 6.6757 30.6481C7.06579 30.6167 7.39355 30.7279 7.39355 30.7279C7.39355 30.7279 7.08872 30.89 6.6985 30.9214C6.40221 30.9453 6.14211 30.887 6.03405 30.8575C5.94917 31.0128 5.87048 31.1689 5.79737 31.3246C5.91398 31.3091 6.17234 31.2874 6.45426 31.3469C6.83704 31.4275 7.11808 31.627 7.11808 31.627C7.11808 31.627 6.77855 31.6957 6.39577 31.6149C6.10493 31.5537 5.87308 31.4238 5.77828 31.365C5.66862 31.6015 5.57184 31.8366 5.48671 32.0653C5.60307 32.0396 5.85623 31.9969 6.13963 32.0314C6.52811 32.0785 6.82601 32.2528 6.82601 32.2528C6.82601 32.2528 6.49391 32.3507 6.10543 32.3035C5.81286 32.2679 5.57171 32.1603 5.47047 32.1093C5.38757 32.3352 5.31595 32.5544 5.25424 32.7623C5.37109 32.7324 5.62041 32.6819 5.90208 32.706C6.29205 32.7394 6.59614 32.9029 6.59614 32.9029C6.59614 32.9029 6.26788 33.0126 5.87791 32.9792C5.58795 32.9543 5.34556 32.8576 5.24036 32.8095C5.16873 33.0549 5.11086 33.2837 5.06464 33.4876C5.06229 33.4978 5.06006 33.5079 5.05783 33.518C5.13527 33.5051 5.43181 33.4643 5.76032 33.5336C6.1431 33.6142 6.42414 33.8137 6.42414 33.8137C6.42414 33.8137 6.08461 33.8824 5.70183 33.8017C5.3732 33.7324 5.11966 33.5756 5.0546 33.5326C4.86836 34.3694 4.83242 34.9639 4.83217 34.9698L4.73638 34.9645C4.73676 34.9585 4.77207 34.3706 4.95473 33.5407C4.83688 33.5496 4.57851 33.5564 4.30131 33.4814C3.92385 33.3793 3.65495 33.1643 3.65495 33.1643C3.65495 33.1643 3.99796 33.1149 4.37541 33.2169L4.37529 33.2174Z" fill="#D2412B"/>
<path d="M7.89332 34.4038C8.25091 34.4038 8.55245 34.6437 8.646 34.9713H7.14064C7.23418 34.6437 7.53572 34.4038 7.89332 34.4038Z" fill="#FADCDB"/>
<path d="M4.22548 34.1357C4.7523 34.1357 5.1965 34.489 5.33423 34.9716H3.11674C3.25446 34.4891 3.69867 34.1357 4.22548 34.1357Z" fill="#FADCDB"/>
<path d="M7.66748 34.9718C7.49744 34.3835 6.82373 33.9441 6.0184 33.9441C5.21308 33.9441 4.53937 34.3835 4.36933 34.9718H7.66748Z" fill="#FADCDB"/>
<path d="M27.6304 29.071C27.7976 29.0123 27.9807 29.1001 28.0394 29.267C28.0657 29.3419 28.0625 29.4197 28.0362 29.4886C28.3124 29.7466 28.5684 30.0216 28.8037 30.3022C28.751 30.0042 28.6951 29.557 28.7275 29.1135C28.6469 29.0795 28.5797 29.0135 28.5485 28.9244C28.4898 28.7571 28.5777 28.574 28.7446 28.5153C28.9118 28.4566 29.0949 28.5445 29.1536 28.7113C29.2124 28.8786 29.1245 29.0617 28.9576 29.1204C28.9382 29.1273 28.9187 29.1317 28.8993 29.135C28.8531 29.7988 29.0155 30.4902 29.0418 30.5967C29.5416 31.237 29.9353 31.8834 30.2152 32.3982C30.7186 33.3233 30.9762 34.0353 30.9786 34.0426L30.8158 34.1009C30.8134 34.094 30.5603 33.3941 30.0629 32.4808C29.9134 32.2062 29.7312 31.8936 29.5177 31.5643C29.3962 31.5371 28.9365 31.4513 28.3209 31.5432C28.3185 31.6736 28.2371 31.7943 28.1067 31.8401C27.9394 31.8988 27.7563 31.8109 27.6976 31.6441C27.6389 31.4768 27.7267 31.2937 27.8936 31.235C28.041 31.1832 28.2006 31.2451 28.2768 31.3751C28.7644 31.2998 29.1585 31.3306 29.3849 31.3642C28.9928 30.7838 28.5064 30.1678 27.9313 29.6279C27.905 29.6481 27.8754 29.6643 27.8426 29.6761C27.6753 29.7348 27.4922 29.6469 27.4335 29.4801C27.3748 29.3128 27.4627 29.1297 27.6295 29.071H27.6304Z" fill="#EF5E4E"/>
<path d="M31.5379 31.3417C31.4338 31.2736 31.0337 31.031 30.4254 30.9006C30.3772 31.0217 30.2581 31.1063 30.1204 31.1031C29.943 31.0995 29.8024 30.9524 29.8065 30.7755C29.8101 30.5981 29.9572 30.4575 30.1341 30.4616C30.2901 30.4648 30.4177 30.5794 30.4432 30.7277C30.9264 30.8289 31.284 30.9962 31.4841 31.1076C31.3212 30.4263 31.0831 29.6783 30.7352 28.9707C30.7036 28.9804 30.67 28.9853 30.6351 28.9845C30.4578 28.9808 30.3172 28.8338 30.3213 28.6568C30.3249 28.4794 30.4719 28.3389 30.6489 28.3429C30.8263 28.3466 30.9669 28.4936 30.9628 28.6706C30.9612 28.75 30.9304 28.8216 30.8818 28.8767C31.0495 29.2153 31.192 29.5628 31.3136 29.9083C31.369 29.611 31.4744 29.1724 31.6611 28.769C31.5975 28.709 31.5582 28.6232 31.5602 28.5288C31.5639 28.3514 31.7109 28.2109 31.8879 28.2149C32.0653 28.2186 32.2058 28.3656 32.2018 28.5426C32.1981 28.72 32.0511 28.8605 31.8741 28.8565C31.8539 28.8561 31.834 28.8536 31.8146 28.8496C31.5375 29.4547 31.446 30.1586 31.433 30.268C31.6752 31.0432 31.8158 31.7872 31.8968 32.3676C32.0422 33.4109 32.0325 34.1679 32.0325 34.1756L31.8595 34.1727C31.8595 34.1655 31.8692 33.4214 31.7255 32.3915C31.6821 32.0816 31.6218 31.7248 31.5379 31.3417Z" fill="#EF5E4E"/>
<path d="M31.1597 33.8226C32.0499 33.8226 32.8008 34.4196 33.0333 35.2353H29.2856C29.5185 34.4196 30.269 33.8226 31.1593 33.8226H31.1597Z" fill="#EF5E4E"/>
<path d="M33.3529 34.2598C33.9673 34.2598 34.4853 34.6717 34.6461 35.2346H32.0601C32.2209 34.6717 32.7389 34.2598 33.3533 34.2598H33.3529Z" fill="#EF5E4E"/>
</g>
<path d="M35.3385 34.8937C36.7289 34.8937 37.592 36.0832 36.4307 36.8478C35.4898 37.4673 34.1107 38.0303 32.372 38.5044C30.6334 38.9786 28.5693 39.3547 26.2977 39.6114C24.0261 39.868 21.5914 40.0001 19.1326 40.0001C16.6738 40.0001 14.2391 39.868 11.9674 39.6114C9.69582 39.3547 7.63176 38.9786 5.89314 38.5044C4.15451 38.0303 2.77535 37.4673 1.83441 36.8478C0.673166 36.0832 1.53629 34.8937 2.92664 34.8937L19.1326 34.8937H35.3385Z" fill="#F6BFBB"/>
</svg>
