<svg width="96" height="96" viewBox="0 0 96 96" fill="none" xmlns="http://www.w3.org/2000/svg">
<path d="M30.5744 94.0259H10.8577C9.88594 94.0259 5.82269 94.3349 6.73479 95.0129C7.58012 95.6424 13.4008 95.9999 14.3726 95.9999H32.1386C35.0923 95.9999 37.7106 95.5555 36.7446 95.0129C35.7785 94.4702 33.788 94.0259 30.5744 94.0259Z" fill="black" fill-opacity="0.15"/>
<g opacity="0.39">
<path fill-rule="evenodd" clip-rule="evenodd" d="M95.5136 89.1971H63.7043V61.4768L78.1572 50.9932L95.0535 61.0642L95.5136 89.1971Z" fill="#CCCCCC"/>
<path fill-rule="evenodd" clip-rule="evenodd" d="M57.9048 89.2248H18.6568V38.4137L38.2809 26.0669L57.9048 38.4137V89.2248Z" fill="#CCCCCC"/>
<path fill-rule="evenodd" clip-rule="evenodd" d="M12.8306 39.729L23.5089 22.9312H38.2815L63.5613 39.729H12.8306Z" fill="#B0B0B0"/>
<path fill-rule="evenodd" clip-rule="evenodd" d="M0 39.729L23.5085 22.9312V26.0662L43.1326 39.729H0Z" fill="#B0B0B0"/>
<path fill-rule="evenodd" clip-rule="evenodd" d="M60.1699 61.4181L67.3261 49.4229H76.3271L96.0003 60.8982L60.1699 61.4181Z" fill="#B0B0B0"/>
<path fill-rule="evenodd" clip-rule="evenodd" d="M50.6895 61.4181L67.3257 49.4229L67.3508 50.9935L80.6403 61.4181H50.6895Z" fill="#B0B0B0"/>
<path fill-rule="evenodd" clip-rule="evenodd" d="M43.1329 89.2248H3.88477V39.7297L23.5089 26.0669L43.1329 39.7297V89.2248Z" fill="#E3E3E3"/>
<path fill-rule="evenodd" clip-rule="evenodd" d="M9.43887 79.0716H36.5677V62.209H9.43887V79.0716Z" fill="#F7F7F7"/>
<path fill-rule="evenodd" clip-rule="evenodd" d="M9.86065 78.6483H36.1464V62.6323H9.86065V78.6483ZM36.568 79.4949H9.43911C9.20621 79.4949 9.01758 79.3052 9.01758 79.0716V62.209C9.01758 61.9751 9.20621 61.7856 9.43911 61.7856H36.568C36.8007 61.7856 36.9895 61.9751 36.9895 62.209V79.0716C36.9895 79.3052 36.8007 79.4949 36.568 79.4949Z" fill="white"/>
<path fill-rule="evenodd" clip-rule="evenodd" d="M9.43887 56.9512H36.2004V41.0684H9.43887V56.9512Z" fill="#F7F7F7"/>
<path fill-rule="evenodd" clip-rule="evenodd" d="M9.86065 56.5284H35.7791V41.4921H9.86065V56.5284ZM36.2006 57.375H9.43911C9.20621 57.375 9.01758 57.1853 9.01758 56.9517V41.0688C9.01758 40.8351 9.20621 40.6455 9.43911 40.6455H36.2006C36.4335 40.6455 36.6221 40.8351 36.6221 41.0688V56.9517C36.6221 57.1853 36.4335 57.375 36.2006 57.375Z" fill="#F7F7F7"/>
<path fill-rule="evenodd" clip-rule="evenodd" d="M84.707 89.1971H52.8979V61.4768L67.3508 50.9932L84.2474 61.0642L84.707 89.1971Z" fill="#E3E3E3"/>
<path fill-rule="evenodd" clip-rule="evenodd" d="M71.8008 85.6057H82.3012V71.6533H71.8008V85.6057Z" fill="white"/>
<path fill-rule="evenodd" clip-rule="evenodd" d="M72.8895 85.6055H81.384V72.4897H72.8895V85.6055Z" fill="#F7F7F7"/>
<path fill-rule="evenodd" clip-rule="evenodd" d="M57.6703 85.8691H67.4168V62.3081H57.6703V85.8691Z" fill="#F7F7F7"/>
<path fill-rule="evenodd" clip-rule="evenodd" d="M57.9865 85.5517H67.1007V62.6257H57.9865V85.5517ZM67.4168 86.1867H57.6703C57.4958 86.1867 57.3542 86.0444 57.3542 85.8692V62.3082C57.3542 62.133 57.4958 61.9907 57.6703 61.9907H67.4168C67.5913 61.9907 67.733 62.133 67.733 62.3082V85.8692C67.733 86.0444 67.5913 86.1867 67.4168 86.1867Z" fill="white"/>
<path fill-rule="evenodd" clip-rule="evenodd" d="M81.3534 85.5181H82.301V89.2241H79.7836V85.7947L81.3534 85.5181Z" fill="#E3E3E3"/>
<path fill-rule="evenodd" clip-rule="evenodd" d="M71.3968 86.7535H81.3536V85.5181H71.3968V86.7535Z" fill="#F7F7F7"/>
<path fill-rule="evenodd" clip-rule="evenodd" d="M70.6131 87.9886H80.57V86.7534H70.6131V87.9886Z" fill="#F7F7F7"/>
<path fill-rule="evenodd" clip-rule="evenodd" d="M69.8268 89.2242H79.7836V87.9888H69.8268V89.2242Z" fill="#F7F7F7"/>
</g>
<path d="M85.9047 3.28779C85.9288 2.98412 85.8893 2.67876 85.7888 2.39121C85.6882 2.10366 85.5288 1.84024 85.3207 1.61779C85.1125 1.39534 84.8603 1.21874 84.5801 1.09928C84.2999 0.979822 83.9978 0.920126 83.6932 0.924006H47.3356C46.6962 0.93309 46.0831 1.1804 45.6163 1.61756C45.1495 2.05472 44.8626 2.65029 44.8116 3.28779L43.9764 15.8815L38.742 54.5976C38.6909 54.8923 38.7059 55.1948 38.786 55.483C38.8661 55.7712 39.0091 56.0381 39.2049 56.2642C39.4007 56.4904 39.6443 56.6703 39.918 56.7909C40.1918 56.9114 40.4889 56.9697 40.788 56.9614H77.1482C77.8018 56.944 78.4286 56.6979 78.9196 56.266C79.4105 55.8341 79.7344 55.2437 79.835 54.5976L85.0695 15.8815L85.9047 3.28779Z" fill="#2E7992"/>
<path opacity="0.2" d="M85.9047 3.28779C85.9288 2.98412 85.8893 2.67876 85.7888 2.39121C85.6882 2.10366 85.5288 1.84024 85.3207 1.61779C85.1125 1.39534 84.8603 1.21874 84.5801 1.09928C84.2999 0.979822 83.9978 0.920126 83.6932 0.924006H47.3356C46.6962 0.93309 46.0831 1.1804 45.6163 1.61756C45.1495 2.05472 44.8626 2.65029 44.8116 3.28779L43.9764 15.8815L38.742 54.5976C38.6909 54.8923 38.7059 55.1948 38.786 55.483C38.8661 55.7712 39.0091 56.0381 39.2049 56.2642C39.4007 56.4904 39.6443 56.6703 39.918 56.7909C40.1918 56.9114 40.4889 56.9697 40.788 56.9614H77.1482C77.8018 56.944 78.4286 56.6979 78.9196 56.266C79.4105 55.8341 79.7344 55.2437 79.835 54.5976L85.0695 15.8815L85.9047 3.28779Z" fill="#333333"/>
<path d="M75.8533 56.9644H39.4931C39.1942 56.9722 38.8973 56.9136 38.6238 56.7929C38.3502 56.6722 38.1069 56.4923 37.9112 56.2662C37.7155 56.0402 37.5724 55.7735 37.4922 55.4855C37.4119 55.1975 37.3965 54.8953 37.4471 54.6006L42.6816 15.8818H83.7746L78.5401 54.5979C78.4402 55.2445 78.1165 55.8355 77.6255 56.268C77.1345 56.7004 76.5073 56.9468 75.8533 56.9644Z" fill="#2E7992"/>
<path d="M52.7407 0H47.325V0.262642H52.7407V0Z" fill="#2E7992"/>
<path d="M44.764 0.54367L44.6537 0.304666C45.0886 0.104294 45.5617 0.000361559 46.0405 0V0.262642C45.5997 0.262958 45.1642 0.358836 44.764 0.54367Z" fill="#2E7992"/>
<path d="M82.4009 0.911294H46.0407C45.4012 0.920379 44.7881 1.16768 44.3213 1.60484C43.8545 2.042 43.5676 2.63758 43.5167 3.27508L42.6815 15.8819H83.7745L84.6071 3.28821C84.6335 2.98385 84.5959 2.67734 84.4967 2.3884C84.3974 2.09946 84.2388 1.8345 84.031 1.61059C83.8232 1.38667 83.5707 1.20877 83.29 1.08833C83.0092 0.967888 82.7063 0.907582 82.4009 0.911294Z" fill="#2E7992"/>
<path opacity="0.9" d="M44.7119 12.7985L45.2949 3.99212C45.3217 3.65641 45.4728 3.34276 45.7185 3.11252C45.9643 2.88228 46.2872 2.75202 46.6239 2.7472H81.5737C81.7342 2.74482 81.8934 2.77605 82.0411 2.83886C82.1887 2.90168 82.3216 2.99471 82.4312 3.11195C82.5408 3.2292 82.6246 3.36808 82.6773 3.51967C82.73 3.67125 82.7504 3.83218 82.7372 3.99212L82.1542 12.7985C82.1268 13.134 81.9756 13.4473 81.7299 13.6774C81.4843 13.9076 81.1618 14.038 80.8252 14.0434H45.8754C45.715 14.0454 45.556 14.0139 45.4085 13.951C45.261 13.888 45.1283 13.795 45.0188 13.6778C44.9093 13.5607 44.8255 13.4219 44.7726 13.2705C44.7198 13.1191 44.6991 12.9584 44.7119 12.7985Z" fill="white"/>
<g opacity="0.4">
<path d="M79.0547 4.18922L78.6581 4.55955C78.6484 4.56899 78.6369 4.57641 78.6243 4.58137C78.6116 4.58633 78.5982 4.58873 78.5846 4.58844H76.4835C76.4686 4.58879 76.4539 4.58592 76.4403 4.58002C76.4267 4.57413 76.4145 4.56535 76.4047 4.55429L76.0632 4.1866C76.0489 4.17125 76.0393 4.15206 76.0358 4.13136C76.0322 4.11067 76.0348 4.08938 76.0431 4.07012C76.0515 4.05086 76.0653 4.03447 76.0829 4.02296C76.1005 4.01146 76.121 4.00535 76.142 4.00537H78.9864C79.0077 4.00561 79.0283 4.01229 79.0457 4.02451C79.0631 4.03673 79.0763 4.05393 79.0837 4.07384C79.0911 4.09375 79.0923 4.11544 79.0871 4.13603C79.082 4.15663 79.0707 4.17518 79.0547 4.18922Z" fill="#2E7992"/>
<path d="M78.498 11.0152H75.6536C75.632 11.0153 75.6109 11.0088 75.593 10.9966C75.5751 10.9844 75.5613 10.9672 75.5533 10.9471C75.5454 10.9269 75.5437 10.9049 75.5485 10.8838C75.5532 10.8627 75.5643 10.8435 75.5801 10.8288L75.9741 10.4611C75.9943 10.4429 76.0204 10.4326 76.0476 10.4322H78.1487C78.1638 10.4318 78.1788 10.4349 78.1925 10.4412C78.2062 10.4476 78.2181 10.4571 78.2275 10.4689L78.5716 10.8366C78.5849 10.8517 78.5937 10.8702 78.597 10.89C78.6003 10.9099 78.598 10.9302 78.5903 10.9488C78.5827 10.9674 78.57 10.9834 78.5537 10.9952C78.5374 11.0069 78.5181 11.0139 78.498 11.0152Z" fill="#2E7992"/>
<path d="M78.7737 7.58237L78.5715 7.7741C78.5512 7.79227 78.5251 7.80253 78.4979 7.80299H76.0317C76.0171 7.80267 76.0027 7.79939 75.9894 7.79333C75.9761 7.78727 75.9642 7.77858 75.9544 7.76777C75.9446 7.75695 75.937 7.74425 75.9323 7.73044C75.9275 7.71663 75.9256 7.702 75.9267 7.68742L75.9529 7.3171C75.9549 7.28993 75.9672 7.26452 75.9871 7.246C76.0071 7.22748 76.0334 7.21722 76.0606 7.21729H78.5347C78.5495 7.21711 78.5642 7.22007 78.5778 7.22595C78.5913 7.23183 78.6035 7.24052 78.6135 7.25144L78.7816 7.43266C78.791 7.44295 78.7983 7.45501 78.803 7.46815C78.8078 7.48128 78.8098 7.49523 78.8091 7.50917C78.8083 7.5231 78.8048 7.53675 78.7988 7.54932C78.7927 7.56189 78.7842 7.57312 78.7737 7.58237Z" fill="#2E7992"/>
<path d="M79.11 7.78465L78.9025 10.6291C78.9006 10.6498 78.8927 10.6696 78.8798 10.6859C78.8669 10.7023 78.8495 10.7145 78.8298 10.7212C78.81 10.7279 78.7888 10.7287 78.7686 10.7235C78.7484 10.7183 78.7301 10.7074 78.716 10.6921L78.3772 10.3244C78.367 10.3136 78.3592 10.3007 78.3542 10.2867C78.3493 10.2727 78.3473 10.2578 78.3483 10.243L78.5033 8.12871C78.5037 8.11516 78.507 8.10186 78.5129 8.08964C78.5187 8.07743 78.5271 8.06658 78.5374 8.0578L78.9314 7.6901C78.9478 7.6754 78.9683 7.66608 78.9902 7.6634C79.012 7.66072 79.0342 7.66481 79.0537 7.67511C79.0731 7.68542 79.089 7.70144 79.099 7.72103C79.1091 7.74062 79.1129 7.76282 79.11 7.78465Z" fill="#2E7992"/>
<path d="M79.3541 4.40945L79.1466 7.26175C79.1451 7.28272 79.1376 7.3028 79.1248 7.31953C79.1121 7.33625 79.0947 7.34888 79.0749 7.35586C79.0551 7.36284 79.0336 7.36387 79.0132 7.35881C78.9928 7.35376 78.9744 7.34284 78.9601 7.32741L78.6187 6.95709C78.6093 6.94634 78.6021 6.93385 78.5976 6.92032C78.5931 6.9068 78.5913 6.89251 78.5924 6.87829L78.7447 4.76402C78.7472 4.73705 78.7594 4.71188 78.7789 4.69311L79.1728 4.32278C79.1887 4.30787 79.2086 4.2981 79.2301 4.29475C79.2516 4.29139 79.2736 4.29462 79.2932 4.304C79.3128 4.31338 79.3291 4.32847 79.3399 4.34729C79.3508 4.36611 79.3557 4.38778 79.3541 4.40945Z" fill="#2E7992"/>
</g>
<path opacity="0.4" d="M74.5007 12.2044C74.5091 12.1064 74.5534 12.0149 74.6252 11.9475C74.6969 11.8801 74.791 11.8416 74.8894 11.8394H79.3543C79.4065 11.8389 79.4582 11.8492 79.5062 11.8697C79.5542 11.8901 79.5975 11.9203 79.6332 11.9583C79.669 11.9963 79.6965 12.0413 79.7141 12.0904C79.7316 12.1395 79.7388 12.1918 79.7352 12.2438C79.7267 12.3423 79.682 12.4342 79.6097 12.5017C79.5374 12.5691 79.4427 12.6073 79.3438 12.6089H74.8894C74.8364 12.6114 74.7834 12.6024 74.7341 12.5828C74.6847 12.5631 74.6402 12.5331 74.6034 12.4948C74.5666 12.4565 74.5384 12.4108 74.5207 12.3607C74.503 12.3106 74.4962 12.2574 74.5007 12.2044Z" fill="#2E7992"/>
<path opacity="0.4" d="M68.9167 12.2044C68.9251 12.1064 68.9694 12.0149 69.0411 11.9475C69.1129 11.8801 69.207 11.8416 69.3054 11.8394H73.7703C73.8225 11.8389 73.8742 11.8492 73.9222 11.8697C73.9702 11.8901 74.0134 11.9203 74.0492 11.9583C74.085 11.9963 74.1125 12.0413 74.13 12.0904C74.1476 12.1395 74.1548 12.1918 74.1511 12.2438C74.1427 12.3423 74.098 12.4342 74.0257 12.5017C73.9534 12.5691 73.8587 12.6073 73.7598 12.6089H69.2949C69.2427 12.6098 69.1909 12.5998 69.1428 12.5794C69.0948 12.5591 69.0515 12.5289 69.0159 12.4907C68.9802 12.4526 68.953 12.4074 68.9359 12.3581C68.9188 12.3088 68.9123 12.2565 68.9167 12.2044Z" fill="#2E7992"/>
<path opacity="0.4" d="M63.333 12.2044C63.3414 12.1064 63.3857 12.0149 63.4574 11.9475C63.5292 11.8801 63.6233 11.8416 63.7217 11.8394H68.1866C68.2386 11.8392 68.29 11.8498 68.3377 11.8704C68.3854 11.8911 68.4283 11.9213 68.4638 11.9592C68.4992 11.9972 68.5265 12.0421 68.5439 12.091C68.5613 12.14 68.5684 12.192 68.5648 12.2438C68.5569 12.3426 68.5124 12.4348 68.44 12.5023C68.3676 12.5699 68.2725 12.6079 68.1735 12.6089H63.7085C63.6566 12.6094 63.6051 12.5991 63.5573 12.5786C63.5096 12.5581 63.4667 12.5278 63.4313 12.4897C63.3959 12.4517 63.3689 12.4066 63.352 12.3575C63.3351 12.3083 63.3286 12.2562 63.333 12.2044Z" fill="#2E7992"/>
<path opacity="0.4" d="M57.7493 12.2044C57.7577 12.1064 57.802 12.0149 57.8737 11.9475C57.9455 11.8801 58.0396 11.8416 58.138 11.8394H62.6029C62.6549 11.8392 62.7063 11.8498 62.754 11.8704C62.8017 11.8911 62.8446 11.9213 62.8801 11.9592C62.9156 11.9972 62.9429 12.0421 62.9602 12.091C62.9776 12.14 62.9847 12.192 62.9811 12.2438C62.9733 12.3426 62.9287 12.4348 62.8563 12.5023C62.7839 12.5699 62.6888 12.6079 62.5898 12.6089H58.1249C58.0729 12.6094 58.0214 12.5991 57.9736 12.5786C57.9259 12.5581 57.883 12.5278 57.8476 12.4897C57.8122 12.4517 57.7852 12.4066 57.7683 12.3575C57.7514 12.3083 57.7449 12.2562 57.7493 12.2044Z" fill="#2E7992"/>
<path opacity="0.1" d="M45.418 33.8391L47.0621 21.6867C47.1235 21.2883 47.3228 20.9242 47.6252 20.6578C47.9276 20.3914 48.3139 20.2397 48.7168 20.229H60.8692C61.0536 20.2239 61.2368 20.2599 61.4055 20.3343C61.5743 20.4086 61.7244 20.5196 61.845 20.6591C61.9656 20.7986 62.0538 20.9631 62.1031 21.1408C62.1523 21.3185 62.1615 21.505 62.1299 21.6867L60.4858 33.8391C60.425 34.2372 60.2262 34.6013 59.9243 34.8677C59.6223 35.1341 59.2363 35.286 58.8338 35.2968H46.6787C46.4943 35.3018 46.3112 35.2659 46.1424 35.1915C45.9737 35.1171 45.8235 35.0062 45.7029 34.8667C45.5823 34.7272 45.4941 34.5627 45.4449 34.385C45.3956 34.2072 45.3864 34.0208 45.418 33.8391Z" fill="#707070"/>
<path opacity="0.1" d="M62.7318 33.8382L64.3838 21.6858C64.4452 21.2875 64.6445 20.9234 64.9469 20.657C65.2493 20.3906 65.6356 20.2388 66.0385 20.2281H78.1909C78.3754 20.2226 78.5588 20.2582 78.7278 20.3324C78.8968 20.4066 79.0471 20.5176 79.1678 20.6572C79.2886 20.7968 79.3767 20.9615 79.4258 21.1395C79.4749 21.3174 79.4837 21.504 79.4516 21.6858L77.8101 33.8382C77.7482 34.2363 77.5488 34.6001 77.2465 34.8664C76.9442 35.1327 76.5582 35.2847 76.1554 35.2959H63.9898C63.8056 35.301 63.6225 35.2651 63.4538 35.1907C63.2852 35.1163 63.1352 35.0053 63.0147 34.8658C62.8943 34.7262 62.8064 34.5616 62.7575 34.3839C62.7085 34.2062 62.6998 34.0198 62.7318 33.8382Z" fill="#707070"/>
<path opacity="0.1" d="M43.078 51.152L44.7222 38.9943C44.784 38.5962 44.9835 38.2324 45.2858 37.9661C45.5881 37.6997 45.9741 37.5478 46.3768 37.5366H58.5293C58.7136 37.5315 58.8968 37.5675 59.0655 37.6419C59.2343 37.7163 59.3844 37.8272 59.5051 37.9667C59.6257 38.1062 59.7138 38.2707 59.7631 38.4484C59.8124 38.6261 59.8216 38.8126 59.79 38.9943L58.1458 51.1494C58.0845 51.547 57.8855 51.9104 57.5835 52.1763C57.2816 52.4422 56.896 52.5937 56.4938 52.6044H44.3387C44.1549 52.6093 43.9723 52.5734 43.804 52.4994C43.6357 52.4253 43.4859 52.3148 43.3653 52.176C43.2448 52.0371 43.1565 51.8732 43.1068 51.6962C43.0572 51.5191 43.0473 51.3333 43.078 51.152Z" fill="#707070"/>
<path opacity="0.1" d="M60.3912 51.152L62.0327 38.9943C62.0946 38.5962 62.294 38.2324 62.5963 37.9661C62.8986 37.6997 63.2847 37.5478 63.6874 37.5366H75.8398C76.0242 37.5315 76.2073 37.5675 76.3761 37.6419C76.5448 37.7163 76.695 37.8272 76.8156 37.9667C76.9362 38.1062 77.0244 38.2707 77.0737 38.4484C77.1229 38.6261 77.1321 38.8126 77.1005 38.9943L75.459 51.1494C75.3966 51.547 75.1969 51.9102 74.8947 52.176C74.5924 52.4417 74.2067 52.5933 73.8044 52.6044H61.6493C61.4655 52.6094 61.283 52.5735 61.1147 52.4994C60.9465 52.4254 60.7969 52.3148 60.6765 52.1759C60.5562 52.037 60.4682 51.8731 60.4188 51.696C60.3695 51.5189 60.36 51.3331 60.3912 51.152Z" fill="#707070"/>
<path d="M44.6091 33.8391L46.2611 21.6867C46.3225 21.2883 46.5218 20.9242 46.8242 20.6578C47.1266 20.3914 47.5129 20.2397 47.9158 20.229H60.0683C60.2526 20.2239 60.4358 20.2599 60.6045 20.3343C60.7733 20.4086 60.9234 20.5196 61.044 20.6591C61.1647 20.7986 61.2528 20.9631 61.3021 21.1408C61.3513 21.3185 61.3605 21.505 61.3289 21.6867L59.6848 33.8391C59.624 34.2372 59.4252 34.6013 59.1233 34.8677C58.8213 35.1341 58.4353 35.286 58.0328 35.2968H45.8698C45.6855 35.3018 45.5023 35.2659 45.3335 35.1915C45.1648 35.1171 45.0147 35.0062 44.894 34.8667C44.7734 34.7272 44.6853 34.5627 44.636 34.385C44.5867 34.2072 44.5775 34.0208 44.6091 33.8391Z" fill="#2E7992"/>
<path opacity="0.2" d="M44.6091 33.8391L46.2611 21.6867C46.3225 21.2883 46.5218 20.9242 46.8242 20.6578C47.1266 20.3914 47.5129 20.2397 47.9158 20.229H60.0683C60.2526 20.2239 60.4358 20.2599 60.6045 20.3343C60.7733 20.4086 60.9234 20.5196 61.044 20.6591C61.1647 20.7986 61.2528 20.9631 61.3021 21.1408C61.3513 21.3185 61.3605 21.505 61.3289 21.6867L59.6848 33.8391C59.624 34.2372 59.4252 34.6013 59.1233 34.8677C58.8213 35.1341 58.4353 35.286 58.0328 35.2968H45.8698C45.6855 35.3018 45.5023 35.2659 45.3335 35.1915C45.1648 35.1171 45.0147 35.0062 44.894 34.8667C44.7734 34.7272 44.6853 34.5627 44.636 34.385C44.5867 34.2072 44.5775 34.0208 44.6091 33.8391Z" fill="white"/>
<path d="M61.9226 33.8382L63.5641 21.6858C63.6255 21.2875 63.8248 20.9234 64.1272 20.657C64.4296 20.3906 64.8159 20.2388 65.2188 20.2281H77.3712C77.5557 20.2226 77.7391 20.2582 77.9081 20.3324C78.0771 20.4066 78.2274 20.5176 78.3482 20.6572C78.4689 20.7968 78.557 20.9615 78.6061 21.1395C78.6552 21.3174 78.664 21.504 78.6319 21.6858L76.9904 33.8382C76.9285 34.2363 76.7291 34.6001 76.4268 34.8664C76.1245 35.1327 75.7385 35.2847 75.3358 35.2959H63.1807C62.9964 35.301 62.8133 35.2651 62.6446 35.1907C62.476 35.1163 62.326 35.0053 62.2055 34.8658C62.0851 34.7262 61.9972 34.5616 61.9483 34.3839C61.8994 34.2062 61.8906 34.0198 61.9226 33.8382Z" fill="#2E7992"/>
<path opacity="0.2" d="M61.9226 33.8382L63.5641 21.6858C63.6255 21.2875 63.8248 20.9234 64.1272 20.657C64.4296 20.3906 64.8159 20.2388 65.2188 20.2281H77.3712C77.5557 20.2226 77.7391 20.2582 77.9081 20.3324C78.0771 20.4066 78.2274 20.5176 78.3482 20.6572C78.4689 20.7968 78.557 20.9615 78.6061 21.1395C78.6552 21.3174 78.664 21.504 78.6319 21.6858L76.9904 33.8382C76.9285 34.2363 76.7291 34.6001 76.4268 34.8664C76.1245 35.1327 75.7385 35.2847 75.3358 35.2959H63.1807C62.9964 35.301 62.8133 35.2651 62.6446 35.1907C62.476 35.1163 62.326 35.0053 62.2055 34.8658C62.0851 34.7262 61.9972 34.5616 61.9483 34.3839C61.8994 34.2062 61.8906 34.0198 61.9226 33.8382Z" fill="white"/>
<path d="M42.2691 51.152L43.9133 38.9943C43.9751 38.5962 44.1746 38.2324 44.4769 37.9661C44.7792 37.6997 45.1652 37.5478 45.5679 37.5366H57.7204C57.9047 37.5315 58.0879 37.5675 58.2567 37.6419C58.4254 37.7163 58.5755 37.8272 58.6961 37.9667C58.8168 38.1062 58.9049 38.2707 58.9542 38.4484C59.0035 38.6261 59.0126 38.8126 58.9811 38.9943L57.3369 51.1494C57.2756 51.547 57.0766 51.9104 56.7747 52.1763C56.4727 52.4422 56.0871 52.5937 55.6849 52.6044H43.5298C43.346 52.6093 43.1634 52.5734 42.9951 52.4994C42.8268 52.4253 42.677 52.3148 42.5564 52.176C42.4359 52.0371 42.3476 51.8732 42.2979 51.6962C42.2483 51.5191 42.2384 51.3333 42.2691 51.152Z" fill="#2E7992"/>
<path opacity="0.2" d="M42.2691 51.152L43.9133 38.9943C43.9751 38.5962 44.1746 38.2324 44.4769 37.9661C44.7792 37.6997 45.1652 37.5478 45.5679 37.5366H57.7204C57.9047 37.5315 58.0879 37.5675 58.2567 37.6419C58.4254 37.7163 58.5755 37.8272 58.6961 37.9667C58.8168 38.1062 58.9049 38.2707 58.9542 38.4484C59.0035 38.6261 59.0126 38.8126 58.9811 38.9943L57.3369 51.1494C57.2756 51.547 57.0766 51.9104 56.7747 52.1763C56.4727 52.4422 56.0871 52.5937 55.6849 52.6044H43.5298C43.346 52.6093 43.1634 52.5734 42.9951 52.4994C42.8268 52.4253 42.677 52.3148 42.5564 52.176C42.4359 52.0371 42.3476 51.8732 42.2979 51.6962C42.2483 51.5191 42.2384 51.3333 42.2691 51.152Z" fill="white"/>
<path d="M59.5826 51.152L61.232 38.9943C61.2939 38.5962 61.4933 38.2324 61.7956 37.9661C62.0979 37.6997 62.4839 37.5478 62.8866 37.5366H75.0391C75.2235 37.5315 75.4066 37.5675 75.5754 37.6419C75.7441 37.7163 75.8942 37.8272 76.0149 37.9667C76.1355 38.1062 76.2237 38.2707 76.2729 38.4484C76.3222 38.6261 76.3314 38.8126 76.2998 38.9943L74.6583 51.1494C74.5959 51.547 74.3962 51.9102 74.094 52.176C73.7917 52.4417 73.406 52.5933 73.0036 52.6044H60.8407C60.6569 52.6094 60.4744 52.5735 60.3062 52.4994C60.1379 52.4254 59.9883 52.3148 59.8679 52.1759C59.7476 52.037 59.6596 51.8731 59.6102 51.696C59.5609 51.5189 59.5515 51.3331 59.5826 51.152Z" fill="#2E7992"/>
<path opacity="0.2" d="M59.5826 51.152L61.232 38.9943C61.2939 38.5962 61.4933 38.2324 61.7956 37.9661C62.0979 37.6997 62.4839 37.5478 62.8866 37.5366H75.0391C75.2235 37.5315 75.4066 37.5675 75.5754 37.6419C75.7441 37.7163 75.8942 37.8272 76.0149 37.9667C76.1355 38.1062 76.2237 38.2707 76.2729 38.4484C76.3222 38.6261 76.3314 38.8126 76.2998 38.9943L74.6583 51.1494C74.5959 51.547 74.3962 51.9102 74.094 52.176C73.7917 52.4417 73.406 52.5933 73.0036 52.6044H60.8407C60.6569 52.6094 60.4744 52.5735 60.3062 52.4994C60.1379 52.4254 59.9883 52.3148 59.8679 52.1759C59.7476 52.037 59.6596 51.8731 59.6102 51.696C59.5609 51.5189 59.5515 51.3331 59.5826 51.152Z" fill="white"/>
<path d="M52.281 32.8198C52.0969 32.8239 51.9142 32.7873 51.7459 32.7127C51.5777 32.638 51.428 32.527 51.3075 32.3878C51.1871 32.2485 51.0989 32.0844 51.0492 31.9071C50.9996 31.7298 50.9897 31.5437 51.0203 31.3622L51.9947 24.1658C52.057 23.7676 52.2565 23.4038 52.5586 23.1371C52.8607 22.8705 53.2466 22.7178 53.6494 22.7055C53.8338 22.7008 54.017 22.7371 54.1858 22.8118C54.3545 22.8865 54.5046 22.9977 54.6252 23.1374C54.7458 23.2771 54.8339 23.4417 54.8831 23.6196C54.9324 23.7974 54.9416 23.984 54.9101 24.1658L53.9383 31.3622C53.8754 31.7603 53.6753 32.1238 53.3726 32.39C53.07 32.6562 52.6839 32.8082 52.281 32.8198Z" fill="white"/>
<path d="M47.9079 27.7638C47.9707 27.3655 48.1707 27.0016 48.4733 26.735C48.7759 26.4683 49.162 26.3158 49.5651 26.3035H56.7668C56.9511 26.2994 57.1341 26.336 57.3026 26.4108C57.4711 26.4857 57.621 26.5969 57.7415 26.7364C57.8619 26.876 57.9501 27.0405 57.9995 27.2181C58.049 27.3957 58.0585 27.5821 58.0275 27.7638C57.9646 28.1615 57.7649 28.5247 57.4629 28.7909C57.1608 29.057 56.7752 29.2093 56.3728 29.2215H49.1764C48.9917 29.2268 48.8081 29.1911 48.6388 29.1169C48.4696 29.0427 48.3189 28.932 48.1976 28.7926C48.0762 28.6532 47.9873 28.4886 47.9372 28.3107C47.8872 28.1328 47.8771 27.9461 47.9079 27.7638Z" fill="white"/>
<path d="M46.5659 48.649C46.0748 48.0817 46.2009 47.1546 46.8443 46.5873L52.6225 41.4973C53.2659 40.93 54.1983 40.93 54.6842 41.4973C55.1754 42.0646 55.0493 42.9943 54.4058 43.5616L48.6277 48.649C47.9842 49.2163 47.0492 49.2163 46.5659 48.649Z" fill="white"/>
<path d="M47.5322 41.4973C48.1757 40.93 49.1081 40.93 49.5966 41.4973L53.9959 46.5873C54.487 47.1546 54.3609 48.0817 53.7175 48.649C53.074 49.2163 52.1416 49.2163 51.6557 48.649L47.2538 43.5616C46.7627 42.9943 46.8888 42.0646 47.5322 41.4973Z" fill="white"/>
<path d="M65.2188 27.7639C65.2816 27.3656 65.4816 27.0016 65.7842 26.735C66.0868 26.4684 66.4729 26.3158 66.876 26.3036H74.0724C74.2569 26.299 74.4401 26.3353 74.6089 26.41C74.7776 26.4847 74.9277 26.5958 75.0482 26.7355C75.1688 26.8752 75.2569 27.0399 75.3062 27.2177C75.3554 27.3956 75.3647 27.5821 75.3331 27.7639C75.2703 28.1616 75.0706 28.5248 74.7685 28.7909C74.4664 29.0571 74.0809 29.2094 73.6785 29.2216H66.4847C66.3002 29.2265 66.1169 29.1905 65.948 29.1161C65.779 29.0418 65.6286 28.9309 65.5076 28.7916C65.3866 28.6522 65.2979 28.4878 65.248 28.3101C65.1981 28.1325 65.1881 27.9459 65.2188 27.7639Z" fill="white"/>
<path d="M63.186 42.8051C63.2489 42.4071 63.449 42.0435 63.7516 41.7773C64.0543 41.5111 64.4404 41.3591 64.8433 41.3475H72.0397C72.2237 41.3434 72.4064 41.38 72.5747 41.4547C72.743 41.5293 72.8927 41.6403 73.0131 41.7795C73.1336 41.9188 73.2218 42.0829 73.2714 42.2602C73.3211 42.4375 73.331 42.6236 73.3004 42.8051C73.2381 43.2033 73.0386 43.5671 72.7365 43.8338C72.4343 44.1005 72.0485 44.2531 71.6457 44.2654H64.4467C64.2623 44.2696 64.0794 44.233 63.9109 44.1581C63.7424 44.0833 63.5925 43.9721 63.472 43.8325C63.3515 43.693 63.2634 43.5285 63.214 43.3509C63.1645 43.1733 63.155 42.9869 63.186 42.8051Z" fill="white"/>
<path d="M62.5742 47.3408C62.637 46.9432 62.8367 46.5799 63.1388 46.3138C63.4409 46.0477 63.8264 45.8954 64.2288 45.8832H71.4252C71.6095 45.8787 71.7925 45.915 71.9611 45.9895C72.1297 46.064 72.2798 46.1749 72.4005 46.3142C72.5213 46.4535 72.6097 46.6178 72.6595 46.7953C72.7093 46.9728 72.7192 47.1591 72.6885 47.3408C72.6257 47.7392 72.4257 48.1031 72.1231 48.3697C71.8206 48.6363 71.4344 48.7889 71.0313 48.8011H63.8349C63.6504 48.8058 63.4672 48.7695 63.2985 48.6948C63.1297 48.6201 62.9797 48.5089 62.8591 48.3692C62.7385 48.2296 62.6504 48.0649 62.6011 47.887C62.5519 47.7092 62.5427 47.5227 62.5742 47.3408Z" fill="white"/>
<path d="M29.8239 93.911C29.2661 93.9947 28.9618 94.4587 28.9073 94.659C28.8401 94.9012 28.2138 94.7427 27.7967 94.4841C27.3796 94.2254 27.287 93.8578 26.9029 93.357C26.6658 93.0476 26.4186 92.9361 26.2639 92.8955C26.2056 93.1224 26.1409 93.324 26.0712 93.4495C25.8088 93.925 25.8836 94.7516 26.3032 94.9024C26.7229 95.0533 30.4058 95.6416 31.2071 95.2904C31.6914 95.0787 30.7152 94.4866 29.8239 93.9123V93.911Z" fill="#EF5E4E"/>
<path d="M26.9029 93.3554C27.2871 93.8562 27.3784 94.2239 27.7968 94.4825C28.2139 94.7411 28.8402 94.8996 28.9074 94.6575C28.9619 94.4584 29.2674 93.9944 29.824 93.9095C29.2408 93.5342 28.6944 93.1678 28.6145 92.9206C28.4142 92.2943 28.4395 91.3675 28.1885 91.1799C27.9375 90.9922 26.6038 90.9529 26.5353 91.4182C26.5353 91.4182 26.4262 92.26 26.264 92.8939C26.4174 92.9345 26.6646 93.0461 26.9029 93.3554Z" fill="#9388CD"/>
<path d="M10.6214 93.4717C11.1691 93.6074 11.4278 94.098 11.4645 94.3021C11.5089 94.5494 12.1466 94.4505 12.5865 94.2311C13.0265 94.0131 13.152 93.6556 13.5818 93.1928C13.8467 92.9063 14.1041 92.8188 14.26 92.7935C14.2968 93.0255 14.3425 93.2308 14.3995 93.3627C14.6163 93.8609 14.4642 94.6774 14.0331 94.7877C13.6008 94.898 9.87976 95.1389 9.11401 94.7142C8.65126 94.4581 9.6782 93.9598 10.6202 93.4717H10.6214Z" fill="#EF5E4E"/>
<path d="M13.5818 93.1929C13.152 93.6556 13.0265 94.0131 12.5866 94.2312C12.1466 94.4493 11.5076 94.5494 11.4645 94.3022C11.429 94.0981 11.1692 93.6075 10.6215 93.4718C11.2376 93.1536 11.8157 92.8392 11.9184 92.5995C12.1771 91.9948 12.2392 91.0693 12.5054 90.9058C12.7729 90.7422 14.1041 90.8284 14.1295 91.2975C14.1295 91.2975 14.1586 92.1457 14.2613 92.7923C14.1041 92.8176 13.848 92.9064 13.583 93.1916L13.5818 93.1929Z" fill="#9388CD"/>
<path d="M25.5222 28.9662C25.5222 28.9662 25.3409 28.5224 24.702 28.4438C24.063 28.3652 23.3822 28.8584 23.0069 29.3909C22.6316 29.9234 23.0969 32.3005 24.2354 32.2422C25.3739 32.1826 25.4931 29.1449 25.5222 28.9674V28.9662Z" fill="#073C4B"/>
<path d="M37.8731 40.5888C36.9895 40.6876 35.9879 40.7371 34.9927 40.7067C33.3306 40.6547 31.6913 40.3758 30.6644 39.7216C30.5046 39.6202 30.3576 39.5111 30.2207 39.3945C28.5332 37.9619 28.395 35.4643 27.9107 34.1889L38.5045 36.1882C38.5045 36.1882 49.5255 29.0581 50.4612 29.9316C51.3968 30.8051 43.2676 39.9853 37.8744 40.59L37.8731 40.5888Z" fill="#9388CD"/>
<path d="M36.7497 35.6191L35.8749 40.9781C35.8749 40.9781 32.7422 40.9781 31.1295 40.1946C29.5169 39.4111 26.7252 35.7104 26.7239 35.1501C26.7239 34.5897 27.127 33.8975 27.127 33.8975L36.7497 35.6179V35.6191Z" fill="#F29892"/>
<path d="M22.0496 41.4957C22.2651 37.9636 20.5206 36.441 22.2283 34.9209C23.7104 33.6011 24.1275 33.6581 25.6273 33.6226C26.8875 33.5935 29.4688 34.6952 30.2637 35.7563C32.7955 39.135 31.2564 39.0197 31.6545 43.9958C31.7026 44.5929 31.7825 45.2611 31.8839 45.9457C32.0006 46.9257 32.0678 48.0084 32.23 48.9174C28.6333 49.7719 22.4641 50.7266 20.5193 50.4147C20.5979 50.118 22.0229 41.928 22.0496 41.4982V41.4957Z" fill="#F6BFBB"/>
<path d="M31.4112 70.9073C31.3428 71.4297 30.8382 75.067 30.6328 76.421C30.0268 80.4108 29.256 91.3786 29.256 91.3786C29.256 91.3786 28.3038 91.9668 26.6608 91.9605C23.9413 91.9504 22.657 91.3786 22.657 91.3786C22.657 91.3786 24.1175 73.8651 24.2202 72.648C24.7324 66.5397 25.2459 60.4441 25.3118 59.6023L15.8565 91.3786C15.8565 91.3786 14.9792 91.8236 13.0724 91.8388C11.2911 91.8527 10.443 91.3786 10.443 91.3786C10.443 91.3786 11.0427 88.682 11.2417 87.7831L12.4335 82.4215L13.0357 79.711L13.8242 76.1598C16.5018 61.9959 19.6219 53.2722 20.8377 49.4282C21.3423 49.5119 22.1157 49.5753 23.0501 49.607C23.1667 49.6108 23.2859 49.6146 23.4088 49.6171C26.0154 49.6818 29.6718 49.5144 32.253 48.9033C32.3088 49.4738 32.5801 50.734 32.6537 51.16C32.9732 53.0364 32.8907 58.1177 32.6346 60.4429C32.3443 63.0774 31.9691 66.6577 31.4125 70.9073H31.4112Z" fill="#79B9D3"/>
<path d="M26.8853 54.5817C26.406 55.6124 26.103 56.7065 25.7683 57.7905C25.6048 58.3205 25.4463 58.8618 25.2067 59.3626C24.9874 59.8203 24.7376 60.2691 24.7287 60.7889C24.7237 61.0627 25.1496 61.0627 25.1547 60.7889C25.1636 60.283 25.4577 59.8494 25.6567 59.4006C25.871 58.9189 26.0244 58.4067 26.1804 57.9021C26.5037 56.8549 26.7914 55.7924 27.2542 54.7947C27.3683 54.5475 27.0019 54.3319 26.8865 54.5804L26.8853 54.5817Z" fill="#579AB4"/>
<path d="M28.0528 55.3893C27.5963 55.8698 27.0347 56.5037 26.3729 56.6825C26.1092 56.7535 26.2208 57.1642 26.4857 57.0932C27.2236 56.8929 27.8435 56.2286 28.3532 55.691C28.5421 55.492 28.2417 55.1915 28.0528 55.3906V55.3893Z" fill="#579AB4"/>
<path d="M38.6603 35.9122C38.2825 36.1252 37.9364 36.3889 37.5624 36.6082C37.4318 36.6856 37.5497 36.8897 37.6816 36.8124C38.0556 36.593 38.4017 36.3293 38.7795 36.1163C38.9126 36.0415 38.7934 35.8374 38.6603 35.9122Z" fill="#7363BA"/>
<path d="M24.2773 31.5892L24.0757 33.9321C24.0504 34.3542 25.0393 35.494 25.7391 34.9945C25.9432 34.8487 25.7163 34.2541 25.5553 33.8065L25.1661 31.9898L24.2786 31.5879L24.2773 31.5892Z" fill="#9388CD"/>
<path d="M24.2823 30.1336C24.2823 30.1336 24.1542 30.7865 24.1859 31.2607C24.2328 31.9618 24.7158 32.2648 25.4195 32.313C26.1054 32.3599 26.3323 32.2001 26.454 31.7222C26.4844 31.603 26.5098 31.4268 26.4997 31.2658C26.4832 30.9983 26.3539 30.5545 26.1472 30.2718C26.0534 30.1425 25.9824 29.932 25.9266 29.8293C25.5234 29.0813 24.5384 29.146 24.281 30.1336H24.2823Z" fill="#9388CD"/>
<path d="M24.1074 30.7309C24.0681 30.6561 24.0415 30.5762 24.0187 30.495C23.9755 30.3404 23.8767 30.121 23.6763 30.2973C23.386 30.5546 23.6599 31.3648 24.0618 31.3217C24.3597 31.2887 24.2063 30.9198 24.1074 30.7309Z" fill="#9388CD"/>
<path d="M24.5826 31.9161C24.5306 32.0289 24.7867 32.9519 25.4105 33.137L25.3065 32.5195C25.29 32.4257 25.323 32.3065 25.4181 32.3141H25.4193C25.981 32.3522 26.2345 32.2533 26.3753 31.9528C26.2472 32.0175 25.9518 32.143 25.6298 32.1329C25.2 32.1189 24.6384 31.7969 24.5839 31.9161H24.5826Z" fill="#7363BA"/>
<path d="M25.3154 31.1475C25.6438 31.1704 26.0216 31.088 26.1623 31.0144C26.2105 30.9891 26.2701 31.0233 26.2726 31.074C26.3271 32.0325 25.4574 31.642 25.2634 31.2566C25.2355 31.2008 25.2507 31.1425 25.3154 31.1475Z" fill="white"/>
<path d="M24.7463 30.1031C24.8972 29.9776 25.0303 29.8787 25.2383 29.9155C25.2966 29.9256 25.3004 30.0004 25.2256 30.0207C25.0202 30.0765 24.9543 30.0892 24.7869 30.1931C24.7121 30.24 24.6589 30.1754 24.7463 30.1031Z" fill="#073C4B"/>
<path d="M26.1005 29.9001C26.0168 29.8443 25.9154 29.8506 25.8279 29.8608C25.7696 29.8671 25.7366 29.928 25.8114 29.9482C26.0168 30.004 26.0143 29.9787 26.1106 30.0205C26.1791 30.0497 26.1968 29.9635 26.1017 29.9001H26.1005Z" fill="#073C4B"/>
<path d="M48.3668 30.5965C49.4762 30.0336 49.9795 29.368 50.4067 28.9953C51.1636 28.3335 52.4707 27.4016 52.6926 27.6375C52.8548 27.8099 51.7316 28.4539 51.7316 28.4539C51.7316 28.4539 52.2577 29.1335 52.0739 29.5937C51.8901 30.0539 50.2051 31.5626 49.5028 31.3775C48.8004 31.1924 47.6518 30.9591 48.3656 30.5978L48.3668 30.5965Z" fill="#9388CD"/>
<path d="M22.4682 35.1974C21.9331 34.992 11.7235 38.3377 10.0069 45.7848C8.71121 51.4075 18.7269 56.2163 19.4597 55.0829C20.8428 52.9441 14.6281 49.4462 14.4544 46.5214C14.2807 43.5978 26.3755 36.6997 22.4694 35.1961L22.4682 35.1974Z" fill="#9388CD"/>
<path d="M20.257 53.881C20.8148 53.829 21.4626 53.4373 21.3207 53.8709C21.1787 54.3044 20.598 54.3171 20.47 54.61C20.3419 54.9029 21.9647 55.9133 21.7124 56.1605C21.5451 56.3241 20.7806 55.5748 20.7552 55.6407C20.7286 55.7066 21.5552 56.3659 21.3372 56.5611C21.0696 56.8008 20.65 56.8553 20.2481 56.6626C20.3254 56.7805 20.3698 56.892 20.3153 56.9491C20.1682 57.1025 17.4805 54.8712 18.9638 54.0623C19.2846 53.8873 19.3987 53.9609 20.2582 53.8797L20.257 53.881Z" fill="#9388CD"/>
<path d="M17.9079 42.606L15.0401 38.7353C15.0401 38.7353 18.7763 35.3782 23.0006 34.2866C23.0006 34.2866 23.4457 34.4945 23.5281 35.8955C23.6789 38.4463 19.5345 41.5828 17.9079 42.6047V42.606Z" fill="#F6BFBB"/>
<path d="M25.5221 28.9658C25.5221 28.9658 25.938 29.4881 25.9671 29.5971C25.9963 29.7062 24.466 29.9508 24.2822 30.1334C24.0996 30.316 24.111 29.9622 24.1402 29.7949C24.1694 29.6275 24.5839 28.4041 25.5208 28.9658H25.5221Z" fill="#073C4B"/>
<path d="M23.6549 28.9633C23.6549 28.9633 22.7141 28.1012 21.8267 28.5817C20.9392 29.0622 21.1357 31.0869 20.8923 31.4622C20.6489 31.8374 19.8857 31.1731 19.1237 31.7449C18.3605 32.3167 18.6698 33.554 19.6765 33.9673C20.6831 34.3819 21.6162 33.9737 21.9649 33.639C22.3135 33.303 22.5506 33.1179 22.6482 32.1392C22.6786 31.8374 22.865 30.1462 23.1617 29.9687C23.4571 29.7912 23.8552 29.1167 23.6549 28.962V28.9633Z" fill="#073C4B"/>
<path d="M14.0612 47.6768C14.193 47.6768 14.3046 47.5766 14.3173 47.4422C14.4035 46.5003 14.832 45.7332 14.8371 45.7256C14.9068 45.6027 14.8637 45.4455 14.7407 45.3745C14.6165 45.3047 14.4605 45.3466 14.3896 45.4708C14.3693 45.5063 13.9002 46.338 13.8051 47.3953C13.7924 47.5373 13.8964 47.6616 14.0384 47.6743C14.046 47.6743 14.0536 47.6743 14.0624 47.6743L14.0612 47.6768Z" fill="#7363BA"/>
<path d="M29.7949 35.1209C30.3958 35.9336 31.2541 36.6017 31.5825 37.5855C31.8944 38.5224 31.9159 39.633 31.6231 40.5776C31.5597 40.7829 31.2364 40.6955 31.301 40.4888C31.5901 39.5557 31.5647 38.4223 31.2021 37.512C30.8624 36.66 30.0446 36.0198 29.5071 35.2908C29.379 35.1171 29.6694 34.951 29.7962 35.1222L29.7949 35.1209Z" fill="#EF5E4E"/>
<path d="M45.3748 36.1889C46.0847 35.5373 46.8771 34.949 47.5592 34.272C48.2096 33.628 48.7484 32.899 49.2834 32.1586C49.646 31.6578 49.911 31.19 50.4384 30.8312C51.0913 30.3887 52.3135 29.5102 51.7277 28.5885C51.6124 28.4059 51.9014 28.2385 52.0168 28.4198C52.5062 29.1907 52.046 29.803 51.5363 30.3862C51.2371 30.7285 50.858 30.9136 50.5056 31.1875C50.1468 31.4664 49.9313 31.8061 49.6904 32.1776C49.2416 32.8686 48.704 33.5887 48.1183 34.1731C47.3234 34.9668 46.4397 35.6653 45.6106 36.4273C45.4521 36.5731 45.215 36.3373 45.3735 36.1902L45.3748 36.1889Z" fill="#7363BA"/>
<path d="M21.1712 39.5088C21.4476 39.216 21.7873 39.0182 22.122 38.8001C22.5176 38.5415 22.8878 38.2436 23.2808 37.9799C23.4393 37.8734 23.6687 38.0509 23.6079 38.2322C23.6041 38.2448 23.6003 38.2563 23.5952 38.2689C23.566 38.3564 23.5014 38.402 23.4304 38.4173C23.0995 38.6442 22.7826 38.8902 22.4504 39.1171C22.117 39.3453 21.7645 39.5291 21.4856 39.8258C21.2878 40.035 20.9734 39.7193 21.1699 39.5101L21.1712 39.5088Z" fill="#EF5E4E"/>
<path d="M31.3744 41.3171C31.3833 41.2473 31.4188 41.1713 31.4974 41.1561C31.5101 41.1535 31.5228 41.151 31.5354 41.1485C31.7155 41.1117 31.8068 41.3424 31.6965 41.4363C31.6293 42.1589 31.8131 42.9551 31.879 43.6676C31.9335 44.2482 31.9716 44.834 32.0185 45.4159C32.1301 46.7839 32.2403 48.2786 32.646 49.592C32.7094 49.7987 32.3874 49.8862 32.324 49.6808C31.9171 48.3648 31.8334 46.9296 31.6965 45.5642C31.6305 44.9113 31.5925 44.2571 31.5329 43.6055C31.467 42.8714 31.2768 42.0511 31.3757 41.3171H31.3744Z" fill="#EF5E4E"/>
<path d="M29.8289 34.1691C31.2159 34.282 32.6308 34.637 33.9886 34.9349C34.6732 35.0845 35.3654 35.1999 36.0475 35.3596C36.7486 35.5232 37.4256 35.8439 38.1356 35.958C38.3473 35.9922 38.2573 36.3143 38.0468 36.28C37.404 36.1773 36.7866 35.8972 36.1578 35.7311C35.4846 35.5523 34.7886 35.4509 34.1078 35.3026C32.7106 34.9996 31.2552 34.6192 29.8289 34.5038C29.6159 34.4861 29.6134 34.1514 29.8289 34.1691Z" fill="#EF5E4E"/>
</svg>
